<svg xmlns="http://www.w3.org/2000/svg" xmlns:xlink="http://www.w3.org/1999/xlink" width="820.021" height="814.041" viewBox="0 0 820.021 814.041">
  <defs>
    <linearGradient id="linear-gradient" x1="0.5" x2="0.5" y2="1" gradientUnits="objectBoundingBox">
      <stop offset="0" stop-color="#6f6f6f"/>
      <stop offset="1" stop-color="#404040"/>
    </linearGradient>
    <filter id="Path_33" x="0" y="497.108" width="554.978" height="298.64" filterUnits="userSpaceOnUse">
      <feOffset dy="50" input="SourceAlpha"/>
      <feGaussianBlur stdDeviation="25" result="blur"/>
      <feFlood flood-opacity="0.161"/>
      <feComposite operator="in" in2="blur"/>
      <feComposite in="SourceGraphic"/>
    </filter>
    <filter id="Path_26" x="530.024" y="294.171" width="289.996" height="501.321" filterUnits="userSpaceOnUse">
      <feOffset dy="50" input="SourceAlpha"/>
      <feGaussianBlur stdDeviation="25" result="blur-2"/>
      <feFlood flood-opacity="0.161"/>
      <feComposite operator="in" in2="blur-2"/>
      <feComposite in="SourceGraphic"/>
    </filter>
    <linearGradient id="linear-gradient-2" x1="0.5" x2="0.5" y2="0.812" gradientUnits="objectBoundingBox">
      <stop offset="0" stop-color="#ebff00"/>
      <stop offset="1" stop-color="#b2b200"/>
    </linearGradient>
    <filter id="Path_21" x="265.022" y="77.278" width="554.978" height="405.363" filterUnits="userSpaceOnUse">
      <feOffset dy="50" input="SourceAlpha"/>
      <feGaussianBlur stdDeviation="25" result="blur-3"/>
      <feFlood flood-opacity="0.161"/>
      <feComposite operator="in" in2="blur-3"/>
      <feComposite in="SourceGraphic"/>
    </filter>
    <filter id="Path_34" x="265.022" y="497.108" width="554.978" height="298.64" filterUnits="userSpaceOnUse">
      <feOffset dy="50" input="SourceAlpha"/>
      <feGaussianBlur stdDeviation="25" result="blur-4"/>
      <feFlood flood-opacity="0.161"/>
      <feComposite operator="in" in2="blur-4"/>
      <feComposite in="SourceGraphic"/>
    </filter>
  </defs>
  <g id="wequee-full" transform="translate(74.98)">
    <g id="WieQuee-logo">
      <g id="Path_30" data-name="Path 30" transform="translate(0 606.966) rotate(-90)" fill="#404040">
        <path d="M 329.4447326660156 139.4961090087891 L 21.87605094909668 139.4961090087891 C 16.83491516113281 139.4961090087891 12.21436977386475 137.9206085205078 8.514006614685059 134.9398803710938 C 6.80286979675293 133.5615539550781 5.314688205718994 131.9088287353516 4.090778827667236 130.0275573730469 C 2.896324396133423 128.1915130615234 1.980415344238281 126.1807861328125 1.368551731109619 124.0512008666992 C 0.7566425800323486 121.9216079711914 0.4655517041683197 119.731330871582 0.5032334923744202 117.5412902832031 C 0.5418698787689209 115.2973327636719 0.9257789850234985 113.1066970825195 1.644279003143311 111.0303344726562 C 3.198051691055298 106.5400161743164 6.277551651000977 102.7521514892578 10.54982471466064 100.0762405395508 L 164.3340911865234 3.754242897033691 C 167.7330932617188 1.625288486480713 171.6496429443359 0.5000157356262207 175.6603698730469 0.5000157356262207 C 179.6710510253906 0.5000157356262207 183.587646484375 1.625288486480713 186.9866485595703 3.754242897033691 L 285.291748046875 65.3271484375 L 340.7709045410156 100.0762405395508 C 345.0431823730469 102.7521514892578 348.1226806640625 106.5400161743164 349.6764526367188 111.0303344726562 C 350.3949584960938 113.1066970825195 350.7788696289062 115.2973327636719 350.8175048828125 117.5412902832031 C 350.855224609375 119.731330871582 350.5640869140625 121.9216079711914 349.9521789550781 124.0512008666992 C 349.34033203125 126.1807861328125 348.4244079589844 128.1915588378906 347.2299499511719 130.0276031494141 C 346.0060424804688 131.9088287353516 344.5178833007812 133.5615539550781 342.8067932128906 134.9398803710938 C 339.1063842773438 137.9206085205078 334.4858703613281 139.4961090087891 329.4447326660156 139.4961090087891 Z" stroke="none"/>
        <path d="M 175.6603698730469 1.000015258789062 C 171.7435913085938 1.000015258789062 167.9188232421875 2.098922729492188 164.5995025634766 4.178009033203125 L 10.815185546875 100.5000152587891 C 6.64068603515625 103.1146545410156 3.6328125 106.8125152587891 2.116790771484375 111.1938323974609 C 1.415557861328125 113.2202911376953 1.040863037109375 115.3587417602539 1.003143310546875 117.5498809814453 C 0.966278076171875 119.6903381347656 1.25091552734375 121.8311996459961 1.849090576171875 123.9131088256836 C 2.447235107421875 125.9950180053711 3.34246826171875 127.9604721069336 4.509918212890625 129.7549285888672 C 5.7049560546875 131.5918731689453 7.157684326171875 133.2053375244141 8.82763671875 134.5505218505859 C 12.43820190429688 137.4588317871094 16.95028686523438 138.9961090087891 21.87603759765625 138.9961090087891 L 329.4447326660156 138.9961090087891 C 334.3705139160156 138.9961090087891 338.8825378417969 137.4588317871094 342.4931030273438 134.5505218505859 C 344.1630859375 133.2053375244141 345.6157836914062 131.5918731689453 346.8108215332031 129.7549285888672 C 347.9782409667969 127.9604721069336 348.8734741210938 125.9950180053711 349.4716491699219 123.9131088256836 C 350.06982421875 121.8312454223633 350.3544006347656 119.6903381347656 350.3175964355469 117.5498809814453 C 350.2798767089844 115.3587875366211 349.9051818847656 113.2202911376953 349.2039489746094 111.1938323974609 C 347.6878662109375 106.8125610351562 344.6799926757812 103.1147003173828 340.5054931640625 100.5000152587891 L 285.0263061523438 65.75092315673828 L 186.7212371826172 4.178009033203125 C 183.4018707275391 2.098922729492188 179.5771026611328 1.000015258789062 175.6603698730469 1.000015258789062 M 175.6603546142578 0 C 179.6837310791016 0 183.7071228027344 1.11016845703125 187.2520446777344 3.330520629882812 L 285.55712890625 64.90342712402344 L 341.0363159179688 99.65251159667969 C 359.6204223632812 111.2925567626953 351.3732299804688 139.9961090087891 329.4447326660156 139.9961090087891 L 21.87603759765625 139.9961090087891 C -0.052490234375 139.9961090087891 -8.2996826171875 111.2925567626953 10.28436279296875 99.65251159667969 L 164.0686950683594 3.330520629882812 C 167.6136016845703 1.11016845703125 171.6369781494141 0 175.6603546142578 0 Z" stroke="none" fill="#ebff00"/>
      </g>
      <g id="Path_31" data-name="Path 31" transform="translate(139.996 97.821) rotate(90)" fill="#6f6f6f">
        <path d="M 329.4447326660156 139.4961090087891 L 21.87605094909668 139.4961090087891 C 16.83491516113281 139.4961090087891 12.21436977386475 137.9206085205078 8.514006614685059 134.9398803710938 C 6.80286979675293 133.5615539550781 5.314688205718994 131.9088287353516 4.090778827667236 130.0275573730469 C 2.896324396133423 128.1915130615234 1.980415344238281 126.1807861328125 1.368551731109619 124.0512008666992 C 0.7566425800323486 121.9216079711914 0.4655517041683197 119.731330871582 0.5032334923744202 117.5412902832031 C 0.5418698787689209 115.2973327636719 0.9257789850234985 113.1066970825195 1.644279003143311 111.0303344726562 C 3.198051691055298 106.5400161743164 6.277551651000977 102.7521514892578 10.54982471466064 100.0762405395508 L 164.3340911865234 3.754242897033691 C 167.7330932617188 1.625288486480713 171.6496429443359 0.5000157356262207 175.6603698730469 0.5000157356262207 C 179.6710510253906 0.5000157356262207 183.587646484375 1.625288486480713 186.9866485595703 3.754242897033691 L 285.291748046875 65.3271484375 L 340.7709045410156 100.0762405395508 C 345.0431823730469 102.7521514892578 348.1226806640625 106.5400161743164 349.6764526367188 111.0303344726562 C 350.3949584960938 113.1066970825195 350.7788696289062 115.2973327636719 350.8175048828125 117.5412902832031 C 350.855224609375 119.731330871582 350.5640869140625 121.9216079711914 349.9521789550781 124.0512008666992 C 349.34033203125 126.1807861328125 348.4244079589844 128.1915588378906 347.2299499511719 130.0276031494141 C 346.0060424804688 131.9088287353516 344.5178833007812 133.5615539550781 342.8067932128906 134.9398803710938 C 339.1063842773438 137.9206085205078 334.4858703613281 139.4961090087891 329.4447326660156 139.4961090087891 Z" stroke="none"/>
        <path d="M 175.6603698730469 1.000015258789062 C 171.7435913085938 1.000015258789062 167.9188232421875 2.098922729492188 164.5995025634766 4.178009033203125 L 10.815185546875 100.5000152587891 C 6.64068603515625 103.1146545410156 3.6328125 106.8125152587891 2.116790771484375 111.1938323974609 C 1.415557861328125 113.2202911376953 1.040863037109375 115.3587417602539 1.003143310546875 117.5498809814453 C 0.966278076171875 119.6903381347656 1.25091552734375 121.8311996459961 1.849090576171875 123.9131088256836 C 2.447235107421875 125.9950180053711 3.34246826171875 127.9604721069336 4.509918212890625 129.7549285888672 C 5.7049560546875 131.5918731689453 7.157684326171875 133.2053375244141 8.82763671875 134.5505218505859 C 12.43820190429688 137.4588317871094 16.95028686523438 138.9961090087891 21.87603759765625 138.9961090087891 L 329.4447326660156 138.9961090087891 C 334.3705139160156 138.9961090087891 338.8825378417969 137.4588317871094 342.4931030273438 134.5505218505859 C 344.1630859375 133.2053375244141 345.6157836914062 131.5918731689453 346.8108215332031 129.7549285888672 C 347.9782409667969 127.9604721069336 348.8734741210938 125.9950180053711 349.4716491699219 123.9131088256836 C 350.06982421875 121.8312454223633 350.3544006347656 119.6903381347656 350.3175964355469 117.5498809814453 C 350.2798767089844 115.3587875366211 349.9051818847656 113.2202911376953 349.2039489746094 111.1938323974609 C 347.6878662109375 106.8125610351562 344.6799926757812 103.1147003173828 340.5054931640625 100.5000152587891 L 285.0263061523438 65.75092315673828 L 186.7212371826172 4.178009033203125 C 183.4018707275391 2.098922729492188 179.5771026611328 1.000015258789062 175.6603698730469 1.000015258789062 M 175.6603546142578 0 C 179.6837310791016 0 183.7071228027344 1.11016845703125 187.2520446777344 3.330520629882812 L 285.55712890625 64.90342712402344 L 341.0363159179688 99.65251159667969 C 359.6204223632812 111.2925567626953 351.3732299804688 139.9961090087891 329.4447326660156 139.9961090087891 L 21.87603759765625 139.9961090087891 C -0.052490234375 139.9961090087891 -8.2996826171875 111.2925567626953 10.28436279296875 99.65251159667969 L 164.0686950683594 3.330520629882812 C 167.6136016845703 1.11016845703125 171.6369781494141 0 175.6603546142578 0 Z" stroke="none" fill="#ebff00"/>
      </g>
      <g id="Path_32" data-name="Path 32" transform="translate(404.998 562.845) rotate(180)" fill="url(#linear-gradient)">
        <path d="M 383.289794921875 158.3156127929688 L 198.2797393798828 36.63736724853516 L 197.9980316162109 36.45211410522461 L 197.7206878662109 36.64381408691406 L 21.68185997009277 158.3155670166016 C 18.85592269897461 158.2956848144531 16.1148853302002 157.7320556640625 13.53183269500732 156.6395721435547 C 10.99113273620605 155.5649108886719 8.709182739257812 154.0263671875 6.749483108520508 152.0666198730469 C 4.789732933044434 150.1068725585938 3.251183271408081 147.8249664306641 2.176533222198486 145.2841644287109 C 1.064083099365234 142.6539611816406 0.499983161687851 139.8596649169922 0.499983161687851 136.9789123535156 L 0.499983161687851 21.83721542358398 C 0.499983161687851 18.95651626586914 1.064083099365234 16.16221618652344 2.176533222198486 13.53196620941162 C 3.251183271408081 10.99121570587158 4.789732933044434 8.70926570892334 6.749483108520508 6.749516010284424 C 8.709182739257812 4.789815902709961 10.99113273620605 3.25126576423645 13.53183269500732 2.176615715026855 C 16.16208267211914 1.064115762710571 18.95633316040039 0.5000157952308655 21.83703231811523 0.5000157952308655 L 383.140869140625 0.5000157952308655 C 386.0215759277344 0.5000157952308655 388.8158874511719 1.064115762710571 391.4460754394531 2.176615715026855 C 393.9868469238281 3.25126576423645 396.2687683105469 4.789815902709961 398.2284851074219 6.749516010284424 C 400.188232421875 8.70926570892334 401.7267761230469 10.99121570587158 402.8014221191406 13.53196620941162 C 403.9138793945312 16.16221618652344 404.4779968261719 18.95651626586914 404.4779968261719 21.83721542358398 L 404.4779968261719 136.9789123535156 C 404.4779968261719 139.8596649169922 403.9138793945312 142.6539611816406 402.8014221191406 145.2841644287109 C 401.7267761230469 147.8249664306641 400.188232421875 150.1068725585938 398.2284851074219 152.0666198730469 C 396.2687683105469 154.0263671875 393.9868469238281 155.5649108886719 391.4460754394531 156.6395721435547 C 388.8611450195312 157.7328643798828 386.1179809570312 158.2965393066406 383.289794921875 158.3156127929688 Z" stroke="none"/>
        <path d="M 21.8370361328125 1.000015258789062 C 19.02359008789062 1.000015258789062 16.29489135742188 1.550811767578125 13.72662353515625 2.637115478515625 C 11.2454833984375 3.686508178710938 9.016998291015625 5.189117431640625 7.102996826171875 7.103073120117188 C 5.18902587890625 9.017059326171875 3.686492919921875 11.24555969238281 2.63702392578125 13.72676086425781 C 1.55078125 16.29501342773438 0.999969482421875 19.02377319335938 0.999969482421875 21.83721923828125 L 0.999969482421875 136.9789123535156 C 0.999969482421875 139.7923583984375 1.55078125 142.5211181640625 2.63702392578125 145.0893707275391 C 3.686492919921875 147.5705718994141 5.18902587890625 149.799072265625 7.102996826171875 151.7130584716797 C 9.016998291015625 153.6270141601562 11.2454833984375 155.1296081542969 13.72662353515625 156.1790161132812 C 16.20083618164062 157.2255401611328 18.82394409179688 157.7750549316406 21.52828979492188 157.8139038085938 L 197.4364318847656 36.23246765136719 L 197.9910888671875 35.84911346435547 L 198.5544891357422 36.21961212158203 L 383.4371643066406 157.8140716552734 C 386.1458740234375 157.7767333984375 388.7733154296875 157.2271270751953 391.2513427734375 156.1790161132812 C 393.7324829101562 155.1296081542969 395.9609985351562 153.6270141601562 397.8749389648438 151.7130584716797 C 399.7888793945312 149.799072265625 401.2914733886719 147.5705718994141 402.3409423828125 145.0893707275391 C 403.4271850585938 142.5211181640625 403.9779968261719 139.7923583984375 403.9779968261719 136.9789123535156 L 403.9779968261719 21.83721923828125 C 403.9779968261719 19.02377319335938 403.4271850585938 16.29501342773438 402.3409423828125 13.72676086425781 C 401.2914733886719 11.24555969238281 399.7888793945312 9.017059326171875 397.8749389648438 7.103073120117188 C 395.9609985351562 5.189117431640625 393.7324829101562 3.686508178710938 391.2513427734375 2.637115478515625 C 388.6830444335938 1.550811767578125 385.954345703125 1.000015258789062 383.140869140625 1.000015258789062 L 21.8370361328125 1.000015258789062 M 21.8370361328125 1.52587890625e-05 L 383.140869140625 1.52587890625e-05 C 395.201171875 1.52587890625e-05 404.9779968261719 9.776870727539062 404.9779968261719 21.83721923828125 L 404.9779968261719 136.9789123535156 C 404.9779968261719 149.0392608642578 395.201171875 158.8161163330078 383.140869140625 158.8161163330078 L 198.0049896240234 37.05511474609375 L 21.8370361328125 158.8161163330078 C 9.7767333984375 158.8161163330078 -3.0517578125e-05 149.0392608642578 -3.0517578125e-05 136.9789123535156 L -3.0517578125e-05 21.83721923828125 C -3.0517578125e-05 9.776870727539062 9.7767333984375 1.52587890625e-05 21.8370361328125 1.52587890625e-05 Z" stroke="none" fill="#ebff00"/>
      </g>
      <g transform="matrix(1, 0, 0, 1, -74.98, 0)" filter="url(#Path_33)">
        <g id="Path_33-2" data-name="Path 33" transform="translate(479.98 670.75) rotate(-180)" fill="#6f6f6f">
          <path d="M 379.7608337402344 148.1401062011719 L 25.21719360351562 148.1401062011719 C 19.19461441040039 148.1401062011719 13.71261501312256 146.3593139648438 9.363824844360352 142.9902648925781 C 7.360562324523926 141.4382629394531 5.638983249664307 139.5847473144531 4.247035980224609 137.4811096191406 C 2.887720108032227 135.4269561767578 1.878562092781067 133.1904754638672 1.247509479522705 130.8338470458984 C 0.6555094718933105 128.6228485107422 0.4131936728954315 126.3637924194336 0.5273515582084656 124.1194763183594 C 0.644509494304657 121.8163223266602 1.135772585868835 119.5736923217773 1.98756206035614 117.4538497924805 C 2.87898325920105 115.2353210449219 4.157299041748047 113.1751098632812 5.787035942077637 111.330322265625 C 7.516772747039795 109.3723754882812 9.642457008361816 107.6592712402344 12.10498332977295 106.238639831543 L 189.3767700195312 3.969269037246704 C 193.3108825683594 1.699637413024902 197.8449859619141 0.5000057816505432 202.4889831542969 0.5000057816505432 C 207.1329803466797 0.5000057816505432 211.6670837402344 1.699637413024902 215.6011962890625 3.969269037246704 L 328.9204711914062 69.34395599365234 L 392.873046875 106.238639831543 C 395.3355712890625 107.6592712402344 397.4612426757812 109.3723754882812 399.1909790039062 111.330322265625 C 400.8207092285156 113.1751098632812 402.0990295410156 115.2353210449219 402.9904479980469 117.4538497924805 C 403.8422546386719 119.5736923217773 404.33349609375 121.8163223266602 404.4506530761719 124.1194763183594 C 404.5648193359375 126.3637924194336 404.322509765625 128.6228485107422 403.7304992675781 130.8338470458984 C 403.0994567871094 133.1904754638672 402.0903015136719 135.4269561767578 400.7309875488281 137.4811096191406 C 399.3390502929688 139.5847473144531 397.6174621582031 141.4382629394531 395.6141967773438 142.9902648925781 C 391.2654113769531 146.3593139648438 385.7834167480469 148.1401062011719 379.7608337402344 148.1401062011719 Z" stroke="none"/>
          <path d="M 202.4889831542969 1 C 197.9325103759766 1 193.4847717285156 2.176528930664062 189.6266632080078 4.402374267578125 L 12.35488891601562 106.6717376708984 C 9.939239501953125 108.0652694702148 7.855621337890625 109.7440567016602 6.161773681640625 111.661376953125 C 4.56988525390625 113.4632720947266 3.321563720703125 115.4748458862305 2.451446533203125 117.640266418457 C 1.620391845703125 119.7086334228516 1.1409912109375 121.8971099853516 1.02667236328125 124.1448516845703 C 0.915130615234375 126.3370056152344 1.15191650390625 128.5440063476562 1.73046875 130.7045288085938 C 2.347503662109375 133.0089569091797 3.334503173828125 135.1961059570312 4.6639404296875 137.2052154541016 C 6.025726318359375 139.2631683349609 7.709991455078125 141.0765380859375 9.66998291015625 142.5949554443359 C 13.93035888671875 145.8955383300781 19.30645751953125 147.6401062011719 25.21719360351562 147.6401062011719 L 379.7607727050781 147.6401062011719 C 385.6715087890625 147.6401062011719 391.047607421875 145.8955383300781 395.3079223632812 142.5949554443359 C 397.2679443359375 141.0765380859375 398.9522399902344 139.2631683349609 400.3139953613281 137.2052154541016 C 401.6434631347656 135.1960601806641 402.6304016113281 133.0089569091797 403.2474975585938 130.7044830322266 C 403.8260498046875 128.5439453125 404.0628356933594 126.3370056152344 403.9512939453125 124.1448516845703 C 403.8369750976562 121.8971099853516 403.3576049804688 119.7086334228516 402.5265197753906 117.640266418457 C 401.6564025878906 115.4748458862305 400.4080810546875 113.4632720947266 398.8162536621094 111.661376953125 C 397.1224060058594 109.7440567016602 395.0387573242188 108.0652694702148 392.6231384277344 106.6717376708984 L 328.6705627441406 69.77706146240234 L 215.3513031005859 4.402374267578125 C 211.4931945800781 2.176528930664062 207.0454559326172 1 202.4889831542969 1 M 202.4889831542969 0 C 207.1268463134766 0 211.7647247314453 1.1787109375 215.8510284423828 3.536163330078125 L 329.1702880859375 68.91085052490234 L 393.1228637695312 105.8055267333984 C 414.5452880859375 118.1642684936523 405.0384521484375 148.6401062011719 379.7607727050781 148.6401062011719 L 25.21719360351562 148.6401062011719 C -0.060546875 148.6401062011719 -9.56732177734375 118.1642684936523 11.85513305664062 105.8055267333984 L 189.1269378662109 3.536163330078125 C 193.2132415771484 1.1787109375 197.8511199951172 0 202.4889831542969 0 Z" stroke="none" fill="#ebff00"/>
        </g>
      </g>
      <g id="Path_28" data-name="Path 28" transform="translate(265.022 572.225) rotate(-90)" fill="#404040">
        <path d="M 329.4447326660156 139.4961090087891 L 21.87605094909668 139.4961090087891 C 16.83491516113281 139.4961090087891 12.21436977386475 137.9206085205078 8.514006614685059 134.9398803710938 C 6.80286979675293 133.5615539550781 5.314688205718994 131.9088287353516 4.090778827667236 130.0275573730469 C 2.896324396133423 128.1915130615234 1.980415344238281 126.1807861328125 1.368551731109619 124.0512008666992 C 0.7566425800323486 121.9216079711914 0.4655517041683197 119.731330871582 0.5032334923744202 117.5412902832031 C 0.5418698787689209 115.2973327636719 0.9257789850234985 113.1066970825195 1.644279003143311 111.0303344726562 C 3.198051691055298 106.5400161743164 6.277551651000977 102.7521514892578 10.54982471466064 100.0762405395508 L 164.3340911865234 3.754242897033691 C 167.7330932617188 1.625288486480713 171.6496429443359 0.5000157356262207 175.6603698730469 0.5000157356262207 C 179.6710510253906 0.5000157356262207 183.587646484375 1.625288486480713 186.9866485595703 3.754242897033691 L 285.291748046875 65.3271484375 L 340.7709045410156 100.0762405395508 C 345.0431823730469 102.7521514892578 348.1226806640625 106.5400161743164 349.6764526367188 111.0303344726562 C 350.3949584960938 113.1066970825195 350.7788696289062 115.2973327636719 350.8175048828125 117.5412902832031 C 350.855224609375 119.731330871582 350.5640869140625 121.9216079711914 349.9521789550781 124.0512008666992 C 349.34033203125 126.1807861328125 348.4244079589844 128.1915588378906 347.2299499511719 130.0276031494141 C 346.0060424804688 131.9088287353516 344.5178833007812 133.5615539550781 342.8067932128906 134.9398803710938 C 339.1063842773438 137.9206085205078 334.4858703613281 139.4961090087891 329.4447326660156 139.4961090087891 Z" stroke="none"/>
        <path d="M 175.6603698730469 1.000015258789062 C 171.7435913085938 1.000015258789062 167.9188232421875 2.098922729492188 164.5995025634766 4.178009033203125 L 10.815185546875 100.5000152587891 C 6.64068603515625 103.1146545410156 3.6328125 106.8125152587891 2.116790771484375 111.1938323974609 C 1.415557861328125 113.2202911376953 1.040863037109375 115.3587417602539 1.003143310546875 117.5498809814453 C 0.966278076171875 119.6903381347656 1.25091552734375 121.8311996459961 1.849090576171875 123.9131088256836 C 2.447235107421875 125.9950180053711 3.34246826171875 127.9604721069336 4.509918212890625 129.7549285888672 C 5.7049560546875 131.5918731689453 7.157684326171875 133.2053375244141 8.82763671875 134.5505218505859 C 12.43820190429688 137.4588317871094 16.95028686523438 138.9961090087891 21.87603759765625 138.9961090087891 L 329.4447326660156 138.9961090087891 C 334.3705139160156 138.9961090087891 338.8825378417969 137.4588317871094 342.4931030273438 134.5505218505859 C 344.1630859375 133.2053375244141 345.6157836914062 131.5918731689453 346.8108215332031 129.7549285888672 C 347.9782409667969 127.9604721069336 348.8734741210938 125.9950180053711 349.4716491699219 123.9131088256836 C 350.06982421875 121.8312454223633 350.3544006347656 119.6903381347656 350.3175964355469 117.5498809814453 C 350.2798767089844 115.3587875366211 349.9051818847656 113.2202911376953 349.2039489746094 111.1938323974609 C 347.6878662109375 106.8125610351562 344.6799926757812 103.1147003173828 340.5054931640625 100.5000152587891 L 285.0263061523438 65.75092315673828 L 186.7212371826172 4.178009033203125 C 183.4018707275391 2.098922729492188 179.5771026611328 1.000015258789062 175.6603698730469 1.000015258789062 M 175.6603546142578 0 C 179.6837310791016 0 183.7071228027344 1.11016845703125 187.2520446777344 3.330520629882812 L 285.55712890625 64.90342712402344 L 341.0363159179688 99.65251159667969 C 359.6204223632812 111.2925567626953 351.3732299804688 139.9961090087891 329.4447326660156 139.9961090087891 L 21.87603759765625 139.9961090087891 C -0.052490234375 139.9961090087891 -8.2996826171875 111.2925567626953 10.28436279296875 99.65251159667969 L 164.0686950683594 3.330520629882812 C 167.6136016845703 1.11016845703125 171.6369781494141 0 175.6603546142578 0 Z" stroke="none" fill="#6f6f6f"/>
      </g>
      <g transform="matrix(1, 0, 0, 1, -74.98, 0)" filter="url(#Path_26)">
        <g id="Path_26-2" data-name="Path 26" transform="translate(605.02 670.49) rotate(-90)" fill="#b2b200">
          <path d="M 329.4447326660156 139.4961090087891 L 21.87605094909668 139.4961090087891 C 16.83491516113281 139.4961090087891 12.21436977386475 137.9206085205078 8.514006614685059 134.9398803710938 C 6.80286979675293 133.5615539550781 5.314688205718994 131.9088287353516 4.090778827667236 130.0275573730469 C 2.896324396133423 128.1915130615234 1.980415344238281 126.1807861328125 1.368551731109619 124.0512008666992 C 0.7566425800323486 121.9216079711914 0.4655517041683197 119.731330871582 0.5032334923744202 117.5412902832031 C 0.5418698787689209 115.2973327636719 0.9257789850234985 113.1066970825195 1.644279003143311 111.0303344726562 C 3.198051691055298 106.5400161743164 6.277551651000977 102.7521514892578 10.54982471466064 100.0762405395508 L 164.3340911865234 3.754242897033691 C 167.7330932617188 1.625288486480713 171.6496429443359 0.5000157356262207 175.6603698730469 0.5000157356262207 C 179.6710510253906 0.5000157356262207 183.587646484375 1.625288486480713 186.9866485595703 3.754242897033691 L 285.291748046875 65.3271484375 L 340.7709045410156 100.0762405395508 C 345.0431823730469 102.7521514892578 348.1226806640625 106.5400161743164 349.6764526367188 111.0303344726562 C 350.3949584960938 113.1066970825195 350.7788696289062 115.2973327636719 350.8175048828125 117.5412902832031 C 350.855224609375 119.731330871582 350.5640869140625 121.9216079711914 349.9521789550781 124.0512008666992 C 349.34033203125 126.1807861328125 348.4244079589844 128.1915588378906 347.2299499511719 130.0276031494141 C 346.0060424804688 131.9088287353516 344.5178833007812 133.5615539550781 342.8067932128906 134.9398803710938 C 339.1063842773438 137.9206085205078 334.4858703613281 139.4961090087891 329.4447326660156 139.4961090087891 Z" stroke="none"/>
          <path d="M 175.6603698730469 1.000015258789062 C 171.7435913085938 1.000015258789062 167.9188232421875 2.098922729492188 164.5995025634766 4.178009033203125 L 10.815185546875 100.5000152587891 C 6.64068603515625 103.1146545410156 3.6328125 106.8125152587891 2.116790771484375 111.1938323974609 C 1.415557861328125 113.2202911376953 1.040863037109375 115.3587417602539 1.003143310546875 117.5498809814453 C 0.966278076171875 119.6903381347656 1.25091552734375 121.8311996459961 1.849090576171875 123.9131088256836 C 2.447235107421875 125.9950180053711 3.34246826171875 127.9604721069336 4.509918212890625 129.7549285888672 C 5.7049560546875 131.5918731689453 7.157684326171875 133.2053375244141 8.82763671875 134.5505218505859 C 12.43820190429688 137.4588317871094 16.95028686523438 138.9961090087891 21.87603759765625 138.9961090087891 L 329.4447326660156 138.9961090087891 C 334.3705139160156 138.9961090087891 338.8825378417969 137.4588317871094 342.4931030273438 134.5505218505859 C 344.1630859375 133.2053375244141 345.6157836914062 131.5918731689453 346.8108215332031 129.7549285888672 C 347.9782409667969 127.9604721069336 348.8734741210938 125.9950180053711 349.4716491699219 123.9131088256836 C 350.06982421875 121.8312454223633 350.3544006347656 119.6903381347656 350.3175964355469 117.5498809814453 C 350.2798767089844 115.3587875366211 349.9051818847656 113.2202911376953 349.2039489746094 111.1938323974609 C 347.6878662109375 106.8125610351562 344.6799926757812 103.1147003173828 340.5054931640625 100.5000152587891 L 285.0263061523438 65.75092315673828 L 186.7212371826172 4.178009033203125 C 183.4018707275391 2.098922729492188 179.5771026611328 1.000015258789062 175.6603698730469 1.000015258789062 M 175.6603546142578 0 C 179.6837310791016 0 183.7071228027344 1.11016845703125 187.2520446777344 3.330520629882812 L 285.55712890625 64.90342712402344 L 341.0363159179688 99.65251159667969 C 359.6204223632812 111.2925567626953 351.3732299804688 139.9961090087891 329.4447326660156 139.9961090087891 L 21.87603759765625 139.9961090087891 C -0.052490234375 139.9961090087891 -8.2996826171875 111.2925567626953 10.28436279296875 99.65251159667969 L 164.0686950683594 3.330520629882812 C 167.6136016845703 1.11016845703125 171.6369781494141 0 175.6603546142578 0 Z" stroke="none" fill="#6f6f6f"/>
        </g>
      </g>
      <g id="Path_29" data-name="Path 29" transform="translate(670.041 203.037) rotate(90)" fill="#6f6f6f">
        <path d="M 329.4447326660156 139.4961090087891 L 21.87605094909668 139.4961090087891 C 16.83491516113281 139.4961090087891 12.21436977386475 137.9206085205078 8.514006614685059 134.9398803710938 C 6.80286979675293 133.5615539550781 5.314688205718994 131.9088287353516 4.090778827667236 130.0275573730469 C 2.896324396133423 128.1915130615234 1.980415344238281 126.1807861328125 1.368551731109619 124.0512008666992 C 0.7566425800323486 121.9216079711914 0.4655517041683197 119.731330871582 0.5032334923744202 117.5412902832031 C 0.5418698787689209 115.2973327636719 0.9257789850234985 113.1066970825195 1.644279003143311 111.0303344726562 C 3.198051691055298 106.5400161743164 6.277551651000977 102.7521514892578 10.54982471466064 100.0762405395508 L 164.3340911865234 3.754242897033691 C 167.7330932617188 1.625288486480713 171.6496429443359 0.5000157356262207 175.6603698730469 0.5000157356262207 C 179.6710510253906 0.5000157356262207 183.587646484375 1.625288486480713 186.9866485595703 3.754242897033691 L 285.291748046875 65.3271484375 L 340.7709045410156 100.0762405395508 C 345.0431823730469 102.7521514892578 348.1226806640625 106.5400161743164 349.6764526367188 111.0303344726562 C 350.3949584960938 113.1066970825195 350.7788696289062 115.2973327636719 350.8175048828125 117.5412902832031 C 350.855224609375 119.731330871582 350.5640869140625 121.9216079711914 349.9521789550781 124.0512008666992 C 349.34033203125 126.1807861328125 348.4244079589844 128.1915588378906 347.2299499511719 130.0276031494141 C 346.0060424804688 131.9088287353516 344.5178833007812 133.5615539550781 342.8067932128906 134.9398803710938 C 339.1063842773438 137.9206085205078 334.4858703613281 139.4961090087891 329.4447326660156 139.4961090087891 Z" stroke="none"/>
        <path d="M 175.6603698730469 1.000015258789062 C 171.7435913085938 1.000015258789062 167.9188232421875 2.098922729492188 164.5995025634766 4.178009033203125 L 10.815185546875 100.5000152587891 C 6.64068603515625 103.1146545410156 3.6328125 106.8125152587891 2.116790771484375 111.1938323974609 C 1.415557861328125 113.2202911376953 1.040863037109375 115.3587417602539 1.003143310546875 117.5498809814453 C 0.966278076171875 119.6903381347656 1.25091552734375 121.8311996459961 1.849090576171875 123.9131088256836 C 2.447235107421875 125.9950180053711 3.34246826171875 127.9604721069336 4.509918212890625 129.7549285888672 C 5.7049560546875 131.5918731689453 7.157684326171875 133.2053375244141 8.82763671875 134.5505218505859 C 12.43820190429688 137.4588317871094 16.95028686523438 138.9961090087891 21.87603759765625 138.9961090087891 L 329.4447326660156 138.9961090087891 C 334.3705139160156 138.9961090087891 338.8825378417969 137.4588317871094 342.4931030273438 134.5505218505859 C 344.1630859375 133.2053375244141 345.6157836914062 131.5918731689453 346.8108215332031 129.7549285888672 C 347.9782409667969 127.9604721069336 348.8734741210938 125.9950180053711 349.4716491699219 123.9131088256836 C 350.06982421875 121.8312454223633 350.3544006347656 119.6903381347656 350.3175964355469 117.5498809814453 C 350.2798767089844 115.3587875366211 349.9051818847656 113.2202911376953 349.2039489746094 111.1938323974609 C 347.6878662109375 106.8125610351562 344.6799926757812 103.1147003173828 340.5054931640625 100.5000152587891 L 285.0263061523438 65.75092315673828 L 186.7212371826172 4.178009033203125 C 183.4018707275391 2.098922729492188 179.5771026611328 1.000015258789062 175.6603698730469 1.000015258789062 M 175.6603546142578 0 C 179.6837310791016 0 183.7071228027344 1.11016845703125 187.2520446777344 3.330520629882812 L 285.55712890625 64.90342712402344 L 341.0363159179688 99.65251159667969 C 359.6204223632812 111.2925567626953 351.3732299804688 139.9961090087891 329.4447326660156 139.9961090087891 L 21.87603759765625 139.9961090087891 C -0.052490234375 139.9961090087891 -8.2996826171875 111.2925567626953 10.28436279296875 99.65251159667969 L 164.0686950683594 3.330520629882812 C 167.6136016845703 1.11016845703125 171.6369781494141 0 175.6603546142578 0 Z" stroke="none" fill="#6f6f6f"/>
      </g>
      <g transform="matrix(1, 0, 0, 1, -74.98, 0)" filter="url(#Path_21)">
        <g id="Path_21-2" data-name="Path 21" transform="translate(340.02 102.28)" fill="url(#linear-gradient-2)">
          <path d="M 383.2828063964844 254.8626251220703 L 200.1251831054688 140.6649322509766 L 199.8567352294922 140.4975738525391 L 199.5905303955078 140.6684722900391 L 21.69163131713867 254.8625793457031 C 9.993420600891113 254.7344360351562 0.499983161687851 239.2570648193359 0.499983161687851 220.2508850097656 L 0.499983161687851 35.11248016357422 C 0.499983161687851 16.02712821960449 10.07173347473145 0.5000287890434265 21.83703231811523 0.5000287890434265 L 383.140869140625 0.5000287890434265 C 394.9061889648438 0.5000287890434265 404.4779968261719 16.02712821960449 404.4779968261719 35.11248016357422 L 404.4779968261719 220.2508850097656 C 404.4779968261719 239.2593994140625 394.9830017089844 254.7382202148438 383.2828063964844 254.8626251220703 Z" stroke="none"/>
          <path d="M 21.8370361328125 0.9999847412109375 C 19.09329223632812 0.9999847412109375 16.42266845703125 1.870071411132812 13.89944458007812 3.586181640625 C 11.41522216796875 5.275680541992188 9.1763916015625 7.706878662109375 7.245086669921875 10.81233215332031 C 5.292388916015625 13.95207214355469 3.757537841796875 17.61503601074219 2.683135986328125 21.69947814941406 C 1.5662841796875 25.94537353515625 0.999969482421875 30.4581298828125 0.999969482421875 35.11247253417969 L 0.999969482421875 220.2508850097656 C 0.999969482421875 224.9052276611328 1.5662841796875 229.4179840087891 2.683135986328125 233.6638336181641 C 3.757537841796875 237.7483215332031 5.292388916015625 241.4112854003906 7.245086669921875 244.551025390625 C 9.1763916015625 247.6564331054688 11.41522216796875 250.0876312255859 13.89944458007812 251.7771301269531 C 16.33413696289062 253.4329986572266 18.90625 254.3012237548828 21.54867553710938 254.3601226806641 L 199.3204345703125 140.2476806640625 L 199.8528289794922 139.9059295654297 L 200.3897399902344 140.2406768798828 L 383.4221801757812 254.3602752685547 C 386.0672302246094 254.3028564453125 388.6414794921875 253.4345703125 391.0784912109375 251.7771301269531 C 393.562744140625 250.0876312255859 395.8015747070312 247.6564331054688 397.7328796386719 244.551025390625 C 399.685546875 241.4112854003906 401.2203979492188 237.7482757568359 402.2948303222656 233.6638336181641 C 403.4116821289062 229.4179840087891 403.9779968261719 224.9052276611328 403.9779968261719 220.2508850097656 L 403.9779968261719 35.11247253417969 C 403.9779968261719 30.4581298828125 403.4116821289062 25.94537353515625 402.2948303222656 21.69947814941406 C 401.2203979492188 17.61503601074219 399.685546875 13.95207214355469 397.7328796386719 10.81233215332031 C 395.8015747070312 7.706878662109375 393.562744140625 5.275680541992188 391.0784912109375 3.586181640625 C 388.5552368164062 1.870071411132812 385.8846435546875 0.9999847412109375 383.140869140625 0.9999847412109375 L 21.8370361328125 0.9999847412109375 M 21.8370361328125 -1.52587890625e-05 L 383.140869140625 -1.52587890625e-05 C 395.201171875 -1.52587890625e-05 404.9779968261719 15.72038269042969 404.9779968261719 35.11247253417969 L 404.9779968261719 220.2508850097656 C 404.9779968261719 239.6429748535156 395.201171875 255.3633270263672 383.140869140625 255.3633270263672 L 199.8606262207031 141.0892333984375 L 21.8370361328125 255.3633270263672 C 9.7767333984375 255.3633270263672 -3.0517578125e-05 239.6429748535156 -3.0517578125e-05 220.2508850097656 L -3.0517578125e-05 35.11247253417969 C -3.0517578125e-05 15.72038269042969 9.7767333984375 -1.52587890625e-05 21.8370361328125 -1.52587890625e-05 Z" stroke="none" fill="#6f6f6f"/>
        </g>
      </g>
      <g id="Path_24" data-name="Path 24" transform="translate(530.045 454.105) rotate(-90)" fill="#ebff00">
        <path d="M 329.4447326660156 139.4961090087891 L 21.87605094909668 139.4961090087891 C 16.83491516113281 139.4961090087891 12.21436977386475 137.9206085205078 8.514006614685059 134.9398803710938 C 6.80286979675293 133.5615539550781 5.314688205718994 131.9088287353516 4.090778827667236 130.0275573730469 C 2.896324396133423 128.1915130615234 1.980415344238281 126.1807861328125 1.368551731109619 124.0512008666992 C 0.7566425800323486 121.9216079711914 0.4655517041683197 119.731330871582 0.5032334923744202 117.5412902832031 C 0.5418698787689209 115.2973327636719 0.9257789850234985 113.1066970825195 1.644279003143311 111.0303344726562 C 3.198051691055298 106.5400161743164 6.277551651000977 102.7521514892578 10.54982471466064 100.0762405395508 L 164.3340911865234 3.754242897033691 C 167.7330932617188 1.625288486480713 171.6496429443359 0.5000157356262207 175.6603698730469 0.5000157356262207 C 179.6710510253906 0.5000157356262207 183.587646484375 1.625288486480713 186.9866485595703 3.754242897033691 L 285.291748046875 65.3271484375 L 340.7709045410156 100.0762405395508 C 345.0431823730469 102.7521514892578 348.1226806640625 106.5400161743164 349.6764526367188 111.0303344726562 C 350.3949584960938 113.1066970825195 350.7788696289062 115.2973327636719 350.8175048828125 117.5412902832031 C 350.855224609375 119.731330871582 350.5640869140625 121.9216079711914 349.9521789550781 124.0512008666992 C 349.34033203125 126.1807861328125 348.4244079589844 128.1915588378906 347.2299499511719 130.0276031494141 C 346.0060424804688 131.9088287353516 344.5178833007812 133.5615539550781 342.8067932128906 134.9398803710938 C 339.1063842773438 137.9206085205078 334.4858703613281 139.4961090087891 329.4447326660156 139.4961090087891 Z" stroke="none"/>
        <path d="M 175.6603698730469 1.000015258789062 C 171.7435913085938 1.000015258789062 167.9188232421875 2.098922729492188 164.5995025634766 4.178009033203125 L 10.815185546875 100.5000152587891 C 6.64068603515625 103.1146545410156 3.6328125 106.8125152587891 2.116790771484375 111.1938323974609 C 1.415557861328125 113.2202911376953 1.040863037109375 115.3587417602539 1.003143310546875 117.5498809814453 C 0.966278076171875 119.6903381347656 1.25091552734375 121.8311996459961 1.849090576171875 123.9131088256836 C 2.447235107421875 125.9950180053711 3.34246826171875 127.9604721069336 4.509918212890625 129.7549285888672 C 5.7049560546875 131.5918731689453 7.157684326171875 133.2053375244141 8.82763671875 134.5505218505859 C 12.43820190429688 137.4588317871094 16.95028686523438 138.9961090087891 21.87603759765625 138.9961090087891 L 329.4447326660156 138.9961090087891 C 334.3705139160156 138.9961090087891 338.8825378417969 137.4588317871094 342.4931030273438 134.5505218505859 C 344.1630859375 133.2053375244141 345.6157836914062 131.5918731689453 346.8108215332031 129.7549285888672 C 347.9782409667969 127.9604721069336 348.8734741210938 125.9950180053711 349.4716491699219 123.9131088256836 C 350.06982421875 121.8312454223633 350.3544006347656 119.6903381347656 350.3175964355469 117.5498809814453 C 350.2798767089844 115.3587875366211 349.9051818847656 113.2202911376953 349.2039489746094 111.1938323974609 C 347.6878662109375 106.8125610351562 344.6799926757812 103.1147003173828 340.5054931640625 100.5000152587891 L 285.0263061523438 65.75092315673828 L 186.7212371826172 4.178009033203125 C 183.4018707275391 2.098922729492188 179.5771026611328 1.000015258789062 175.6603698730469 1.000015258789062 M 175.6603546142578 0 C 179.6837310791016 0 183.7071228027344 1.11016845703125 187.2520446777344 3.330520629882812 L 285.55712890625 64.90342712402344 L 341.0363159179688 99.65251159667969 C 359.6204223632812 111.2925567626953 351.3732299804688 139.9961090087891 329.4447326660156 139.9961090087891 L 21.87603759765625 139.9961090087891 C -0.052490234375 139.9961090087891 -8.2996826171875 111.2925567626953 10.28436279296875 99.65251159667969 L 164.0686950683594 3.330520629882812 C 167.6136016845703 1.11016845703125 171.6369781494141 0 175.6603546142578 0 Z" stroke="none" fill="#6f6f6f"/>
      </g>
      <g id="Path_22" data-name="Path 22" transform="translate(405.018 102.784) rotate(90)" fill="#ebff00">
        <path d="M 329.4447326660156 139.4961090087891 L 21.87605094909668 139.4961090087891 C 16.83491516113281 139.4961090087891 12.21436977386475 137.9206085205078 8.514006614685059 134.9398803710938 C 6.80286979675293 133.5615539550781 5.314688205718994 131.9088287353516 4.090778827667236 130.0275573730469 C 2.896324396133423 128.1915130615234 1.980415344238281 126.1807861328125 1.368551731109619 124.0512008666992 C 0.7566425800323486 121.9216079711914 0.4655517041683197 119.731330871582 0.5032334923744202 117.5412902832031 C 0.5418698787689209 115.2973327636719 0.9257789850234985 113.1066970825195 1.644279003143311 111.0303344726562 C 3.198051691055298 106.5400161743164 6.277551651000977 102.7521514892578 10.54982471466064 100.0762405395508 L 164.3340911865234 3.754242897033691 C 167.7330932617188 1.625288486480713 171.6496429443359 0.5000157356262207 175.6603698730469 0.5000157356262207 C 179.6710510253906 0.5000157356262207 183.587646484375 1.625288486480713 186.9866485595703 3.754242897033691 L 285.291748046875 65.3271484375 L 340.7709045410156 100.0762405395508 C 345.0431823730469 102.7521514892578 348.1226806640625 106.5400161743164 349.6764526367188 111.0303344726562 C 350.3949584960938 113.1066970825195 350.7788696289062 115.2973327636719 350.8175048828125 117.5412902832031 C 350.855224609375 119.731330871582 350.5640869140625 121.9216079711914 349.9521789550781 124.0512008666992 C 349.34033203125 126.1807861328125 348.4244079589844 128.1915588378906 347.2299499511719 130.0276031494141 C 346.0060424804688 131.9088287353516 344.5178833007812 133.5615539550781 342.8067932128906 134.9398803710938 C 339.1063842773438 137.9206085205078 334.4858703613281 139.4961090087891 329.4447326660156 139.4961090087891 Z" stroke="none"/>
        <path d="M 175.6603698730469 1.000015258789062 C 171.7435913085938 1.000015258789062 167.9188232421875 2.098922729492188 164.5995025634766 4.178009033203125 L 10.815185546875 100.5000152587891 C 6.64068603515625 103.1146545410156 3.6328125 106.8125152587891 2.116790771484375 111.1938323974609 C 1.415557861328125 113.2202911376953 1.040863037109375 115.3587417602539 1.003143310546875 117.5498809814453 C 0.966278076171875 119.6903381347656 1.25091552734375 121.8311996459961 1.849090576171875 123.9131088256836 C 2.447235107421875 125.9950180053711 3.34246826171875 127.9604721069336 4.509918212890625 129.7549285888672 C 5.7049560546875 131.5918731689453 7.157684326171875 133.2053375244141 8.82763671875 134.5505218505859 C 12.43820190429688 137.4588317871094 16.95028686523438 138.9961090087891 21.87603759765625 138.9961090087891 L 329.4447326660156 138.9961090087891 C 334.3705139160156 138.9961090087891 338.8825378417969 137.4588317871094 342.4931030273438 134.5505218505859 C 344.1630859375 133.2053375244141 345.6157836914062 131.5918731689453 346.8108215332031 129.7549285888672 C 347.9782409667969 127.9604721069336 348.8734741210938 125.9950180053711 349.4716491699219 123.9131088256836 C 350.06982421875 121.8312454223633 350.3544006347656 119.6903381347656 350.3175964355469 117.5498809814453 C 350.2798767089844 115.3587875366211 349.9051818847656 113.2202911376953 349.2039489746094 111.1938323974609 C 347.6878662109375 106.8125610351562 344.6799926757812 103.1147003173828 340.5054931640625 100.5000152587891 L 285.0263061523438 65.75092315673828 L 186.7212371826172 4.178009033203125 C 183.4018707275391 2.098922729492188 179.5771026611328 1.000015258789062 175.6603698730469 1.000015258789062 M 175.6603546142578 0 C 179.6837310791016 0 183.7071228027344 1.11016845703125 187.2520446777344 3.330520629882812 L 285.55712890625 64.90342712402344 L 341.0363159179688 99.65251159667969 C 359.6204223632812 111.2925567626953 351.3732299804688 139.9961090087891 329.4447326660156 139.9961090087891 L 21.87603759765625 139.9961090087891 C -0.052490234375 139.9961090087891 -8.2996826171875 111.2925567626953 10.28436279296875 99.65251159667969 L 164.0686950683594 3.330520629882812 C 167.6136016845703 1.11016845703125 171.6369781494141 0 175.6603546142578 0 Z" stroke="none" fill="#6f6f6f"/>
      </g>
      <g id="Path_27" data-name="Path 27" transform="translate(210.512 -3.959)" fill="#ebff00">
        <path d="M 434.2910766601562 152.0993041992188 L 79.7474365234375 152.0993041992188 C 73.72486114501953 152.0993041992188 68.24280548095703 150.3185119628906 63.89401626586914 146.949462890625 C 61.89075088500977 145.3974609375 60.16922760009766 143.5439453125 58.77722549438477 141.4403076171875 C 57.41796112060547 139.3861541748047 56.40875244140625 137.1496734619141 55.77775192260742 134.7930450439453 C 55.18569946289062 132.5820465087891 54.94338226318359 130.322998046875 55.05754089355469 128.0786743164062 C 55.17469787597656 125.775520324707 55.666015625 123.5328903198242 56.51775360107422 121.4130477905273 C 57.40917205810547 119.1945190429688 58.68754196166992 117.1342544555664 60.31727981567383 115.2894668579102 C 62.04701614379883 113.3315200805664 64.17269897460938 111.6184158325195 66.63522338867188 110.1977844238281 L 243.9069671630859 7.928466796875 C 247.841064453125 5.658835411071777 252.3752288818359 4.459203720092773 257.0192260742188 4.459203720092773 C 261.6631774902344 4.459203720092773 266.1973266601562 5.658835411071777 270.1314392089844 7.928466796875 L 383.4507141113281 73.30315399169922 L 447.4032287597656 110.1977844238281 C 449.8657531738281 111.6184158325195 451.9914245605469 113.3315200805664 453.7211608886719 115.2894668579102 C 455.3509216308594 117.1342544555664 456.6292724609375 119.1945190429688 457.5206909179688 121.4130477905273 C 458.3724365234375 123.5328903198242 458.8637390136719 125.775520324707 458.9808959960938 128.0786743164062 C 459.0950622558594 130.322998046875 458.8527526855469 132.5820465087891 458.2607116699219 134.7930450439453 C 457.629638671875 137.1496734619141 456.6204833984375 139.3861541748047 455.26123046875 141.4403076171875 C 453.8692321777344 143.5439453125 452.147705078125 145.3974609375 450.1444396972656 146.949462890625 C 445.795654296875 150.3185119628906 440.3136596679688 152.0993041992188 434.2910766601562 152.0993041992188 Z" stroke="none"/>
        <path d="M 257.0191650390625 4.959197998046875 C 252.4627075195312 4.959197998046875 248.0149536132812 6.135726928710938 244.1568603515625 8.361572265625 L 66.8851318359375 110.6308898925781 C 64.469482421875 112.0244674682617 62.3858642578125 113.7032012939453 60.6920166015625 115.6205139160156 C 59.10012817382812 117.4224090576172 57.851806640625 119.4340515136719 56.981689453125 121.5994720458984 C 56.15060424804688 123.6678314208984 55.67123413085938 125.8563079833984 55.55691528320312 128.1040496826172 C 55.44537353515625 130.2962036132812 55.68215942382812 132.5032043457031 56.26071166992188 134.6637268066406 C 56.8778076171875 136.9682006835938 57.86474609375 139.1553039550781 59.19418334960938 141.1644134521484 C 60.55596923828125 143.2223663330078 62.240234375 145.0357360839844 64.20022583007812 146.55419921875 C 68.46054077148438 149.854736328125 73.83670043945312 151.5993041992188 79.74737548828125 151.5993041992188 L 434.291015625 151.5993041992188 C 440.2017517089844 151.5993041992188 445.5778503417969 149.854736328125 449.8381652832031 146.55419921875 C 451.7981567382812 145.0357360839844 453.4824829101562 143.2223663330078 454.84423828125 141.1644134521484 C 456.1737060546875 139.1553039550781 457.16064453125 136.9681549072266 457.7777099609375 134.6637268066406 C 458.3562316894531 132.5032043457031 458.593017578125 130.2962036132812 458.4815368652344 128.1040496826172 C 458.3671875 125.8563079833984 457.8878173828125 123.6678314208984 457.0567626953125 121.5994720458984 C 456.1866455078125 119.4340515136719 454.9383239746094 117.4224090576172 453.346435546875 115.6205139160156 C 451.652587890625 113.7032012939453 449.5689697265625 112.0244674682617 447.1533203125 110.6308898925781 L 383.2008056640625 73.73625946044922 L 269.8815307617188 8.361572265625 C 266.0233764648438 6.135726928710938 261.5756530761719 4.959197998046875 257.0191650390625 4.959197998046875 M 257.0191955566406 3.959197998046875 C 261.6570739746094 3.959197998046875 266.294921875 5.137908935546875 270.3812866210938 7.495361328125 L 383.7005615234375 72.87004852294922 L 447.653076171875 109.7646789550781 C 469.0755310058594 122.1234664916992 459.5686950683594 152.5993041992188 434.291015625 152.5993041992188 L 79.74737548828125 152.5993041992188 C 54.46969604492188 152.5993041992188 44.96292114257812 122.1234664916992 66.3853759765625 109.7646789550781 L 243.6571350097656 7.495361328125 C 247.7434692382812 5.137908935546875 252.3813171386719 3.959197998046875 257.0191955566406 3.959197998046875 Z" stroke="none" fill="#6f6f6f"/>
      </g>
      <g id="Path_35" data-name="Path 35" transform="translate(670.021 562.845) rotate(180)" fill="url(#linear-gradient)">
        <path d="M 383.289794921875 158.3156127929688 L 198.2797393798828 36.63736724853516 L 197.9980316162109 36.45211410522461 L 197.7206878662109 36.64381408691406 L 21.68185997009277 158.3155670166016 C 18.85592269897461 158.2956848144531 16.1148853302002 157.7320556640625 13.53183269500732 156.6395721435547 C 10.99113273620605 155.5649108886719 8.709182739257812 154.0263671875 6.749483108520508 152.0666198730469 C 4.789732933044434 150.1068725585938 3.251183271408081 147.8249664306641 2.176533222198486 145.2841644287109 C 1.064083099365234 142.6539611816406 0.499983161687851 139.8596649169922 0.499983161687851 136.9789123535156 L 0.499983161687851 21.83721542358398 C 0.499983161687851 18.95651626586914 1.064083099365234 16.16221618652344 2.176533222198486 13.53196620941162 C 3.251183271408081 10.99121570587158 4.789732933044434 8.70926570892334 6.749483108520508 6.749516010284424 C 8.709182739257812 4.789815902709961 10.99113273620605 3.25126576423645 13.53183269500732 2.176615715026855 C 16.16208267211914 1.064115762710571 18.95633316040039 0.5000157952308655 21.83703231811523 0.5000157952308655 L 383.140869140625 0.5000157952308655 C 386.0215759277344 0.5000157952308655 388.8158874511719 1.064115762710571 391.4460754394531 2.176615715026855 C 393.9868469238281 3.25126576423645 396.2687683105469 4.789815902709961 398.2284851074219 6.749516010284424 C 400.188232421875 8.70926570892334 401.7267761230469 10.99121570587158 402.8014221191406 13.53196620941162 C 403.9138793945312 16.16221618652344 404.4779968261719 18.95651626586914 404.4779968261719 21.83721542358398 L 404.4779968261719 136.9789123535156 C 404.4779968261719 139.8596649169922 403.9138793945312 142.6539611816406 402.8014221191406 145.2841644287109 C 401.7267761230469 147.8249664306641 400.188232421875 150.1068725585938 398.2284851074219 152.0666198730469 C 396.2687683105469 154.0263671875 393.9868469238281 155.5649108886719 391.4460754394531 156.6395721435547 C 388.8611450195312 157.7328643798828 386.1179809570312 158.2965393066406 383.289794921875 158.3156127929688 Z" stroke="none"/>
        <path d="M 21.8370361328125 1.000015258789062 C 19.02359008789062 1.000015258789062 16.29489135742188 1.550811767578125 13.72662353515625 2.637115478515625 C 11.2454833984375 3.686508178710938 9.016998291015625 5.189117431640625 7.102996826171875 7.103073120117188 C 5.18902587890625 9.017059326171875 3.686492919921875 11.24555969238281 2.63702392578125 13.72676086425781 C 1.55078125 16.29501342773438 0.999969482421875 19.02377319335938 0.999969482421875 21.83721923828125 L 0.999969482421875 136.9789123535156 C 0.999969482421875 139.7923583984375 1.55078125 142.5211181640625 2.63702392578125 145.0893707275391 C 3.686492919921875 147.5705718994141 5.18902587890625 149.799072265625 7.102996826171875 151.7130584716797 C 9.016998291015625 153.6270141601562 11.2454833984375 155.1296081542969 13.72662353515625 156.1790161132812 C 16.20083618164062 157.2255401611328 18.82394409179688 157.7750549316406 21.52828979492188 157.8139038085938 L 197.4364318847656 36.23246765136719 L 197.9910888671875 35.84911346435547 L 198.5544891357422 36.21961212158203 L 383.4371643066406 157.8140716552734 C 386.1458740234375 157.7767333984375 388.7733154296875 157.2271270751953 391.2513427734375 156.1790161132812 C 393.7324829101562 155.1296081542969 395.9609985351562 153.6270141601562 397.8749389648438 151.7130584716797 C 399.7888793945312 149.799072265625 401.2914733886719 147.5705718994141 402.3409423828125 145.0893707275391 C 403.4271850585938 142.5211181640625 403.9779968261719 139.7923583984375 403.9779968261719 136.9789123535156 L 403.9779968261719 21.83721923828125 C 403.9779968261719 19.02377319335938 403.4271850585938 16.29501342773438 402.3409423828125 13.72676086425781 C 401.2914733886719 11.24555969238281 399.7888793945312 9.017059326171875 397.8749389648438 7.103073120117188 C 395.9609985351562 5.189117431640625 393.7324829101562 3.686508178710938 391.2513427734375 2.637115478515625 C 388.6830444335938 1.550811767578125 385.954345703125 1.000015258789062 383.140869140625 1.000015258789062 L 21.8370361328125 1.000015258789062 M 21.8370361328125 1.52587890625e-05 L 383.140869140625 1.52587890625e-05 C 395.201171875 1.52587890625e-05 404.9779968261719 9.776870727539062 404.9779968261719 21.83721923828125 L 404.9779968261719 136.9789123535156 C 404.9779968261719 149.0392608642578 395.201171875 158.8161163330078 383.140869140625 158.8161163330078 L 198.0049896240234 37.05511474609375 L 21.8370361328125 158.8161163330078 C 9.7767333984375 158.8161163330078 -3.0517578125e-05 149.0392608642578 -3.0517578125e-05 136.9789123535156 L -3.0517578125e-05 21.83721923828125 C -3.0517578125e-05 9.776870727539062 9.7767333984375 1.52587890625e-05 21.8370361328125 1.52587890625e-05 Z" stroke="none" fill="#ebff00"/>
      </g>
      <g transform="matrix(1, 0, 0, 1, -74.98, 0)" filter="url(#Path_34)">
        <g id="Path_34-2" data-name="Path 34" transform="translate(745 670.75) rotate(-180)" fill="#6f6f6f">
          <path d="M 379.7608337402344 148.1401062011719 L 25.21719360351562 148.1401062011719 C 19.19461441040039 148.1401062011719 13.71261501312256 146.3593139648438 9.363824844360352 142.9902648925781 C 7.360562324523926 141.4382629394531 5.638983249664307 139.5847473144531 4.247035980224609 137.4811096191406 C 2.887720108032227 135.4269561767578 1.878562092781067 133.1904754638672 1.247509479522705 130.8338470458984 C 0.6555094718933105 128.6228485107422 0.4131936728954315 126.3637924194336 0.5273515582084656 124.1194763183594 C 0.644509494304657 121.8163223266602 1.135772585868835 119.5736923217773 1.98756206035614 117.4538497924805 C 2.87898325920105 115.2353210449219 4.157299041748047 113.1751098632812 5.787035942077637 111.330322265625 C 7.516772747039795 109.3723754882812 9.642457008361816 107.6592712402344 12.10498332977295 106.238639831543 L 189.3767700195312 3.969269037246704 C 193.3108825683594 1.699637413024902 197.8449859619141 0.5000057816505432 202.4889831542969 0.5000057816505432 C 207.1329803466797 0.5000057816505432 211.6670837402344 1.699637413024902 215.6011962890625 3.969269037246704 L 328.9204711914062 69.34395599365234 L 392.873046875 106.238639831543 C 395.3355712890625 107.6592712402344 397.4612426757812 109.3723754882812 399.1909790039062 111.330322265625 C 400.8207092285156 113.1751098632812 402.0990295410156 115.2353210449219 402.9904479980469 117.4538497924805 C 403.8422546386719 119.5736923217773 404.33349609375 121.8163223266602 404.4506530761719 124.1194763183594 C 404.5648193359375 126.3637924194336 404.322509765625 128.6228485107422 403.7304992675781 130.8338470458984 C 403.0994567871094 133.1904754638672 402.0903015136719 135.4269561767578 400.7309875488281 137.4811096191406 C 399.3390502929688 139.5847473144531 397.6174621582031 141.4382629394531 395.6141967773438 142.9902648925781 C 391.2654113769531 146.3593139648438 385.7834167480469 148.1401062011719 379.7608337402344 148.1401062011719 Z" stroke="none"/>
          <path d="M 202.4889831542969 1 C 197.9325103759766 1 193.4847717285156 2.176528930664062 189.6266632080078 4.402374267578125 L 12.35488891601562 106.6717376708984 C 9.939239501953125 108.0652694702148 7.855621337890625 109.7440567016602 6.161773681640625 111.661376953125 C 4.56988525390625 113.4632720947266 3.321563720703125 115.4748458862305 2.451446533203125 117.640266418457 C 1.620391845703125 119.7086334228516 1.1409912109375 121.8971099853516 1.02667236328125 124.1448516845703 C 0.915130615234375 126.3370056152344 1.15191650390625 128.5440063476562 1.73046875 130.7045288085938 C 2.347503662109375 133.0089569091797 3.334503173828125 135.1961059570312 4.6639404296875 137.2052154541016 C 6.025726318359375 139.2631683349609 7.709991455078125 141.0765380859375 9.66998291015625 142.5949554443359 C 13.93035888671875 145.8955383300781 19.30645751953125 147.6401062011719 25.21719360351562 147.6401062011719 L 379.7607727050781 147.6401062011719 C 385.6715087890625 147.6401062011719 391.047607421875 145.8955383300781 395.3079223632812 142.5949554443359 C 397.2679443359375 141.0765380859375 398.9522399902344 139.2631683349609 400.3139953613281 137.2052154541016 C 401.6434631347656 135.1960601806641 402.6304016113281 133.0089569091797 403.2474975585938 130.7044830322266 C 403.8260498046875 128.5439453125 404.0628356933594 126.3370056152344 403.9512939453125 124.1448516845703 C 403.8369750976562 121.8971099853516 403.3576049804688 119.7086334228516 402.5265197753906 117.640266418457 C 401.6564025878906 115.4748458862305 400.4080810546875 113.4632720947266 398.8162536621094 111.661376953125 C 397.1224060058594 109.7440567016602 395.0387573242188 108.0652694702148 392.6231384277344 106.6717376708984 L 328.6705627441406 69.77706146240234 L 215.3513031005859 4.402374267578125 C 211.4931945800781 2.176528930664062 207.0454559326172 1 202.4889831542969 1 M 202.4889831542969 0 C 207.1268463134766 0 211.7647247314453 1.1787109375 215.8510284423828 3.536163330078125 L 329.1702880859375 68.91085052490234 L 393.1228637695312 105.8055267333984 C 414.5452880859375 118.1642684936523 405.0384521484375 148.6401062011719 379.7607727050781 148.6401062011719 L 25.21719360351562 148.6401062011719 C -0.060546875 148.6401062011719 -9.56732177734375 118.1642684936523 11.85513305664062 105.8055267333984 L 189.1269378662109 3.536163330078125 C 193.2132415771484 1.1787109375 197.8511199951172 0 202.4889831542969 0 Z" stroke="none" fill="#ebff00"/>
        </g>
      </g>
    </g>
    <g id="wequee-name" transform="translate(0.02 679.041)">
      <g id="Rectangle_38" data-name="Rectangle 38" transform="translate(0 41)" fill="#6f6f6f" stroke="#ebff00" stroke-width="2">
        <rect width="46" height="94" rx="23" stroke="none"/>
        <rect x="1" y="1" width="44" height="92" rx="22" fill="none"/>
      </g>
      <g id="Rectangle_39" data-name="Rectangle 39" transform="translate(92 41)" fill="#6f6f6f" stroke="#ebff00" stroke-width="2">
        <rect width="46" height="94" rx="23" stroke="none"/>
        <rect x="1" y="1" width="44" height="92" rx="22" fill="none"/>
      </g>
      <g id="Rectangle_40" data-name="Rectangle 40" transform="translate(46 68)" fill="#6f6f6f" stroke="#ebff00" stroke-width="2">
        <rect width="45" height="67" rx="22.5" stroke="none"/>
        <rect x="1" y="1" width="43" height="65" rx="21.5" fill="none"/>
      </g>
      <g id="Rectangle_41" data-name="Rectangle 41" transform="translate(147 46)" fill="#6f6f6f" stroke="#ebff00" stroke-width="2">
        <rect width="46" height="89" rx="23" stroke="none"/>
        <rect x="1" y="1" width="44" height="87" rx="22" fill="none"/>
      </g>
      <g id="Rectangle_42" data-name="Rectangle 42" transform="translate(290 105) rotate(90)" fill="#6f6f6f" stroke="#ebff00" stroke-width="2">
        <rect width="30" height="89" rx="15" stroke="none"/>
        <rect x="1" y="1" width="28" height="87" rx="14" fill="none"/>
      </g>
      <g id="Rectangle_43" data-name="Rectangle 43" transform="translate(290 76) rotate(90)" fill="#6f6f6f" stroke="#ebff00" stroke-width="2">
        <rect width="29" height="89" rx="14.5" stroke="none"/>
        <rect x="1" y="1" width="27" height="87" rx="13.5" fill="none"/>
      </g>
      <g id="Rectangle_44" data-name="Rectangle 44" transform="translate(290 46) rotate(90)" fill="#6f6f6f" stroke="#ebff00" stroke-width="2">
        <rect width="30" height="89" rx="15" stroke="none"/>
        <rect x="1" y="1" width="28" height="87" rx="14" fill="none"/>
      </g>
      <g id="Ellipse_6" data-name="Ellipse 6" transform="translate(147)" fill="#ebff00" stroke="#6f6f6f" stroke-width="2">
        <ellipse cx="23" cy="19" rx="23" ry="19" stroke="none"/>
        <ellipse cx="23" cy="19" rx="22" ry="18" fill="none"/>
      </g>
      <g id="Rectangle_45" data-name="Rectangle 45" transform="translate(299 46)" fill="#6f6f6f" stroke="#ebff00" stroke-width="2">
        <rect width="71" height="89" rx="31" stroke="none"/>
        <rect x="1" y="1" width="69" height="87" rx="30" fill="none"/>
      </g>
      <g id="Polygon_1" data-name="Polygon 1" transform="translate(334 91)" fill="#ebff00">
        <path d="M 21.39071655273438 43.50000762939453 L 20.60927581787109 43.50000762939453 C 18.3841667175293 43.50000762939453 16.29917526245117 42.95263671875 14.41220664978027 41.87310791015625 C 12.64816665649414 40.86391830444336 11.13520622253418 39.41012954711914 10.03687572479248 37.66890716552734 C 8.938536643981934 35.92767715454102 8.278196334838867 33.93606948852539 8.127245903015137 31.90937805175781 C 7.965765953063965 29.7414379119873 8.369846343994141 27.62399864196777 9.328266143798828 25.61587715148926 L 9.718986511230469 24.79723739624023 C 10.79357624053955 22.54570770263672 12.45239639282227 20.70014762878418 14.51612663269043 19.46005821228027 C 16.4526252746582 18.29641723632812 18.69471549987793 17.68134689331055 20.99999618530273 17.68134689331055 C 23.30527687072754 17.68134689331055 25.54736709594727 18.29640769958496 27.48386573791504 19.46004867553711 C 29.5475959777832 20.70013809204102 31.20641708374023 22.54570770263672 32.281005859375 24.79721832275391 L 32.67173767089844 25.61588859558105 C 33.63015747070312 27.62399864196777 34.03423690795898 29.74142837524414 33.87275695800781 31.90936851501465 C 33.72179794311523 33.93606948852539 33.06145477294922 35.92767715454102 31.96312713623047 37.66890716552734 C 30.86478614807129 39.41012954711914 29.35182571411133 40.86391830444336 27.5877857208252 41.87311935424805 C 25.7008171081543 42.95263671875 23.61581611633301 43.50000762939453 21.39071655273438 43.50000762939453 Z" stroke="none"/>
        <path d="M 20.99999618530273 18.18134689331055 C 18.78542709350586 18.18134689331055 16.63239669799805 18.7717170715332 14.77365684509277 19.88862609863281 C 12.79426574707031 21.07803726196289 11.20242691040039 22.84987640380859 10.17022705078125 25.01260757446289 L 9.779495239257812 25.83124923706055 C 8.859066009521484 27.75976753234863 8.470924377441406 29.7922477722168 8.6258544921875 31.87222862243652 C 8.770755767822266 33.81764984130859 9.4049072265625 35.7298583984375 10.45975685119629 37.40214538574219 C 11.51460647583008 39.07442855834961 12.96719551086426 40.47039031982422 14.66048622131348 41.43911743164062 C 16.47090530395508 42.47484588623047 18.47236633300781 43.00000762939453 20.60927581787109 43.00000762939453 L 21.39071655273438 43.00000762939453 C 23.52762603759766 43.00000762939453 25.52908706665039 42.47484588623047 27.33950614929199 41.43911743164062 C 29.03278732299805 40.47039794921875 30.48537635803223 39.07444000244141 31.54022598266602 37.40214538574219 C 32.59507751464844 35.7298583984375 33.2292366027832 33.81764984130859 33.37413787841797 31.87222862243652 C 33.52905654907227 29.7922477722168 33.14091491699219 27.75976753234863 32.22048568725586 25.83124923706055 L 31.82976531982422 25.01259613037109 C 30.79755592346191 22.84987640380859 29.20571517944336 21.07803726196289 27.22633743286133 19.88862609863281 C 25.36758613586426 18.7717170715332 23.21455574035645 18.18134689331055 20.99999618530273 18.18134689331055 M 20.99999237060547 17.18134689331055 C 25.68876457214355 17.18134689331055 30.37753677368164 19.64818954467773 32.73224639892578 24.58186721801758 L 33.12296676635742 25.40051651000977 C 37.24075698852539 34.02824783325195 30.95073699951172 44.00000762939453 21.39071655273438 44.00000762939453 L 20.60927581787109 44.00000762939453 C 11.04925537109375 44 4.759235382080078 34.02825927734375 8.877017974853516 25.40051651000977 L 9.267745971679688 24.58186721801758 C 11.62245178222656 19.64818954467773 16.31122207641602 17.18134689331055 20.99999237060547 17.18134689331055 Z" stroke="none" fill="#ebff00"/>
      </g>
      <g id="Rectangle_46" data-name="Rectangle 46" transform="translate(384 46)" fill="#6f6f6f" stroke="#ebff00" stroke-width="2">
        <rect width="46" height="89" rx="23" stroke="none"/>
        <rect x="1" y="1" width="44" height="87" rx="22" fill="none"/>
      </g>
      <g id="Rectangle_47" data-name="Rectangle 47" transform="translate(429 46)" fill="#6f6f6f" stroke="#ebff00" stroke-width="2">
        <rect width="46" height="89" rx="23" stroke="none"/>
        <rect x="1" y="1" width="44" height="87" rx="22" fill="none"/>
      </g>
      <g id="Rectangle_48" data-name="Rectangle 48" transform="translate(475 105) rotate(90)" fill="#6f6f6f" stroke="#ebff00" stroke-width="2">
        <rect width="30" height="91" rx="15" stroke="none"/>
        <rect x="1" y="1" width="28" height="89" rx="14" fill="none"/>
      </g>
      <g id="Rectangle_49" data-name="Rectangle 49" transform="translate(573 105) rotate(90)" fill="#6f6f6f" stroke="#ebff00" stroke-width="2">
        <rect width="30" height="89" rx="15" stroke="none"/>
        <rect x="1" y="1" width="28" height="87" rx="14" fill="none"/>
      </g>
      <g id="Rectangle_50" data-name="Rectangle 50" transform="translate(573 76) rotate(90)" fill="#6f6f6f" stroke="#ebff00" stroke-width="2">
        <rect width="29" height="89" rx="14.5" stroke="none"/>
        <rect x="1" y="1" width="27" height="87" rx="13.5" fill="none"/>
      </g>
      <g id="Rectangle_51" data-name="Rectangle 51" transform="translate(573 46) rotate(90)" fill="#6f6f6f" stroke="#ebff00" stroke-width="2">
        <rect width="30" height="89" rx="15" stroke="none"/>
        <rect x="1" y="1" width="28" height="87" rx="14" fill="none"/>
      </g>
      <g id="Rectangle_52" data-name="Rectangle 52" transform="translate(670 105) rotate(90)" fill="#6f6f6f" stroke="#ebff00" stroke-width="2">
        <rect width="30" height="89" rx="15" stroke="none"/>
        <rect x="1" y="1" width="28" height="87" rx="14" fill="none"/>
      </g>
      <g id="Rectangle_53" data-name="Rectangle 53" transform="translate(670 76) rotate(90)" fill="#6f6f6f" stroke="#ebff00" stroke-width="2">
        <rect width="29" height="89" rx="14.5" stroke="none"/>
        <rect x="1" y="1" width="27" height="87" rx="13.5" fill="none"/>
      </g>
      <g id="Rectangle_54" data-name="Rectangle 54" transform="translate(670 46) rotate(90)" fill="#6f6f6f" stroke="#ebff00" stroke-width="2">
        <rect width="30" height="89" rx="15" stroke="none"/>
        <rect x="1" y="1" width="28" height="87" rx="14" fill="none"/>
      </g>
    </g>
  </g>
</svg>
