<svg width="189" height="42" viewBox="0 0 189 42" fill="none" xmlns="http://www.w3.org/2000/svg">
<path d="M27.384 6.2L21.888 23H17.712L14.016 11.624L10.2 23H6.048L0.528 6.2H4.56L8.352 18.008L12.312 6.2H15.912L19.752 18.104L23.664 6.2H27.384ZM34.4736 23.192C33.1136 23.192 31.8896 22.912 30.8016 22.352C29.7296 21.776 28.8896 20.984 28.2816 19.976C27.6736 18.968 27.3696 17.824 27.3696 16.544C27.3696 15.264 27.6736 14.12 28.2816 13.112C28.8896 12.104 29.7296 11.32 30.8016 10.76C31.8896 10.184 33.1136 9.896 34.4736 9.896C35.8336 9.896 37.0496 10.184 38.1216 10.76C39.1936 11.32 40.0336 12.104 40.6416 13.112C41.2496 14.12 41.5536 15.264 41.5536 16.544C41.5536 17.824 41.2496 18.968 40.6416 19.976C40.0336 20.984 39.1936 21.776 38.1216 22.352C37.0496 22.912 35.8336 23.192 34.4736 23.192ZM34.4736 20.12C35.4336 20.12 36.2176 19.8 36.8256 19.16C37.4496 18.504 37.7616 17.632 37.7616 16.544C37.7616 15.456 37.4496 14.592 36.8256 13.952C36.2176 13.296 35.4336 12.968 34.4736 12.968C33.5136 12.968 32.7216 13.296 32.0976 13.952C31.4736 14.592 31.1616 15.456 31.1616 16.544C31.1616 17.632 31.4736 18.504 32.0976 19.16C32.7216 19.8 33.5136 20.12 34.4736 20.12ZM44.0561 5.192H47.8001V23H44.0561V5.192ZM55.3789 10.376H58.6909V13.256H55.4749V23H51.7309V13.256H49.7389V10.376H51.7309V9.8C51.7309 8.328 52.1629 7.16 53.0269 6.296C53.9069 5.432 55.1389 5 56.7229 5C57.2829 5 57.8109 5.064 58.3069 5.192C58.8189 5.304 59.2429 5.472 59.5789 5.696L58.5949 8.408C58.1629 8.104 57.6589 7.952 57.0829 7.952C55.9469 7.952 55.3789 8.576 55.3789 9.824V10.376Z" fill="black"/>
<path d="M141.032 23.288C139.32 23.288 137.768 22.92 136.376 22.184C135 21.432 133.912 20.4 133.112 19.088C132.328 17.76 131.936 16.264 131.936 14.6C131.936 12.936 132.328 11.448 133.112 10.136C133.912 8.808 135 7.776 136.376 7.04C137.768 6.288 139.328 5.912 141.056 5.912C142.512 5.912 143.824 6.168 144.992 6.68C146.176 7.192 147.168 7.928 147.968 8.888L145.472 11.192C144.336 9.88 142.928 9.224 141.248 9.224C140.208 9.224 139.28 9.456 138.464 9.92C137.648 10.368 137.008 11 136.544 11.816C136.096 12.632 135.872 13.56 135.872 14.6C135.872 15.64 136.096 16.568 136.544 17.384C137.008 18.2 137.648 18.84 138.464 19.304C139.28 19.752 140.208 19.976 141.248 19.976C142.928 19.976 144.336 19.312 145.472 17.984L147.968 20.288C147.168 21.264 146.176 22.008 144.992 22.52C143.808 23.032 142.488 23.288 141.032 23.288ZM150.33 5.192H154.074V23H150.33V5.192ZM170.556 10.088V23H167.004V21.464C166.508 22.024 165.916 22.456 165.228 22.76C164.54 23.048 163.796 23.192 162.996 23.192C161.3 23.192 159.956 22.704 158.964 21.728C157.972 20.752 157.476 19.304 157.476 17.384V10.088H161.22V16.832C161.22 18.912 162.092 19.952 163.836 19.952C164.732 19.952 165.452 19.664 165.996 19.088C166.54 18.496 166.812 17.624 166.812 16.472V10.088H170.556ZM181.657 9.896C182.857 9.896 183.945 10.176 184.921 10.736C185.913 11.28 186.689 12.056 187.249 13.064C187.809 14.056 188.089 15.216 188.089 16.544C188.089 17.872 187.809 19.04 187.249 20.048C186.689 21.04 185.913 21.816 184.921 22.376C183.945 22.92 182.857 23.192 181.657 23.192C179.881 23.192 178.529 22.632 177.601 21.512V23H174.025V5.192H177.769V11.456C178.713 10.416 180.009 9.896 181.657 9.896ZM181.009 20.12C181.969 20.12 182.753 19.8 183.361 19.16C183.985 18.504 184.297 17.632 184.297 16.544C184.297 15.456 183.985 14.592 183.361 13.952C182.753 13.296 181.969 12.968 181.009 12.968C180.049 12.968 179.257 13.296 178.633 13.952C178.025 14.592 177.721 15.456 177.721 16.544C177.721 17.632 178.025 18.504 178.633 19.16C179.257 19.8 180.049 20.12 181.009 20.12Z" fill="black"/>
<rect x="62" width="67" height="29" rx="5" fill="#F29B30"/>
<path d="M73.032 23.288C71.32 23.288 69.768 22.92 68.376 22.184C67 21.432 65.912 20.4 65.112 19.088C64.328 17.76 63.936 16.264 63.936 14.6C63.936 12.936 64.328 11.448 65.112 10.136C65.912 8.808 67 7.776 68.376 7.04C69.768 6.288 71.328 5.912 73.056 5.912C74.512 5.912 75.824 6.168 76.992 6.68C78.176 7.192 79.168 7.928 79.968 8.888L77.472 11.192C76.336 9.88 74.928 9.224 73.248 9.224C72.208 9.224 71.28 9.456 70.464 9.92C69.648 10.368 69.008 11 68.544 11.816C68.096 12.632 67.872 13.56 67.872 14.6C67.872 15.64 68.096 16.568 68.544 17.384C69.008 18.2 69.648 18.84 70.464 19.304C71.28 19.752 72.208 19.976 73.248 19.976C74.928 19.976 76.336 19.312 77.472 17.984L79.968 20.288C79.168 21.264 78.176 22.008 76.992 22.52C75.808 23.032 74.488 23.288 73.032 23.288ZM88.0283 23.192C86.6683 23.192 85.4443 22.912 84.3563 22.352C83.2843 21.776 82.4443 20.984 81.8363 19.976C81.2283 18.968 80.9243 17.824 80.9243 16.544C80.9243 15.264 81.2283 14.12 81.8363 13.112C82.4443 12.104 83.2843 11.32 84.3563 10.76C85.4443 10.184 86.6683 9.896 88.0283 9.896C89.3883 9.896 90.6043 10.184 91.6763 10.76C92.7483 11.32 93.5883 12.104 94.1963 13.112C94.8043 14.12 95.1083 15.264 95.1083 16.544C95.1083 17.824 94.8043 18.968 94.1963 19.976C93.5883 20.984 92.7483 21.776 91.6763 22.352C90.6043 22.912 89.3883 23.192 88.0283 23.192ZM88.0283 20.12C88.9883 20.12 89.7723 19.8 90.3803 19.16C91.0043 18.504 91.3163 17.632 91.3163 16.544C91.3163 15.456 91.0043 14.592 90.3803 13.952C89.7723 13.296 88.9883 12.968 88.0283 12.968C87.0683 12.968 86.2763 13.296 85.6523 13.952C85.0283 14.592 84.7163 15.456 84.7163 16.544C84.7163 17.632 85.0283 18.504 85.6523 19.16C86.2763 19.8 87.0683 20.12 88.0283 20.12ZM110.763 5.192V23H107.187V21.512C106.259 22.632 104.915 23.192 103.155 23.192C101.939 23.192 100.835 22.92 99.8428 22.376C98.8668 21.832 98.0988 21.056 97.5388 20.048C96.9788 19.04 96.6988 17.872 96.6988 16.544C96.6988 15.216 96.9788 14.048 97.5388 13.04C98.0988 12.032 98.8668 11.256 99.8428 10.712C100.835 10.168 101.939 9.896 103.155 9.896C104.803 9.896 106.091 10.416 107.019 11.456V5.192H110.763ZM103.803 20.12C104.747 20.12 105.531 19.8 106.155 19.16C106.779 18.504 107.091 17.632 107.091 16.544C107.091 15.456 106.779 14.592 106.155 13.952C105.531 13.296 104.747 12.968 103.803 12.968C102.843 12.968 102.051 13.296 101.427 13.952C100.803 14.592 100.491 15.456 100.491 16.544C100.491 17.632 100.803 18.504 101.427 19.16C102.051 19.8 102.843 20.12 103.803 20.12ZM126.876 16.592C126.876 16.64 126.852 16.976 126.804 17.6H117.036C117.212 18.4 117.628 19.032 118.284 19.496C118.94 19.96 119.756 20.192 120.732 20.192C121.404 20.192 121.996 20.096 122.508 19.904C123.036 19.696 123.524 19.376 123.972 18.944L125.964 21.104C124.748 22.496 122.972 23.192 120.636 23.192C119.18 23.192 117.892 22.912 116.772 22.352C115.652 21.776 114.788 20.984 114.18 19.976C113.572 18.968 113.268 17.824 113.268 16.544C113.268 15.28 113.564 14.144 114.156 13.136C114.764 12.112 115.588 11.32 116.628 10.76C117.684 10.184 118.86 9.896 120.156 9.896C121.42 9.896 122.564 10.168 123.588 10.712C124.612 11.256 125.412 12.04 125.988 13.064C126.58 14.072 126.876 15.248 126.876 16.592ZM120.18 12.728C119.332 12.728 118.62 12.968 118.044 13.448C117.468 13.928 117.116 14.584 116.988 15.416H123.348C123.22 14.6 122.868 13.952 122.292 13.472C121.716 12.976 121.012 12.728 120.18 12.728Z" fill="black"/>
<path d="M16.016 41.048C15.2 41.048 14.46 40.864 13.796 40.496C13.14 40.128 12.624 39.62 12.248 38.972C11.872 38.324 11.684 37.6 11.684 36.8C11.684 36 11.872 35.276 12.248 34.628C12.624 33.98 13.14 33.472 13.796 33.104C14.46 32.736 15.2 32.552 16.016 32.552C16.592 32.552 17.132 32.648 17.636 32.84C18.14 33.024 18.572 33.3 18.932 33.668L18.68 33.932C17.984 33.26 17.1 32.924 16.028 32.924C15.292 32.924 14.624 33.096 14.024 33.44C13.424 33.776 12.952 34.24 12.608 34.832C12.264 35.424 12.092 36.08 12.092 36.8C12.092 37.52 12.264 38.176 12.608 38.768C12.952 39.36 13.424 39.828 14.024 40.172C14.624 40.508 15.292 40.676 16.028 40.676C17.092 40.676 17.976 40.336 18.68 39.656L18.932 39.92C18.572 40.288 18.14 40.568 17.636 40.76C17.14 40.952 16.6 41.048 16.016 41.048ZM20.8867 32.096H21.2827V41H20.8867V32.096ZM29.2733 34.772V41H28.8893V39.488C28.6973 39.976 28.3893 40.356 27.9653 40.628C27.5413 40.9 27.0373 41.036 26.4533 41.036C25.6453 41.036 25.0133 40.812 24.5573 40.364C24.1013 39.916 23.8733 39.272 23.8733 38.432V34.772H24.2693V38.408C24.2693 39.144 24.4573 39.708 24.8333 40.1C25.2173 40.484 25.7613 40.676 26.4653 40.676C27.2093 40.676 27.7973 40.448 28.2293 39.992C28.6613 39.528 28.8773 38.908 28.8773 38.132V34.772H29.2733ZM35.0095 34.724C35.5775 34.724 36.0935 34.86 36.5575 35.132C37.0215 35.396 37.3855 35.768 37.6495 36.248C37.9215 36.728 38.0575 37.272 38.0575 37.88C38.0575 38.488 37.9215 39.032 37.6495 39.512C37.3855 39.992 37.0215 40.368 36.5575 40.64C36.0935 40.904 35.5775 41.036 35.0095 41.036C34.4015 41.036 33.8575 40.884 33.3775 40.58C32.9055 40.268 32.5535 39.84 32.3215 39.296V41H31.9375V32.096H32.3335V36.44C32.5655 35.904 32.9175 35.484 33.3895 35.18C33.8695 34.876 34.4095 34.724 35.0095 34.724ZM34.9975 40.676C35.5015 40.676 35.9535 40.56 36.3535 40.328C36.7615 40.088 37.0815 39.756 37.3135 39.332C37.5455 38.908 37.6615 38.424 37.6615 37.88C37.6615 37.336 37.5455 36.856 37.3135 36.44C37.0815 36.016 36.7615 35.688 36.3535 35.456C35.9535 35.216 35.5015 35.096 34.9975 35.096C34.4935 35.096 34.0375 35.216 33.6295 35.456C33.2295 35.688 32.9135 36.016 32.6815 36.44C32.4495 36.856 32.3335 37.336 32.3335 37.88C32.3335 38.424 32.4495 38.908 32.6815 39.332C32.9135 39.756 33.2295 40.088 33.6295 40.328C34.0375 40.56 34.4935 40.676 34.9975 40.676ZM54.2548 32.6L51.3868 41H50.9788L48.2428 33.164L45.5188 41H45.0988L42.2308 32.6H42.6628L45.3148 40.412L48.0508 32.6H48.4468L51.1708 40.424L53.8468 32.6H54.2548ZM55.8203 34.772H56.2163V41H55.8203V34.772ZM56.0123 33.14C55.9083 33.14 55.8163 33.104 55.7363 33.032C55.6563 32.952 55.6163 32.86 55.6163 32.756C55.6163 32.644 55.6523 32.552 55.7243 32.48C55.8043 32.4 55.9003 32.36 56.0123 32.36C56.1163 32.36 56.2083 32.4 56.2883 32.48C56.3683 32.552 56.4083 32.64 56.4083 32.744C56.4083 32.848 56.3683 32.94 56.2883 33.02C56.2083 33.1 56.1163 33.14 56.0123 33.14ZM61.8189 40.604C61.6749 40.74 61.4909 40.848 61.2669 40.928C61.0429 41 60.8109 41.036 60.5709 41.036C60.0669 41.036 59.6749 40.896 59.3949 40.616C59.1229 40.328 58.9869 39.936 58.9869 39.44V35.12H57.8109V34.772H58.9869V33.404H59.3829V34.772H61.4349V35.12H59.3829V39.38C59.3829 39.804 59.4869 40.128 59.6949 40.352C59.9029 40.576 60.2069 40.688 60.6069 40.688C61.0069 40.688 61.3429 40.564 61.6149 40.316L61.8189 40.604ZM66.5181 34.724C67.2941 34.724 67.9061 34.952 68.3541 35.408C68.8021 35.856 69.0261 36.5 69.0261 37.34V41H68.6301V37.364C68.6301 36.628 68.4421 36.068 68.0661 35.684C67.6981 35.292 67.1701 35.096 66.4821 35.096C65.7061 35.096 65.0941 35.328 64.6461 35.792C64.1981 36.248 63.9741 36.864 63.9741 37.64V41H63.5781V32.096H63.9741V36.26C64.1821 35.78 64.5061 35.404 64.9461 35.132C65.3861 34.86 65.9101 34.724 66.5181 34.724ZM77.7723 32.6C78.8203 32.6 79.6363 32.848 80.2203 33.344C80.8123 33.832 81.1083 34.512 81.1083 35.384C81.1083 36.264 80.8123 36.952 80.2203 37.448C79.6363 37.936 78.8203 38.18 77.7723 38.18H75.2643V41H74.8563V32.6H77.7723ZM77.7963 37.808C78.7323 37.808 79.4523 37.6 79.9563 37.184C80.4603 36.76 80.7123 36.16 80.7123 35.384C80.7123 34.616 80.4603 34.024 79.9563 33.608C79.4523 33.184 78.7323 32.972 77.7963 32.972H75.2643V37.808H77.7963ZM83.2394 36.272C83.4234 35.776 83.7194 35.396 84.1274 35.132C84.5434 34.86 85.0554 34.724 85.6634 34.724V35.12H85.5554C84.8354 35.12 84.2714 35.348 83.8634 35.804C83.4554 36.26 83.2514 36.888 83.2514 37.688V41H82.8554V34.772H83.2394V36.272ZM87.4023 34.772H87.7983V41H87.4023V34.772ZM87.5943 33.14C87.4903 33.14 87.3983 33.104 87.3183 33.032C87.2383 32.952 87.1983 32.86 87.1983 32.756C87.1983 32.644 87.2343 32.552 87.3063 32.48C87.3863 32.4 87.4823 32.36 87.5943 32.36C87.6983 32.36 87.7903 32.4 87.8703 32.48C87.9503 32.552 87.9903 32.64 87.9903 32.744C87.9903 32.848 87.9503 32.94 87.8703 33.02C87.7903 33.1 87.6983 33.14 87.5943 33.14ZM95.2729 34.772L92.4289 41H92.0329L89.1889 34.772H89.6209L92.2369 40.556L94.8529 34.772H95.2729ZM98.5243 34.724C99.2683 34.724 99.8363 34.916 100.228 35.3C100.628 35.684 100.828 36.24 100.828 36.968V41H100.444V39.752C100.244 40.152 99.9443 40.468 99.5443 40.7C99.1523 40.924 98.6803 41.036 98.1283 41.036C97.4323 41.036 96.8843 40.876 96.4843 40.556C96.0923 40.236 95.8963 39.812 95.8963 39.284C95.8963 38.78 96.0763 38.372 96.4363 38.06C96.7963 37.74 97.3723 37.58 98.1643 37.58H100.432V36.968C100.432 36.352 100.268 35.884 99.9403 35.564C99.6203 35.244 99.1443 35.084 98.5123 35.084C98.0723 35.084 97.6603 35.16 97.2763 35.312C96.8923 35.464 96.5643 35.668 96.2923 35.924L96.0763 35.636C96.3803 35.348 96.7443 35.124 97.1683 34.964C97.6003 34.804 98.0523 34.724 98.5243 34.724ZM98.1523 40.7C99.2723 40.7 100.032 40.2 100.432 39.2V37.904H98.1643C97.5163 37.904 97.0403 38.028 96.7363 38.276C96.4403 38.516 96.2923 38.844 96.2923 39.26C96.2923 39.708 96.4563 40.06 96.7843 40.316C97.1203 40.572 97.5763 40.7 98.1523 40.7ZM106.362 40.604C106.218 40.74 106.034 40.848 105.81 40.928C105.586 41 105.354 41.036 105.114 41.036C104.61 41.036 104.218 40.896 103.938 40.616C103.666 40.328 103.53 39.936 103.53 39.44V35.12H102.354V34.772H103.53V33.404H103.926V34.772H105.978V35.12H103.926V39.38C103.926 39.804 104.03 40.128 104.238 40.352C104.446 40.576 104.75 40.688 105.15 40.688C105.55 40.688 105.886 40.564 106.158 40.316L106.362 40.604ZM113.023 37.94H107.563C107.571 38.468 107.695 38.94 107.935 39.356C108.175 39.772 108.503 40.096 108.919 40.328C109.343 40.56 109.815 40.676 110.335 40.676C110.759 40.676 111.151 40.6 111.511 40.448C111.871 40.288 112.167 40.056 112.399 39.752L112.651 40.016C112.371 40.344 112.031 40.596 111.631 40.772C111.231 40.948 110.799 41.036 110.335 41.036C109.727 41.036 109.183 40.904 108.703 40.64C108.231 40.368 107.859 39.992 107.587 39.512C107.315 39.032 107.179 38.488 107.179 37.88C107.179 37.272 107.303 36.728 107.551 36.248C107.807 35.768 108.159 35.396 108.607 35.132C109.055 34.86 109.555 34.724 110.107 34.724C110.651 34.724 111.143 34.856 111.583 35.12C112.031 35.384 112.383 35.752 112.639 36.224C112.895 36.696 113.023 37.232 113.023 37.832V37.94ZM110.107 35.084C109.643 35.084 109.223 35.192 108.847 35.408C108.471 35.624 108.171 35.928 107.947 36.32C107.723 36.704 107.599 37.136 107.575 37.616H112.651C112.619 37.136 112.487 36.704 112.255 36.32C112.031 35.928 111.731 35.624 111.355 35.408C110.987 35.192 110.571 35.084 110.107 35.084ZM126.22 41L126.208 33.428L122.524 39.836H122.308L118.612 33.452V41H118.216V32.6H118.552L122.416 39.32L126.268 32.6H126.604L126.616 41H126.22ZM134.62 37.94H129.16C129.168 38.468 129.292 38.94 129.532 39.356C129.772 39.772 130.1 40.096 130.516 40.328C130.94 40.56 131.412 40.676 131.932 40.676C132.356 40.676 132.748 40.6 133.108 40.448C133.468 40.288 133.764 40.056 133.996 39.752L134.248 40.016C133.968 40.344 133.628 40.596 133.228 40.772C132.828 40.948 132.396 41.036 131.932 41.036C131.324 41.036 130.78 40.904 130.3 40.64C129.828 40.368 129.456 39.992 129.184 39.512C128.912 39.032 128.776 38.488 128.776 37.88C128.776 37.272 128.9 36.728 129.148 36.248C129.404 35.768 129.756 35.396 130.204 35.132C130.652 34.86 131.152 34.724 131.704 34.724C132.248 34.724 132.74 34.856 133.18 35.12C133.628 35.384 133.98 35.752 134.236 36.224C134.492 36.696 134.62 37.232 134.62 37.832V37.94ZM131.704 35.084C131.24 35.084 130.82 35.192 130.444 35.408C130.068 35.624 129.768 35.928 129.544 36.32C129.32 36.704 129.196 37.136 129.172 37.616H134.248C134.216 37.136 134.084 36.704 133.852 36.32C133.628 35.928 133.328 35.624 132.952 35.408C132.584 35.192 132.168 35.084 131.704 35.084ZM144.326 34.724C145.086 34.724 145.682 34.948 146.114 35.396C146.554 35.844 146.774 36.492 146.774 37.34V41H146.378V37.364C146.378 36.628 146.198 36.068 145.838 35.684C145.478 35.292 144.966 35.096 144.302 35.096C143.558 35.096 142.966 35.328 142.526 35.792C142.086 36.256 141.866 36.872 141.866 37.64V41H141.47V37.364C141.47 36.628 141.29 36.068 140.93 35.684C140.57 35.292 140.062 35.096 139.406 35.096C138.654 35.096 138.058 35.328 137.618 35.792C137.186 36.248 136.97 36.864 136.97 37.64V41H136.574V34.772H136.958V36.272C137.15 35.792 137.458 35.416 137.882 35.144C138.314 34.864 138.83 34.724 139.43 34.724C140.03 34.724 140.534 34.868 140.942 35.156C141.35 35.444 141.622 35.864 141.758 36.416C141.942 35.896 142.258 35.484 142.706 35.18C143.154 34.876 143.694 34.724 144.326 34.724ZM152.443 34.724C153.011 34.724 153.527 34.86 153.991 35.132C154.455 35.396 154.819 35.768 155.083 36.248C155.355 36.728 155.491 37.272 155.491 37.88C155.491 38.488 155.355 39.032 155.083 39.512C154.819 39.992 154.455 40.368 153.991 40.64C153.527 40.904 153.011 41.036 152.443 41.036C151.835 41.036 151.291 40.884 150.811 40.58C150.339 40.268 149.987 39.84 149.755 39.296V41H149.371V32.096H149.767V36.44C149.999 35.904 150.351 35.484 150.823 35.18C151.303 34.876 151.843 34.724 152.443 34.724ZM152.431 40.676C152.935 40.676 153.387 40.56 153.787 40.328C154.195 40.088 154.515 39.756 154.747 39.332C154.979 38.908 155.095 38.424 155.095 37.88C155.095 37.336 154.979 36.856 154.747 36.44C154.515 36.016 154.195 35.688 153.787 35.456C153.387 35.216 152.935 35.096 152.431 35.096C151.927 35.096 151.471 35.216 151.063 35.456C150.663 35.688 150.347 36.016 150.115 36.44C149.883 36.856 149.767 37.336 149.767 37.88C149.767 38.424 149.883 38.908 150.115 39.332C150.347 39.756 150.663 40.088 151.063 40.328C151.471 40.56 151.927 40.676 152.431 40.676ZM162.581 37.94H157.121C157.129 38.468 157.253 38.94 157.493 39.356C157.733 39.772 158.061 40.096 158.477 40.328C158.901 40.56 159.373 40.676 159.893 40.676C160.317 40.676 160.709 40.6 161.069 40.448C161.429 40.288 161.725 40.056 161.957 39.752L162.209 40.016C161.929 40.344 161.589 40.596 161.189 40.772C160.789 40.948 160.357 41.036 159.893 41.036C159.285 41.036 158.741 40.904 158.261 40.64C157.789 40.368 157.417 39.992 157.145 39.512C156.873 39.032 156.737 38.488 156.737 37.88C156.737 37.272 156.861 36.728 157.109 36.248C157.365 35.768 157.717 35.396 158.165 35.132C158.613 34.86 159.113 34.724 159.665 34.724C160.209 34.724 160.701 34.856 161.141 35.12C161.589 35.384 161.941 35.752 162.197 36.224C162.453 36.696 162.581 37.232 162.581 37.832V37.94ZM159.665 35.084C159.201 35.084 158.781 35.192 158.405 35.408C158.029 35.624 157.729 35.928 157.505 36.32C157.281 36.704 157.157 37.136 157.133 37.616H162.209C162.177 37.136 162.045 36.704 161.813 36.32C161.589 35.928 161.289 35.624 160.913 35.408C160.545 35.192 160.129 35.084 159.665 35.084ZM164.919 36.272C165.103 35.776 165.399 35.396 165.807 35.132C166.223 34.86 166.735 34.724 167.343 34.724V35.12H167.235C166.515 35.12 165.951 35.348 165.543 35.804C165.135 36.26 164.931 36.888 164.931 37.688V41H164.535V34.772H164.919V36.272ZM170.629 41.036C170.125 41.036 169.649 40.96 169.201 40.808C168.761 40.656 168.417 40.456 168.169 40.208L168.361 39.896C168.617 40.12 168.945 40.308 169.345 40.46C169.753 40.612 170.185 40.688 170.641 40.688C171.313 40.688 171.809 40.576 172.129 40.352C172.449 40.12 172.609 39.8 172.609 39.392C172.609 39.104 172.521 38.876 172.345 38.708C172.177 38.54 171.965 38.416 171.709 38.336C171.453 38.256 171.109 38.176 170.677 38.096C170.173 38 169.769 37.904 169.465 37.808C169.169 37.704 168.917 37.54 168.709 37.316C168.501 37.092 168.397 36.78 168.397 36.38C168.397 35.908 168.589 35.516 168.973 35.204C169.365 34.884 169.933 34.724 170.677 34.724C171.061 34.724 171.445 34.784 171.829 34.904C172.213 35.016 172.525 35.168 172.765 35.36L172.561 35.672C172.313 35.48 172.021 35.336 171.685 35.24C171.357 35.136 171.017 35.084 170.665 35.084C170.049 35.084 169.585 35.204 169.273 35.444C168.961 35.676 168.805 35.984 168.805 36.368C168.805 36.672 168.893 36.912 169.069 37.088C169.245 37.264 169.461 37.396 169.717 37.484C169.981 37.564 170.337 37.648 170.785 37.736C171.265 37.824 171.653 37.92 171.949 38.024C172.245 38.12 172.493 38.276 172.693 38.492C172.901 38.708 173.005 39.008 173.005 39.392C173.005 39.896 172.801 40.296 172.393 40.592C171.985 40.888 171.397 41.036 170.629 41.036Z" fill="black"/>
</svg>
