<svg xmlns="http://www.w3.org/2000/svg" xmlns:xlink="http://www.w3.org/1999/xlink" width="339.018" height="261.707" viewBox="0 0 339.018 261.707">
  <defs>
    <filter id="Rectangle_10" x="3.018" y="0" width="336" height="258" filterUnits="userSpaceOnUse">
      <feOffset dy="10" input="SourceAlpha"/>
      <feGaussianBlur stdDeviation="15" result="blur"/>
      <feFlood flood-opacity="0.161"/>
      <feComposite operator="in" in2="blur"/>
      <feComposite in="SourceGraphic"/>
    </filter>
    <linearGradient id="linear-gradient" x1="0.5" x2="0.5" y2="1" gradientUnits="objectBoundingBox">
      <stop offset="0" stop-color="#6f6f6f"/>
      <stop offset="1" stop-color="#404040"/>
    </linearGradient>
    <filter id="Path_33" x="0" y="94.256" width="197.773" height="167.451" filterUnits="userSpaceOnUse">
      <feOffset dy="50" input="SourceAlpha"/>
      <feGaussianBlur stdDeviation="25" result="blur-2"/>
      <feFlood flood-opacity="0.161"/>
      <feComposite operator="in" in2="blur-2"/>
      <feComposite in="SourceGraphic"/>
    </filter>
    <filter id="Path_26" x="62.524" y="70.431" width="166.515" height="191.246" filterUnits="userSpaceOnUse">
      <feOffset dy="50" input="SourceAlpha"/>
      <feGaussianBlur stdDeviation="25" result="blur-3"/>
      <feFlood flood-opacity="0.161"/>
      <feComposite operator="in" in2="blur-3"/>
      <feComposite in="SourceGraphic"/>
    </filter>
    <linearGradient id="linear-gradient-2" x1="0.5" x2="0.5" y2="0.812" gradientUnits="objectBoundingBox">
      <stop offset="0" stop-color="#ebff00"/>
      <stop offset="1" stop-color="#b2b200"/>
    </linearGradient>
    <filter id="Path_21" x="31.263" y="44.967" width="197.773" height="179.98" filterUnits="userSpaceOnUse">
      <feOffset dy="50" input="SourceAlpha"/>
      <feGaussianBlur stdDeviation="25" result="blur-4"/>
      <feFlood flood-opacity="0.161"/>
      <feComposite operator="in" in2="blur-4"/>
      <feComposite in="SourceGraphic"/>
    </filter>
    <filter id="Path_34" x="31.263" y="94.256" width="197.773" height="167.451" filterUnits="userSpaceOnUse">
      <feOffset dy="50" input="SourceAlpha"/>
      <feGaussianBlur stdDeviation="25" result="blur-5"/>
      <feFlood flood-opacity="0.161"/>
      <feComposite operator="in" in2="blur-5"/>
      <feComposite in="SourceGraphic"/>
    </filter>
  </defs>
  <g id="tablet" transform="translate(48.018 35)">
    <g transform="matrix(1, 0, 0, 1, -48.02, -35)" filter="url(#Rectangle_10)">
      <g id="Rectangle_10-2" data-name="Rectangle 10" transform="translate(48.02 35)" fill="#ebff00" stroke="#b2b200" stroke-width="1">
        <rect width="246" height="168" rx="17" stroke="none"/>
        <rect x="0.5" y="0.5" width="245" height="167" rx="16.5" fill="none"/>
      </g>
    </g>
    <g id="Rectangle_11" data-name="Rectangle 11" transform="translate(14 15)" fill="#fff" stroke="#b2b200" stroke-width="1">
      <rect width="202" height="135" stroke="none"/>
      <rect x="0.5" y="0.5" width="201" height="134" fill="none"/>
    </g>
    <g id="Ellipse_2" data-name="Ellipse 2" transform="translate(220 75)" fill="#fff" stroke="#b2b200" stroke-width="1">
      <circle cx="9" cy="9" r="9" stroke="none"/>
      <circle cx="9" cy="9" r="8.5" fill="none"/>
    </g>
    <g id="WieQuee-logo" transform="translate(26.98 22.959)">
      <g id="Path_30" data-name="Path 30" transform="translate(0 71.26) rotate(-90)" fill="#404040">
        <path d="M 38.67789840698242 16.01453399658203 L 2.568317890167236 16.01453399658203 C 1.424247860908508 16.01453399658203 0.7856479287147522 15.20803451538086 0.5864078998565674 14.51740455627441 C 0.3858879208564758 13.82230472564697 0.4979579150676727 12.79270458221436 1.473737955093384 12.17860507965088 L 19.52852821350098 0.8160548806190491 C 19.8570671081543 0.6092848777770996 20.23556709289551 0.4999948441982269 20.62310791015625 0.4999948441982269 C 21.01064872741699 0.4999948441982269 21.3891487121582 0.6092848777770996 21.71768760681152 0.8160548806190491 L 33.25903701782227 8.07945442199707 L 39.77247619628906 12.17860507965088 C 40.74826812744141 12.79270458221436 40.86032867431641 13.82230472564697 40.65980911254883 14.51740455627441 C 40.46056747436523 15.20804500579834 39.82196807861328 16.01453399658203 38.67789840698242 16.01453399658203 Z" stroke="none"/>
        <path d="M 20.62310791015625 0.999995231628418 C 20.32992744445801 0.999995231628418 20.04352760314941 1.082715034484863 19.79484748840332 1.239224433898926 L 1.740066528320312 12.60177516937256 C 1.000057220458984 13.06748485565186 0.9070892333984375 13.82509517669678 1.066818237304688 14.37881469726562 C 1.225208282470703 14.92785453796387 1.702827453613281 15.51453495025635 2.568317413330078 15.51453495025635 L 38.67789840698242 15.51453495025635 C 39.54338836669922 15.51453495025635 40.0210075378418 14.92785453796387 40.17939758300781 14.37881469726562 C 40.33913803100586 13.82509517669678 40.24615859985352 13.06748485565186 39.50615692138672 12.60177516937256 L 32.99270629882812 8.50262451171875 L 21.45136833190918 1.239224433898926 C 21.20268821716309 1.082715034484863 20.91627883911133 0.999995231628418 20.62310791015625 0.999995231628418 M 20.62310791015625 -1.9073486328125e-06 C 21.0954647064209 -1.9073486328125e-06 21.56782341003418 0.1309604644775391 21.9840087890625 0.3928852081298828 L 33.52534866333008 7.656285285949707 L 40.03879928588867 11.7554349899292 C 42.22062683105469 13.12854480743408 41.25238800048828 16.51453399658203 38.67789840698242 16.51453399658203 L 2.568317413330078 16.51453399658203 C -0.006160736083984375 16.51453399658203 -0.9744110107421875 13.12854480743408 1.207427978515625 11.7554349899292 L 19.26220703125 0.3928852081298828 C 19.67839241027832 0.1309604644775391 20.1507511138916 -1.9073486328125e-06 20.62310791015625 -1.9073486328125e-06 Z" stroke="none" fill="#ebff00"/>
      </g>
      <g id="Path_31" data-name="Path 31" transform="translate(16.515 11.485) rotate(90)" fill="#6f6f6f">
        <path d="M 38.67789840698242 16.01453399658203 L 2.568317890167236 16.01453399658203 C 1.424247860908508 16.01453399658203 0.7856479287147522 15.20803451538086 0.5864078998565674 14.51740455627441 C 0.3858879208564758 13.82230472564697 0.4979579150676727 12.79270458221436 1.473737955093384 12.17860507965088 L 19.52852821350098 0.8160548806190491 C 19.8570671081543 0.6092848777770996 20.23556709289551 0.4999948441982269 20.62310791015625 0.4999948441982269 C 21.01064872741699 0.4999948441982269 21.3891487121582 0.6092848777770996 21.71768760681152 0.8160548806190491 L 33.25903701782227 8.07945442199707 L 39.77247619628906 12.17860507965088 C 40.74826812744141 12.79270458221436 40.86032867431641 13.82230472564697 40.65980911254883 14.51740455627441 C 40.46056747436523 15.20804500579834 39.82196807861328 16.01453399658203 38.67789840698242 16.01453399658203 Z" stroke="none"/>
        <path d="M 20.62310791015625 0.999995231628418 C 20.32992744445801 0.999995231628418 20.04352760314941 1.082715034484863 19.79484748840332 1.239224433898926 L 1.740066528320312 12.60177516937256 C 1.000057220458984 13.06748485565186 0.9070892333984375 13.82509517669678 1.066818237304688 14.37881469726562 C 1.225208282470703 14.92785453796387 1.702827453613281 15.51453495025635 2.568317413330078 15.51453495025635 L 38.67789840698242 15.51453495025635 C 39.54338836669922 15.51453495025635 40.0210075378418 14.92785453796387 40.17939758300781 14.37881469726562 C 40.33913803100586 13.82509517669678 40.24615859985352 13.06748485565186 39.50615692138672 12.60177516937256 L 32.99270629882812 8.50262451171875 L 21.45136833190918 1.239224433898926 C 21.20268821716309 1.082715034484863 20.91627883911133 0.999995231628418 20.62310791015625 0.999995231628418 M 20.62310791015625 -1.9073486328125e-06 C 21.0954647064209 -1.9073486328125e-06 21.56782341003418 0.1309604644775391 21.9840087890625 0.3928852081298828 L 33.52534866333008 7.656285285949707 L 40.03879928588867 11.7554349899292 C 42.22062683105469 13.12854480743408 41.25238800048828 16.51453399658203 38.67789840698242 16.51453399658203 L 2.568317413330078 16.51453399658203 C -0.006160736083984375 16.51453399658203 -0.9744110107421875 13.12854480743408 1.207427978515625 11.7554349899292 L 19.26220703125 0.3928852081298828 C 19.67839241027832 0.1309604644775391 20.1507511138916 -1.9073486328125e-06 20.62310791015625 -1.9073486328125e-06 Z" stroke="none" fill="#ebff00"/>
      </g>
      <g id="Path_32" data-name="Path 32" transform="translate(47.775 66.08) rotate(180)" fill="url(#linear-gradient)">
        <path d="M 45.33872222900391 18.14077758789062 L 23.63133239746094 3.932050228118896 L 23.35058212280273 3.748290061950684 L 23.07413101196289 3.93845009803772 L 2.428152084350586 18.14036178588867 C 1.352139234542847 18.06478309631348 0.5000017285346985 17.17035675048828 0.5000017285346985 16.08177947998047 L 0.5000017285346985 2.563760042190552 C 0.5000017285346985 1.425800085067749 1.431291699409485 0.5000001192092896 2.575991630554199 0.5000001192092896 L 45.1969108581543 0.5000001192092896 C 46.34160995483398 0.5000001192092896 47.27290344238281 1.425800085067749 47.27290344238281 2.563760042190552 L 47.27290344238281 16.08177947998047 C 47.27290344238281 17.17237091064453 46.41755676269531 18.06809616088867 45.33872222900391 18.14077758789062 Z" stroke="none"/>
        <path d="M 2.575992584228516 1 C 1.706993103027344 1 1 1.701499938964844 1 2.563760757446289 L 1 16.08177947998047 C 1 16.85067749023438 1.562198638916016 17.49174690246582 2.300121307373047 17.62155723571777 L 22.79076194763184 3.52649974822998 L 23.34367179870605 3.146169662475586 L 23.90517234802246 3.513700485229492 L 45.46144104003906 17.62350845336914 C 46.20495986938477 17.49831771850586 46.77290344238281 16.8546257019043 46.77290344238281 16.08177947998047 L 46.77290344238281 2.563760757446289 C 46.77290344238281 1.701499938964844 46.06591033935547 1 45.1969108581543 1 L 2.575992584228516 1 M 2.575992584228516 0 L 45.1969108581543 0 C 46.61959075927734 0 47.77290344238281 1.147830963134766 47.77290344238281 2.563760757446289 L 47.77290344238281 16.08177947998047 C 47.77290344238281 17.49770927429199 46.61959075927734 18.64554023742676 45.1969108581543 18.64554023742676 L 23.35750198364258 4.350399971008301 L 2.575992584228516 18.64554023742676 C 1.153312683105469 18.64554023742676 0 17.49770927429199 0 16.08177947998047 L 0 2.563760757446289 C 0 1.147830963134766 1.153312683105469 0 2.575992584228516 0 Z" stroke="none" fill="#ebff00"/>
      </g>
      <g transform="matrix(1, 0, 0, 1, -75, -57.96)" filter="url(#Path_33)">
        <g id="Path_33-2" data-name="Path 33" transform="translate(122.77 136.71) rotate(-180)" fill="#6f6f6f">
          <path d="M 44.79818344116211 16.95083618164062 L 2.97472357749939 16.95083618164062 C 1.537653684616089 16.95083618164062 0.7821136116981506 16.02973747253418 0.5717736482620239 15.24095726013184 C 0.3741336166858673 14.49981689453125 0.5529236197471619 13.48395729064941 1.647443652153015 12.8555269241333 L 22.55916404724121 0.848767101764679 C 22.9565544128418 0.6206071376800537 23.41552352905273 0.5000070929527283 23.88645362854004 0.5000070929527283 C 24.35738372802734 0.5000070929527283 24.81634330749512 0.6206071376800537 25.2137336730957 0.848767101764679 L 38.58135223388672 8.523966789245605 L 46.12547302246094 12.8555269241333 C 47.2199821472168 13.48395729064941 47.39877319335938 14.49981689453125 47.20114517211914 15.24095726013184 C 46.99079513549805 16.02973747253418 46.23526382446289 16.95083618164062 44.79818344116211 16.95083618164062 Z" stroke="none"/>
          <path d="M 23.88645362854004 0.9999961853027344 C 23.50275421142578 0.9999961853027344 23.12987327575684 1.097646713256836 22.80813407897949 1.282377243041992 L 1.896411895751953 13.28913688659668 C 1.175464630126953 13.70307731628418 0.8608741760253906 14.38456726074219 1.054882049560547 15.11212730407715 C 1.219562530517578 15.72967720031738 1.821182250976562 16.45083618164062 2.974723815917969 16.45083618164062 L 44.79818344116211 16.45083618164062 C 45.95172500610352 16.45083618164062 46.5533332824707 15.72967720031738 46.71801376342773 15.11212730407715 C 46.91203308105469 14.38456726074219 46.59744262695312 13.70307731628418 45.87649536132812 13.28913688659668 L 38.33238220214844 8.957576751708984 L 24.96476364135742 1.282377243041992 C 24.64302444458008 1.097646713256836 24.27014350891113 0.9999961853027344 23.88645362854004 0.9999961853027344 M 23.88645172119141 1.9073486328125e-06 C 24.43355369567871 1.9073486328125e-06 24.98065376281738 0.1383876800537109 25.46269416809082 0.4151573181152344 L 38.83031463623047 8.090356826782227 L 46.37442398071289 12.42191696166992 C 48.90150451660156 13.87287712097168 47.78004455566406 17.45083618164062 44.79818344116211 17.45083618164062 L 2.974723815917969 17.45083618164062 C -0.007137298583984375 17.45083618164062 -1.128604888916016 13.87287712097168 1.398483276367188 12.42191696166992 L 22.31020355224609 0.4151573181152344 C 22.7922477722168 0.1383876800537109 23.33935165405273 1.9073486328125e-06 23.88645172119141 1.9073486328125e-06 Z" stroke="none" fill="#ebff00"/>
        </g>
      </g>
      <g id="Path_28" data-name="Path 28" transform="translate(31.263 67.181) rotate(-90)" fill="#404040">
        <path d="M 38.67789840698242 16.01453399658203 L 2.568317890167236 16.01453399658203 C 1.424247860908508 16.01453399658203 0.7856479287147522 15.20803451538086 0.5864078998565674 14.51740455627441 C 0.3858879208564758 13.82230472564697 0.4979579150676727 12.79270458221436 1.473737955093384 12.17860507965088 L 19.52852821350098 0.8160548806190491 C 19.8570671081543 0.6092848777770996 20.23556709289551 0.4999948441982269 20.62310791015625 0.4999948441982269 C 21.01064872741699 0.4999948441982269 21.3891487121582 0.6092848777770996 21.71768760681152 0.8160548806190491 L 33.25903701782227 8.07945442199707 L 39.77247619628906 12.17860507965088 C 40.74826812744141 12.79270458221436 40.86032867431641 13.82230472564697 40.65980911254883 14.51740455627441 C 40.46056747436523 15.20804500579834 39.82196807861328 16.01453399658203 38.67789840698242 16.01453399658203 Z" stroke="none"/>
        <path d="M 20.62310791015625 0.999995231628418 C 20.32992744445801 0.999995231628418 20.04352760314941 1.082715034484863 19.79484748840332 1.239224433898926 L 1.740066528320312 12.60177516937256 C 1.000057220458984 13.06748485565186 0.9070892333984375 13.82509517669678 1.066818237304688 14.37881469726562 C 1.225208282470703 14.92785453796387 1.702827453613281 15.51453495025635 2.568317413330078 15.51453495025635 L 38.67789840698242 15.51453495025635 C 39.54338836669922 15.51453495025635 40.0210075378418 14.92785453796387 40.17939758300781 14.37881469726562 C 40.33913803100586 13.82509517669678 40.24615859985352 13.06748485565186 39.50615692138672 12.60177516937256 L 32.99270629882812 8.50262451171875 L 21.45136833190918 1.239224433898926 C 21.20268821716309 1.082715034484863 20.91627883911133 0.999995231628418 20.62310791015625 0.999995231628418 M 20.62310791015625 -1.9073486328125e-06 C 21.0954647064209 -1.9073486328125e-06 21.56782341003418 0.1309604644775391 21.9840087890625 0.3928852081298828 L 33.52534866333008 7.656285285949707 L 40.03879928588867 11.7554349899292 C 42.22062683105469 13.12854480743408 41.25238800048828 16.51453399658203 38.67789840698242 16.51453399658203 L 2.568317413330078 16.51453399658203 C -0.006160736083984375 16.51453399658203 -0.9744110107421875 13.12854480743408 1.207427978515625 11.7554349899292 L 19.26220703125 0.3928852081298828 C 19.67839241027832 0.1309604644775391 20.1507511138916 -1.9073486328125e-06 20.62310791015625 -1.9073486328125e-06 Z" stroke="none" fill="#6f6f6f"/>
      </g>
      <g transform="matrix(1, 0, 0, 1, -75, -57.96)" filter="url(#Path_26)">
        <g id="Path_26-2" data-name="Path 26" transform="translate(137.52 136.68) rotate(-90)" fill="#b2b200">
          <path d="M 38.67789840698242 16.01453399658203 L 2.568317890167236 16.01453399658203 C 1.424247860908508 16.01453399658203 0.7856479287147522 15.20803451538086 0.5864078998565674 14.51740455627441 C 0.3858879208564758 13.82230472564697 0.4979579150676727 12.79270458221436 1.473737955093384 12.17860507965088 L 19.52852821350098 0.8160548806190491 C 19.8570671081543 0.6092848777770996 20.23556709289551 0.4999948441982269 20.62310791015625 0.4999948441982269 C 21.01064872741699 0.4999948441982269 21.3891487121582 0.6092848777770996 21.71768760681152 0.8160548806190491 L 33.25903701782227 8.07945442199707 L 39.77247619628906 12.17860507965088 C 40.74826812744141 12.79270458221436 40.86032867431641 13.82230472564697 40.65980911254883 14.51740455627441 C 40.46056747436523 15.20804500579834 39.82196807861328 16.01453399658203 38.67789840698242 16.01453399658203 Z" stroke="none"/>
          <path d="M 20.62310791015625 0.999995231628418 C 20.32992744445801 0.999995231628418 20.04352760314941 1.082715034484863 19.79484748840332 1.239224433898926 L 1.740066528320312 12.60177516937256 C 1.000057220458984 13.06748485565186 0.9070892333984375 13.82509517669678 1.066818237304688 14.37881469726562 C 1.225208282470703 14.92785453796387 1.702827453613281 15.51453495025635 2.568317413330078 15.51453495025635 L 38.67789840698242 15.51453495025635 C 39.54338836669922 15.51453495025635 40.0210075378418 14.92785453796387 40.17939758300781 14.37881469726562 C 40.33913803100586 13.82509517669678 40.24615859985352 13.06748485565186 39.50615692138672 12.60177516937256 L 32.99270629882812 8.50262451171875 L 21.45136833190918 1.239224433898926 C 21.20268821716309 1.082715034484863 20.91627883911133 0.999995231628418 20.62310791015625 0.999995231628418 M 20.62310791015625 -1.9073486328125e-06 C 21.0954647064209 -1.9073486328125e-06 21.56782341003418 0.1309604644775391 21.9840087890625 0.3928852081298828 L 33.52534866333008 7.656285285949707 L 40.03879928588867 11.7554349899292 C 42.22062683105469 13.12854480743408 41.25238800048828 16.51453399658203 38.67789840698242 16.51453399658203 L 2.568317413330078 16.51453399658203 C -0.006160736083984375 16.51453399658203 -0.9744110107421875 13.12854480743408 1.207427978515625 11.7554349899292 L 19.26220703125 0.3928852081298828 C 19.67839241027832 0.1309604644775391 20.1507511138916 -1.9073486328125e-06 20.62310791015625 -1.9073486328125e-06 Z" stroke="none" fill="#6f6f6f"/>
        </g>
      </g>
      <g id="Path_29" data-name="Path 29" transform="translate(79.041 23.837) rotate(90)" fill="#6f6f6f">
        <path d="M 38.67789840698242 16.01453399658203 L 2.568317890167236 16.01453399658203 C 1.424247860908508 16.01453399658203 0.7856479287147522 15.20803451538086 0.5864078998565674 14.51740455627441 C 0.3858879208564758 13.82230472564697 0.4979579150676727 12.79270458221436 1.473737955093384 12.17860507965088 L 19.52852821350098 0.8160548806190491 C 19.8570671081543 0.6092848777770996 20.23556709289551 0.4999948441982269 20.62310791015625 0.4999948441982269 C 21.01064872741699 0.4999948441982269 21.3891487121582 0.6092848777770996 21.71768760681152 0.8160548806190491 L 33.25903701782227 8.07945442199707 L 39.77247619628906 12.17860507965088 C 40.74826812744141 12.79270458221436 40.86032867431641 13.82230472564697 40.65980911254883 14.51740455627441 C 40.46056747436523 15.20804500579834 39.82196807861328 16.01453399658203 38.67789840698242 16.01453399658203 Z" stroke="none"/>
        <path d="M 20.62310791015625 0.999995231628418 C 20.32992744445801 0.999995231628418 20.04352760314941 1.082715034484863 19.79484748840332 1.239224433898926 L 1.740066528320312 12.60177516937256 C 1.000057220458984 13.06748485565186 0.9070892333984375 13.82509517669678 1.066818237304688 14.37881469726562 C 1.225208282470703 14.92785453796387 1.702827453613281 15.51453495025635 2.568317413330078 15.51453495025635 L 38.67789840698242 15.51453495025635 C 39.54338836669922 15.51453495025635 40.0210075378418 14.92785453796387 40.17939758300781 14.37881469726562 C 40.33913803100586 13.82509517669678 40.24615859985352 13.06748485565186 39.50615692138672 12.60177516937256 L 32.99270629882812 8.50262451171875 L 21.45136833190918 1.239224433898926 C 21.20268821716309 1.082715034484863 20.91627883911133 0.999995231628418 20.62310791015625 0.999995231628418 M 20.62310791015625 -1.9073486328125e-06 C 21.0954647064209 -1.9073486328125e-06 21.56782341003418 0.1309604644775391 21.9840087890625 0.3928852081298828 L 33.52534866333008 7.656285285949707 L 40.03879928588867 11.7554349899292 C 42.22062683105469 13.12854480743408 41.25238800048828 16.51453399658203 38.67789840698242 16.51453399658203 L 2.568317413330078 16.51453399658203 C -0.006160736083984375 16.51453399658203 -0.9744110107421875 13.12854480743408 1.207427978515625 11.7554349899292 L 19.26220703125 0.3928852081298828 C 19.67839241027832 0.1309604644775391 20.1507511138916 -1.9073486328125e-06 20.62310791015625 -1.9073486328125e-06 Z" stroke="none" fill="#6f6f6f"/>
      </g>
      <g transform="matrix(1, 0, 0, 1, -75, -57.96)" filter="url(#Path_21)">
        <g id="Path_21-2" data-name="Path 21" transform="translate(106.26 69.97)" fill="url(#linear-gradient-2)">
          <path d="M 45.32742309570312 29.47304725646973 L 23.84003257751465 16.13949203491211 L 23.5725212097168 15.97349166870117 L 23.30722236633301 16.14298248291016 L 2.442175388336182 29.47266387939453 C 1.376364588737488 29.34759140014648 0.5000017285346985 27.74330520629883 0.5000017285346985 25.85818099975586 L 0.5000017285346985 4.122321605682373 C 0.5000017285346985 2.158821582794189 1.450691699981689 0.5000015497207642 2.575991630554199 0.5000015497207642 L 45.1969108581543 0.5000015497207642 C 46.32221221923828 0.5000015497207642 47.27290344238281 2.158821582794189 47.27290344238281 4.122321605682373 L 47.27290344238281 25.85818099975586 C 47.27290344238281 27.74534225463867 46.39479446411133 29.35104179382324 45.32742309570312 29.47304725646973 Z" stroke="none"/>
          <path d="M 2.575992584228516 1.000001907348633 C 1.917911529541016 1.000001907348633 1 2.187841415405273 1 4.122322082519531 L 1 25.85818099975586 C 1 27.57954216003418 1.726802825927734 28.70971298217773 2.350608825683594 28.93783950805664 L 23.03803253173828 15.72163200378418 L 23.56865119934082 15.38265132904053 L 24.10366249084473 15.71464157104492 L 45.41655349731445 28.93991661071777 C 46.0416374206543 28.7166748046875 46.77290344238281 27.5848560333252 46.77290344238281 25.85818099975586 L 46.77290344238281 4.122322082519531 C 46.77290344238281 2.187841415405273 45.8549919128418 1.000001907348633 45.1969108581543 1.000001907348633 L 2.575992584228516 1.000001907348633 M 2.575992584228516 1.9073486328125e-06 L 45.1969108581543 1.9073486328125e-06 C 46.61959075927734 1.9073486328125e-06 47.77290344238281 1.845621109008789 47.77290344238281 4.122322082519531 L 47.77290344238281 25.85818099975586 C 47.77290344238281 28.1348819732666 46.61959075927734 29.98050117492676 45.1969108581543 29.98050117492676 L 23.57640266418457 16.5643424987793 L 2.575992584228516 29.98050117492676 C 1.153312683105469 29.98050117492676 0 28.1348819732666 0 25.85818099975586 L 0 4.122322082519531 C 0 1.845621109008789 1.153312683105469 1.9073486328125e-06 2.575992584228516 1.9073486328125e-06 Z" stroke="none" fill="#6f6f6f"/>
        </g>
      </g>
      <g id="Path_24" data-name="Path 24" transform="translate(62.526 53.313) rotate(-90)" fill="#ebff00">
        <path d="M 38.67789840698242 16.01453399658203 L 2.568317890167236 16.01453399658203 C 1.424247860908508 16.01453399658203 0.7856479287147522 15.20803451538086 0.5864078998565674 14.51740455627441 C 0.3858879208564758 13.82230472564697 0.4979579150676727 12.79270458221436 1.473737955093384 12.17860507965088 L 19.52852821350098 0.8160548806190491 C 19.8570671081543 0.6092848777770996 20.23556709289551 0.4999948441982269 20.62310791015625 0.4999948441982269 C 21.01064872741699 0.4999948441982269 21.3891487121582 0.6092848777770996 21.71768760681152 0.8160548806190491 L 33.25903701782227 8.07945442199707 L 39.77247619628906 12.17860507965088 C 40.74826812744141 12.79270458221436 40.86032867431641 13.82230472564697 40.65980911254883 14.51740455627441 C 40.46056747436523 15.20804500579834 39.82196807861328 16.01453399658203 38.67789840698242 16.01453399658203 Z" stroke="none"/>
        <path d="M 20.62310791015625 0.999995231628418 C 20.32992744445801 0.999995231628418 20.04352760314941 1.082715034484863 19.79484748840332 1.239224433898926 L 1.740066528320312 12.60177516937256 C 1.000057220458984 13.06748485565186 0.9070892333984375 13.82509517669678 1.066818237304688 14.37881469726562 C 1.225208282470703 14.92785453796387 1.702827453613281 15.51453495025635 2.568317413330078 15.51453495025635 L 38.67789840698242 15.51453495025635 C 39.54338836669922 15.51453495025635 40.0210075378418 14.92785453796387 40.17939758300781 14.37881469726562 C 40.33913803100586 13.82509517669678 40.24615859985352 13.06748485565186 39.50615692138672 12.60177516937256 L 32.99270629882812 8.50262451171875 L 21.45136833190918 1.239224433898926 C 21.20268821716309 1.082715034484863 20.91627883911133 0.999995231628418 20.62310791015625 0.999995231628418 M 20.62310791015625 -1.9073486328125e-06 C 21.0954647064209 -1.9073486328125e-06 21.56782341003418 0.1309604644775391 21.9840087890625 0.3928852081298828 L 33.52534866333008 7.656285285949707 L 40.03879928588867 11.7554349899292 C 42.22062683105469 13.12854480743408 41.25238800048828 16.51453399658203 38.67789840698242 16.51453399658203 L 2.568317413330078 16.51453399658203 C -0.006160736083984375 16.51453399658203 -0.9744110107421875 13.12854480743408 1.207427978515625 11.7554349899292 L 19.26220703125 0.3928852081298828 C 19.67839241027832 0.1309604644775391 20.1507511138916 -1.9073486328125e-06 20.62310791015625 -1.9073486328125e-06 Z" stroke="none" fill="#6f6f6f"/>
      </g>
      <g id="Path_22" data-name="Path 22" transform="translate(47.778 12.067) rotate(90)" fill="#ebff00">
        <path d="M 38.67789840698242 16.01453399658203 L 2.568317890167236 16.01453399658203 C 1.424247860908508 16.01453399658203 0.7856479287147522 15.20803451538086 0.5864078998565674 14.51740455627441 C 0.3858879208564758 13.82230472564697 0.4979579150676727 12.79270458221436 1.473737955093384 12.17860507965088 L 19.52852821350098 0.8160548806190491 C 19.8570671081543 0.6092848777770996 20.23556709289551 0.4999948441982269 20.62310791015625 0.4999948441982269 C 21.01064872741699 0.4999948441982269 21.3891487121582 0.6092848777770996 21.71768760681152 0.8160548806190491 L 33.25903701782227 8.07945442199707 L 39.77247619628906 12.17860507965088 C 40.74826812744141 12.79270458221436 40.86032867431641 13.82230472564697 40.65980911254883 14.51740455627441 C 40.46056747436523 15.20804500579834 39.82196807861328 16.01453399658203 38.67789840698242 16.01453399658203 Z" stroke="none"/>
        <path d="M 20.62310791015625 0.999995231628418 C 20.32992744445801 0.999995231628418 20.04352760314941 1.082715034484863 19.79484748840332 1.239224433898926 L 1.740066528320312 12.60177516937256 C 1.000057220458984 13.06748485565186 0.9070892333984375 13.82509517669678 1.066818237304688 14.37881469726562 C 1.225208282470703 14.92785453796387 1.702827453613281 15.51453495025635 2.568317413330078 15.51453495025635 L 38.67789840698242 15.51453495025635 C 39.54338836669922 15.51453495025635 40.0210075378418 14.92785453796387 40.17939758300781 14.37881469726562 C 40.33913803100586 13.82509517669678 40.24615859985352 13.06748485565186 39.50615692138672 12.60177516937256 L 32.99270629882812 8.50262451171875 L 21.45136833190918 1.239224433898926 C 21.20268821716309 1.082715034484863 20.91627883911133 0.999995231628418 20.62310791015625 0.999995231628418 M 20.62310791015625 -1.9073486328125e-06 C 21.0954647064209 -1.9073486328125e-06 21.56782341003418 0.1309604644775391 21.9840087890625 0.3928852081298828 L 33.52534866333008 7.656285285949707 L 40.03879928588867 11.7554349899292 C 42.22062683105469 13.12854480743408 41.25238800048828 16.51453399658203 38.67789840698242 16.51453399658203 L 2.568317413330078 16.51453399658203 C -0.006160736083984375 16.51453399658203 -0.9744110107421875 13.12854480743408 1.207427978515625 11.7554349899292 L 19.26220703125 0.3928852081298828 C 19.67839241027832 0.1309604644775391 20.1507511138916 -1.9073486328125e-06 20.62310791015625 -1.9073486328125e-06 Z" stroke="none" fill="#6f6f6f"/>
      </g>
      <g id="Path_27" data-name="Path 27" transform="translate(-23.265 -3.959)" fill="#ebff00">
        <path d="M 99.32839965820312 20.91003608703613 L 57.50494003295898 20.91003608703613 C 56.06787109375 20.91003608703613 55.31233215332031 19.98893737792969 55.10199356079102 19.20015716552734 C 54.90435028076172 18.45901679992676 55.0831413269043 17.44315719604492 56.17766189575195 16.81472778320312 L 77.08937835693359 4.807967185974121 C 77.48677062988281 4.579806804656982 77.94573211669922 4.459207057952881 78.41667175292969 4.459207057952881 C 78.88760375976562 4.459207057952881 79.34657287597656 4.579806804656982 79.74396514892578 4.807967185974121 L 93.111572265625 12.48316669464111 L 100.6556854248047 16.81472778320312 C 101.7501983642578 17.44315719604492 101.9289932250977 18.45901679992676 101.7313537597656 19.20015716552734 C 101.5210113525391 19.98893737792969 100.7654724121094 20.91003608703613 99.32839965820312 20.91003608703613 Z" stroke="none"/>
        <path d="M 78.41667175292969 4.959196090698242 C 78.03297424316406 4.959196090698242 77.66009521484375 5.056846618652344 77.33834838867188 5.2415771484375 L 56.42662048339844 17.24833679199219 C 55.70567321777344 17.66227722167969 55.39109039306641 18.3437671661377 55.58511352539062 19.07132720947266 C 55.74979400634766 19.68887710571289 56.35140228271484 20.41003799438477 57.50494384765625 20.41003799438477 L 99.32839965820312 20.41003799438477 C 100.4819412231445 20.41003799438477 101.0835571289062 19.68887710571289 101.2482299804688 19.07132720947266 C 101.4422454833984 18.3437671661377 101.1276626586914 17.66227722167969 100.4067077636719 17.24833679199219 L 92.86260223388672 12.91677665710449 L 79.49500274658203 5.2415771484375 C 79.17324829101562 5.056846618652344 78.80036163330078 4.959196090698242 78.41667175292969 4.959196090698242 M 78.41667175292969 3.959201812744141 C 78.96376800537109 3.959201812744141 79.51087951660156 4.097587585449219 79.992919921875 4.374357223510742 L 93.36053466796875 12.04955673217773 L 100.9046401977539 16.38111686706543 C 103.4317169189453 17.83207702636719 102.3102569580078 21.41003799438477 99.32839965820312 21.41003799438477 L 57.50494384765625 21.41003799438477 C 54.52307891845703 21.41003799438477 53.40161895751953 17.83207702636719 55.92868804931641 16.38111686706543 L 76.84042358398438 4.374357223510742 C 77.32246398925781 4.097587585449219 77.86956787109375 3.959201812744141 78.41667175292969 3.959201812744141 Z" stroke="none" fill="#6f6f6f"/>
      </g>
      <g id="Path_35" data-name="Path 35" transform="translate(79.038 66.08) rotate(180)" fill="url(#linear-gradient)">
        <path d="M 45.33872222900391 18.14077758789062 L 23.63133239746094 3.932050228118896 L 23.35058212280273 3.748290061950684 L 23.07413101196289 3.93845009803772 L 2.428152084350586 18.14036178588867 C 1.352139234542847 18.06478309631348 0.5000017285346985 17.17035675048828 0.5000017285346985 16.08177947998047 L 0.5000017285346985 2.563760042190552 C 0.5000017285346985 1.425800085067749 1.431291699409485 0.5000001192092896 2.575991630554199 0.5000001192092896 L 45.1969108581543 0.5000001192092896 C 46.34160995483398 0.5000001192092896 47.27290344238281 1.425800085067749 47.27290344238281 2.563760042190552 L 47.27290344238281 16.08177947998047 C 47.27290344238281 17.17237091064453 46.41755676269531 18.06809616088867 45.33872222900391 18.14077758789062 Z" stroke="none"/>
        <path d="M 2.575992584228516 1 C 1.706993103027344 1 1 1.701499938964844 1 2.563760757446289 L 1 16.08177947998047 C 1 16.85067749023438 1.562198638916016 17.49174690246582 2.300121307373047 17.62155723571777 L 22.79076194763184 3.52649974822998 L 23.34367179870605 3.146169662475586 L 23.90517234802246 3.513700485229492 L 45.46144104003906 17.62350845336914 C 46.20495986938477 17.49831771850586 46.77290344238281 16.8546257019043 46.77290344238281 16.08177947998047 L 46.77290344238281 2.563760757446289 C 46.77290344238281 1.701499938964844 46.06591033935547 1 45.1969108581543 1 L 2.575992584228516 1 M 2.575992584228516 0 L 45.1969108581543 0 C 46.61959075927734 0 47.77290344238281 1.147830963134766 47.77290344238281 2.563760757446289 L 47.77290344238281 16.08177947998047 C 47.77290344238281 17.49770927429199 46.61959075927734 18.64554023742676 45.1969108581543 18.64554023742676 L 23.35750198364258 4.350399971008301 L 2.575992584228516 18.64554023742676 C 1.153312683105469 18.64554023742676 0 17.49770927429199 0 16.08177947998047 L 0 2.563760757446289 C 0 1.147830963134766 1.153312683105469 0 2.575992584228516 0 Z" stroke="none" fill="#ebff00"/>
      </g>
      <g transform="matrix(1, 0, 0, 1, -75, -57.96)" filter="url(#Path_34)">
        <g id="Path_34-2" data-name="Path 34" transform="translate(154.04 136.71) rotate(-180)" fill="#6f6f6f">
          <path d="M 44.79818344116211 16.95083618164062 L 2.97472357749939 16.95083618164062 C 1.537653684616089 16.95083618164062 0.7821136116981506 16.02973747253418 0.5717736482620239 15.24095726013184 C 0.3741336166858673 14.49981689453125 0.5529236197471619 13.48395729064941 1.647443652153015 12.8555269241333 L 22.55916404724121 0.848767101764679 C 22.9565544128418 0.6206071376800537 23.41552352905273 0.5000070929527283 23.88645362854004 0.5000070929527283 C 24.35738372802734 0.5000070929527283 24.81634330749512 0.6206071376800537 25.2137336730957 0.848767101764679 L 38.58135223388672 8.523966789245605 L 46.12547302246094 12.8555269241333 C 47.2199821472168 13.48395729064941 47.39877319335938 14.49981689453125 47.20114517211914 15.24095726013184 C 46.99079513549805 16.02973747253418 46.23526382446289 16.95083618164062 44.79818344116211 16.95083618164062 Z" stroke="none"/>
          <path d="M 23.88645362854004 0.9999961853027344 C 23.50275421142578 0.9999961853027344 23.12987327575684 1.097646713256836 22.80813407897949 1.282377243041992 L 1.896411895751953 13.28913688659668 C 1.175464630126953 13.70307731628418 0.8608741760253906 14.38456726074219 1.054882049560547 15.11212730407715 C 1.219562530517578 15.72967720031738 1.821182250976562 16.45083618164062 2.974723815917969 16.45083618164062 L 44.79818344116211 16.45083618164062 C 45.95172500610352 16.45083618164062 46.5533332824707 15.72967720031738 46.71801376342773 15.11212730407715 C 46.91203308105469 14.38456726074219 46.59744262695312 13.70307731628418 45.87649536132812 13.28913688659668 L 38.33238220214844 8.957576751708984 L 24.96476364135742 1.282377243041992 C 24.64302444458008 1.097646713256836 24.27014350891113 0.9999961853027344 23.88645362854004 0.9999961853027344 M 23.88645172119141 1.9073486328125e-06 C 24.43355369567871 1.9073486328125e-06 24.98065376281738 0.1383876800537109 25.46269416809082 0.4151573181152344 L 38.83031463623047 8.090356826782227 L 46.37442398071289 12.42191696166992 C 48.90150451660156 13.87287712097168 47.78004455566406 17.45083618164062 44.79818344116211 17.45083618164062 L 2.974723815917969 17.45083618164062 C -0.007137298583984375 17.45083618164062 -1.128604888916016 13.87287712097168 1.398483276367188 12.42191696166992 L 22.31020355224609 0.4151573181152344 C 22.7922477722168 0.1383876800537109 23.33935165405273 1.9073486328125e-06 23.88645172119141 1.9073486328125e-06 Z" stroke="none" fill="#ebff00"/>
        </g>
      </g>
    </g>
    <g id="Rectangle_27" data-name="Rectangle 27" transform="translate(126 26)" fill="#bfbfbf" stroke="#707070" stroke-width="1">
      <rect width="80" height="4" stroke="none"/>
      <rect x="0.5" y="0.5" width="79" height="3" fill="none"/>
    </g>
    <g id="Rectangle_28" data-name="Rectangle 28" transform="translate(126 37)" fill="#bfbfbf" stroke="#707070" stroke-width="1">
      <rect width="80" height="4" stroke="none"/>
      <rect x="0.5" y="0.5" width="79" height="3" fill="none"/>
    </g>
    <g id="Rectangle_29" data-name="Rectangle 29" transform="translate(126 49)" fill="#bfbfbf" stroke="#707070" stroke-width="1">
      <rect width="80" height="4" stroke="none"/>
      <rect x="0.5" y="0.5" width="79" height="3" fill="none"/>
    </g>
    <g id="Rectangle_30" data-name="Rectangle 30" transform="translate(126 60)" fill="#bfbfbf" stroke="#707070" stroke-width="1">
      <rect width="80" height="4" stroke="none"/>
      <rect x="0.5" y="0.5" width="79" height="3" fill="none"/>
    </g>
    <g id="Rectangle_31" data-name="Rectangle 31" transform="translate(126 71)" fill="#bfbfbf" stroke="#707070" stroke-width="1">
      <rect width="80" height="4" stroke="none"/>
      <rect x="0.5" y="0.5" width="79" height="3" fill="none"/>
    </g>
    <g id="Rectangle_32" data-name="Rectangle 32" transform="translate(126 82)" fill="#bfbfbf" stroke="#707070" stroke-width="1">
      <rect width="80" height="4" stroke="none"/>
      <rect x="0.5" y="0.5" width="79" height="3" fill="none"/>
    </g>
    <g id="Rectangle_33" data-name="Rectangle 33" transform="translate(126 91)" fill="#bfbfbf" stroke="#707070" stroke-width="1">
      <rect width="80" height="4" stroke="none"/>
      <rect x="0.5" y="0.5" width="79" height="3" fill="none"/>
    </g>
    <g id="Rectangle_34" data-name="Rectangle 34" transform="translate(126 102)" fill="#bfbfbf" stroke="#707070" stroke-width="1">
      <rect width="80" height="4" stroke="none"/>
      <rect x="0.5" y="0.5" width="79" height="3" fill="none"/>
    </g>
    <g id="Rectangle_35" data-name="Rectangle 35" transform="translate(27 114)" fill="#bfbfbf" stroke="#707070" stroke-width="1">
      <rect width="179" height="4" stroke="none"/>
      <rect x="0.5" y="0.5" width="178" height="3" fill="none"/>
    </g>
    <g id="Rectangle_36" data-name="Rectangle 36" transform="translate(27 125)" fill="#bfbfbf" stroke="#707070" stroke-width="1">
      <rect width="179" height="4" stroke="none"/>
      <rect x="0.5" y="0.5" width="178" height="3" fill="none"/>
    </g>
    <g id="Rectangle_37" data-name="Rectangle 37" transform="translate(27 136)" fill="#bfbfbf" stroke="#707070" stroke-width="1">
      <rect width="179" height="4" stroke="none"/>
      <rect x="0.5" y="0.5" width="178" height="3" fill="none"/>
    </g>
  </g>
</svg>
