<svg width="189" height="42" viewBox="0 0 189 42" fill="none" xmlns="http://www.w3.org/2000/svg">
<path d="M27.384 6.2L21.888 23H17.712L14.016 11.624L10.2 23H6.048L0.528 6.2H4.56L8.352 18.008L12.312 6.2H15.912L19.752 18.104L23.664 6.2H27.384ZM34.4736 23.192C33.1136 23.192 31.8896 22.912 30.8016 22.352C29.7296 21.776 28.8896 20.984 28.2816 19.976C27.6736 18.968 27.3696 17.824 27.3696 16.544C27.3696 15.264 27.6736 14.12 28.2816 13.112C28.8896 12.104 29.7296 11.32 30.8016 10.76C31.8896 10.184 33.1136 9.896 34.4736 9.896C35.8336 9.896 37.0496 10.184 38.1216 10.76C39.1936 11.32 40.0336 12.104 40.6416 13.112C41.2496 14.12 41.5536 15.264 41.5536 16.544C41.5536 17.824 41.2496 18.968 40.6416 19.976C40.0336 20.984 39.1936 21.776 38.1216 22.352C37.0496 22.912 35.8336 23.192 34.4736 23.192ZM34.4736 20.12C35.4336 20.12 36.2176 19.8 36.8256 19.16C37.4496 18.504 37.7616 17.632 37.7616 16.544C37.7616 15.456 37.4496 14.592 36.8256 13.952C36.2176 13.296 35.4336 12.968 34.4736 12.968C33.5136 12.968 32.7216 13.296 32.0976 13.952C31.4736 14.592 31.1616 15.456 31.1616 16.544C31.1616 17.632 31.4736 18.504 32.0976 19.16C32.7216 19.8 33.5136 20.12 34.4736 20.12ZM44.0561 5.192H47.8001V23H44.0561V5.192ZM55.3789 10.376H58.6909V13.256H55.4749V23H51.7309V13.256H49.7389V10.376H51.7309V9.8C51.7309 8.328 52.1629 7.16 53.0269 6.296C53.9069 5.432 55.1389 5 56.7229 5C57.2829 5 57.8109 5.064 58.3069 5.192C58.8189 5.304 59.2429 5.472 59.5789 5.696L58.5949 8.408C58.1629 8.104 57.6589 7.952 57.0829 7.952C55.9469 7.952 55.3789 8.576 55.3789 9.824V10.376Z" fill="black"/>
<path d="M141.032 23.288C139.32 23.288 137.768 22.92 136.376 22.184C135 21.432 133.912 20.4 133.112 19.088C132.328 17.76 131.936 16.264 131.936 14.6C131.936 12.936 132.328 11.448 133.112 10.136C133.912 8.808 135 7.776 136.376 7.04C137.768 6.288 139.328 5.912 141.056 5.912C142.512 5.912 143.824 6.168 144.992 6.68C146.176 7.192 147.168 7.928 147.968 8.888L145.472 11.192C144.336 9.88 142.928 9.224 141.248 9.224C140.208 9.224 139.28 9.456 138.464 9.92C137.648 10.368 137.008 11 136.544 11.816C136.096 12.632 135.872 13.56 135.872 14.6C135.872 15.64 136.096 16.568 136.544 17.384C137.008 18.2 137.648 18.84 138.464 19.304C139.28 19.752 140.208 19.976 141.248 19.976C142.928 19.976 144.336 19.312 145.472 17.984L147.968 20.288C147.168 21.264 146.176 22.008 144.992 22.52C143.808 23.032 142.488 23.288 141.032 23.288ZM150.33 5.192H154.074V23H150.33V5.192ZM170.556 10.088V23H167.004V21.464C166.508 22.024 165.916 22.456 165.228 22.76C164.54 23.048 163.796 23.192 162.996 23.192C161.3 23.192 159.956 22.704 158.964 21.728C157.972 20.752 157.476 19.304 157.476 17.384V10.088H161.22V16.832C161.22 18.912 162.092 19.952 163.836 19.952C164.732 19.952 165.452 19.664 165.996 19.088C166.54 18.496 166.812 17.624 166.812 16.472V10.088H170.556ZM181.657 9.896C182.857 9.896 183.945 10.176 184.921 10.736C185.913 11.28 186.689 12.056 187.249 13.064C187.809 14.056 188.089 15.216 188.089 16.544C188.089 17.872 187.809 19.04 187.249 20.048C186.689 21.04 185.913 21.816 184.921 22.376C183.945 22.92 182.857 23.192 181.657 23.192C179.881 23.192 178.529 22.632 177.601 21.512V23H174.025V5.192H177.769V11.456C178.713 10.416 180.009 9.896 181.657 9.896ZM181.009 20.12C181.969 20.12 182.753 19.8 183.361 19.16C183.985 18.504 184.297 17.632 184.297 16.544C184.297 15.456 183.985 14.592 183.361 13.952C182.753 13.296 181.969 12.968 181.009 12.968C180.049 12.968 179.257 13.296 178.633 13.952C178.025 14.592 177.721 15.456 177.721 16.544C177.721 17.632 178.025 18.504 178.633 19.16C179.257 19.8 180.049 20.12 181.009 20.12Z" fill="black"/>
<rect x="62" width="67" height="29" rx="5" fill="#F29B30"/>
<path d="M73.032 23.288C71.32 23.288 69.768 22.92 68.376 22.184C67 21.432 65.912 20.4 65.112 19.088C64.328 17.76 63.936 16.264 63.936 14.6C63.936 12.936 64.328 11.448 65.112 10.136C65.912 8.808 67 7.776 68.376 7.04C69.768 6.288 71.328 5.912 73.056 5.912C74.512 5.912 75.824 6.168 76.992 6.68C78.176 7.192 79.168 7.928 79.968 8.888L77.472 11.192C76.336 9.88 74.928 9.224 73.248 9.224C72.208 9.224 71.28 9.456 70.464 9.92C69.648 10.368 69.008 11 68.544 11.816C68.096 12.632 67.872 13.56 67.872 14.6C67.872 15.64 68.096 16.568 68.544 17.384C69.008 18.2 69.648 18.84 70.464 19.304C71.28 19.752 72.208 19.976 73.248 19.976C74.928 19.976 76.336 19.312 77.472 17.984L79.968 20.288C79.168 21.264 78.176 22.008 76.992 22.52C75.808 23.032 74.488 23.288 73.032 23.288ZM88.0283 23.192C86.6683 23.192 85.4443 22.912 84.3563 22.352C83.2843 21.776 82.4443 20.984 81.8363 19.976C81.2283 18.968 80.9243 17.824 80.9243 16.544C80.9243 15.264 81.2283 14.12 81.8363 13.112C82.4443 12.104 83.2843 11.32 84.3563 10.76C85.4443 10.184 86.6683 9.896 88.0283 9.896C89.3883 9.896 90.6043 10.184 91.6763 10.76C92.7483 11.32 93.5883 12.104 94.1963 13.112C94.8043 14.12 95.1083 15.264 95.1083 16.544C95.1083 17.824 94.8043 18.968 94.1963 19.976C93.5883 20.984 92.7483 21.776 91.6763 22.352C90.6043 22.912 89.3883 23.192 88.0283 23.192ZM88.0283 20.12C88.9883 20.12 89.7723 19.8 90.3803 19.16C91.0043 18.504 91.3163 17.632 91.3163 16.544C91.3163 15.456 91.0043 14.592 90.3803 13.952C89.7723 13.296 88.9883 12.968 88.0283 12.968C87.0683 12.968 86.2763 13.296 85.6523 13.952C85.0283 14.592 84.7163 15.456 84.7163 16.544C84.7163 17.632 85.0283 18.504 85.6523 19.16C86.2763 19.8 87.0683 20.12 88.0283 20.12ZM110.763 5.192V23H107.187V21.512C106.259 22.632 104.915 23.192 103.155 23.192C101.939 23.192 100.835 22.92 99.8428 22.376C98.8668 21.832 98.0988 21.056 97.5388 20.048C96.9788 19.04 96.6988 17.872 96.6988 16.544C96.6988 15.216 96.9788 14.048 97.5388 13.04C98.0988 12.032 98.8668 11.256 99.8428 10.712C100.835 10.168 101.939 9.896 103.155 9.896C104.803 9.896 106.091 10.416 107.019 11.456V5.192H110.763ZM103.803 20.12C104.747 20.12 105.531 19.8 106.155 19.16C106.779 18.504 107.091 17.632 107.091 16.544C107.091 15.456 106.779 14.592 106.155 13.952C105.531 13.296 104.747 12.968 103.803 12.968C102.843 12.968 102.051 13.296 101.427 13.952C100.803 14.592 100.491 15.456 100.491 16.544C100.491 17.632 100.803 18.504 101.427 19.16C102.051 19.8 102.843 20.12 103.803 20.12ZM126.876 16.592C126.876 16.64 126.852 16.976 126.804 17.6H117.036C117.212 18.4 117.628 19.032 118.284 19.496C118.94 19.96 119.756 20.192 120.732 20.192C121.404 20.192 121.996 20.096 122.508 19.904C123.036 19.696 123.524 19.376 123.972 18.944L125.964 21.104C124.748 22.496 122.972 23.192 120.636 23.192C119.18 23.192 117.892 22.912 116.772 22.352C115.652 21.776 114.788 20.984 114.18 19.976C113.572 18.968 113.268 17.824 113.268 16.544C113.268 15.28 113.564 14.144 114.156 13.136C114.764 12.112 115.588 11.32 116.628 10.76C117.684 10.184 118.86 9.896 120.156 9.896C121.42 9.896 122.564 10.168 123.588 10.712C124.612 11.256 125.412 12.04 125.988 13.064C126.58 14.072 126.876 15.248 126.876 16.592ZM120.18 12.728C119.332 12.728 118.62 12.968 118.044 13.448C117.468 13.928 117.116 14.584 116.988 15.416H123.348C123.22 14.6 122.868 13.952 122.292 13.472C121.716 12.976 121.012 12.728 120.18 12.728Z" fill="black"/>
<path d="M15.644 41.048C14.836 41.048 14.144 40.908 13.568 40.628C13 40.34 12.568 39.94 12.272 39.428C11.976 38.908 11.828 38.308 11.828 37.628C11.828 36.716 12.032 35.872 12.44 35.096C12.856 34.32 13.448 33.704 14.216 33.248C14.984 32.784 15.876 32.552 16.892 32.552C17.532 32.552 18.1 32.648 18.596 32.84C19.092 33.032 19.48 33.304 19.76 33.656L19.472 33.908C18.912 33.252 18.044 32.924 16.868 32.924C15.948 32.924 15.136 33.136 14.432 33.56C13.728 33.984 13.184 34.552 12.8 35.264C12.424 35.976 12.236 36.76 12.236 37.616C12.236 38.552 12.532 39.296 13.124 39.848C13.716 40.4 14.568 40.676 15.68 40.676C16.856 40.676 17.812 40.332 18.548 39.644L18.788 39.944C18.42 40.288 17.96 40.56 17.408 40.76C16.864 40.952 16.276 41.048 15.644 41.048ZM22.0387 32.096H22.4347L20.6587 41H20.2627L22.0387 32.096ZM29.8973 34.772L28.6613 41H28.2773L28.5533 39.632C28.2573 40.104 27.8773 40.456 27.4133 40.688C26.9573 40.92 26.4413 41.036 25.8653 41.036C25.1613 41.036 24.6253 40.864 24.2573 40.52C23.8893 40.176 23.7053 39.7 23.7053 39.092C23.7053 38.876 23.7293 38.648 23.7773 38.408L24.4973 34.772H24.8933L24.1733 38.42C24.1253 38.644 24.1013 38.856 24.1013 39.056C24.1013 39.576 24.2573 39.976 24.5693 40.256C24.8813 40.536 25.3413 40.676 25.9493 40.676C26.7093 40.676 27.3373 40.464 27.8333 40.04C28.3293 39.616 28.6613 39.004 28.8293 38.204L29.5013 34.772H29.8973ZM35.4415 34.724C36.2575 34.724 36.9055 34.956 37.3855 35.42C37.8735 35.876 38.1175 36.5 38.1175 37.292C38.1175 37.996 37.9655 38.636 37.6615 39.212C37.3575 39.78 36.9375 40.228 36.4015 40.556C35.8655 40.876 35.2615 41.036 34.5895 41.036C33.8935 41.036 33.3255 40.876 32.8855 40.556C32.4535 40.236 32.1775 39.78 32.0575 39.188L31.6975 41H31.3135L33.0895 32.096H33.4855L32.6695 36.164C32.9815 35.708 33.3735 35.356 33.8455 35.108C34.3255 34.852 34.8575 34.724 35.4415 34.724ZM34.6135 40.676C35.2055 40.676 35.7375 40.532 36.2095 40.244C36.6815 39.948 37.0495 39.544 37.3135 39.032C37.5855 38.52 37.7215 37.944 37.7215 37.304C37.7215 36.6 37.5135 36.056 37.0975 35.672C36.6895 35.288 36.1135 35.096 35.3695 35.096C34.7775 35.096 34.2455 35.24 33.7735 35.528C33.3095 35.816 32.9415 36.22 32.6695 36.74C32.4055 37.252 32.2735 37.828 32.2735 38.468C32.2735 39.172 32.4775 39.716 32.8855 40.1C33.3015 40.484 33.8775 40.676 34.6135 40.676ZM55.3108 32.6L50.7628 41H50.3428L49.1788 33.212L44.8828 41H44.4748L43.2868 32.6H43.6828L44.7868 40.436L49.0948 32.6H49.4788L50.6428 40.412L54.8908 32.6H55.3108ZM56.4323 34.772H56.8283L55.5923 41H55.1963L56.4323 34.772ZM57.0083 33.14C56.9043 33.14 56.8163 33.104 56.7443 33.032C56.6803 32.96 56.6483 32.876 56.6483 32.78C56.6483 32.668 56.6883 32.572 56.7683 32.492C56.8483 32.404 56.9443 32.36 57.0563 32.36C57.1603 32.36 57.2483 32.396 57.3203 32.468C57.3923 32.54 57.4283 32.624 57.4283 32.72C57.4283 32.832 57.3843 32.932 57.2963 33.02C57.2163 33.1 57.1203 33.14 57.0083 33.14ZM59.1069 39.272C59.0669 39.472 59.0469 39.632 59.0469 39.752C59.0469 40.376 59.3869 40.688 60.0669 40.688C60.4589 40.688 60.8109 40.564 61.1229 40.316L61.2789 40.604C61.1029 40.748 60.9029 40.856 60.6789 40.928C60.4549 41 60.2269 41.036 59.9949 41.036C59.5629 41.036 59.2309 40.928 58.9989 40.712C58.7669 40.496 58.6509 40.192 58.6509 39.8C58.6509 39.632 58.6669 39.472 58.6989 39.32L59.5389 35.12H58.3629L58.4229 34.772H59.5989L59.8749 33.404H60.2709L59.9949 34.772H62.0469L61.9869 35.12H59.9349L59.1069 39.272ZM69.9197 32.096L68.1437 41H67.7477L68.0357 39.584C67.7317 40.04 67.3397 40.396 66.8597 40.652C66.3797 40.908 65.8437 41.036 65.2517 41.036C64.4357 41.036 63.7837 40.808 63.2957 40.352C62.8157 39.888 62.5757 39.264 62.5757 38.48C62.5757 37.768 62.7277 37.128 63.0317 36.56C63.3357 35.992 63.7557 35.544 64.2917 35.216C64.8277 34.888 65.4317 34.724 66.1037 34.724C66.7997 34.724 67.3637 34.884 67.7957 35.204C68.2277 35.524 68.5037 35.98 68.6237 36.572L69.5237 32.096H69.9197ZM65.3237 40.676C65.9157 40.676 66.4437 40.532 66.9077 40.244C67.3797 39.956 67.7477 39.556 68.0117 39.044C68.2837 38.524 68.4197 37.944 68.4197 37.304C68.4197 36.6 68.2117 36.056 67.7957 35.672C67.3877 35.288 66.8157 35.096 66.0797 35.096C65.4877 35.096 64.9557 35.244 64.4837 35.54C64.0117 35.828 63.6397 36.228 63.3677 36.74C63.1037 37.252 62.9717 37.828 62.9717 38.468C62.9717 39.172 63.1757 39.716 63.5837 40.1C63.9997 40.484 64.5797 40.676 65.3237 40.676ZM74.8499 34.724C75.5619 34.724 76.1059 34.9 76.4819 35.252C76.8579 35.596 77.0459 36.072 77.0459 36.68C77.0459 36.888 77.0219 37.112 76.9739 37.352L76.2419 41H75.8459L76.5779 37.352C76.6179 37.168 76.6379 36.964 76.6379 36.74C76.6379 36.212 76.4779 35.808 76.1579 35.528C75.8459 35.24 75.3819 35.096 74.7659 35.096C74.0059 35.096 73.3739 35.308 72.8699 35.732C72.3659 36.156 72.0339 36.768 71.8739 37.568L71.1899 41H70.7939L72.5699 32.096H72.9659L72.1619 36.104C72.4579 35.64 72.8339 35.296 73.2899 35.072C73.7539 34.84 74.2739 34.724 74.8499 34.724ZM86.6202 32.6C87.5322 32.6 88.2362 32.796 88.7322 33.188C89.2282 33.58 89.4762 34.14 89.4762 34.868C89.4762 35.932 89.1362 36.752 88.4562 37.328C87.7842 37.896 86.8482 38.18 85.6482 38.18H83.0442L82.4802 41H82.0722L83.7522 32.6H86.6202ZM85.6482 37.808C86.7442 37.808 87.5882 37.56 88.1802 37.064C88.7802 36.568 89.0802 35.844 89.0802 34.892C89.0802 34.276 88.8642 33.804 88.4322 33.476C88.0082 33.14 87.4042 32.972 86.6202 32.972H84.0882L83.1162 37.808H85.6482ZM91.4153 36.224C91.9753 35.224 92.8793 34.724 94.1273 34.724L94.0553 35.12H93.9113C93.1673 35.12 92.5593 35.344 92.0873 35.792C91.6153 36.24 91.2913 36.9 91.1153 37.772L90.4673 41H90.0713L91.3073 34.772H91.7033L91.4153 36.224ZM95.8542 34.772H96.2502L95.0142 41H94.6182L95.8542 34.772ZM96.4302 33.14C96.3262 33.14 96.2382 33.104 96.1662 33.032C96.1022 32.96 96.0702 32.876 96.0702 32.78C96.0702 32.668 96.1102 32.572 96.1902 32.492C96.2702 32.404 96.3662 32.36 96.4782 32.36C96.5822 32.36 96.6702 32.396 96.7422 32.468C96.8142 32.54 96.8502 32.624 96.8502 32.72C96.8502 32.832 96.8062 32.932 96.7182 33.02C96.6382 33.1 96.5422 33.14 96.4302 33.14ZM103.737 34.772L99.6568 41H99.2488L97.6528 34.772H98.0608L99.5368 40.556L103.305 34.772H103.737ZM110.36 34.772L109.124 41H108.728L109.016 39.584C108.712 40.04 108.32 40.396 107.84 40.652C107.36 40.908 106.824 41.036 106.232 41.036C105.416 41.036 104.764 40.808 104.276 40.352C103.796 39.888 103.556 39.264 103.556 38.48C103.556 37.768 103.708 37.128 104.012 36.56C104.316 35.992 104.736 35.544 105.272 35.216C105.808 34.888 106.412 34.724 107.084 34.724C107.78 34.724 108.344 34.884 108.776 35.204C109.208 35.524 109.484 35.976 109.604 36.56L109.964 34.772H110.36ZM106.304 40.676C106.896 40.676 107.424 40.532 107.888 40.244C108.36 39.956 108.728 39.556 108.992 39.044C109.264 38.524 109.4 37.944 109.4 37.304C109.4 36.6 109.192 36.056 108.776 35.672C108.368 35.288 107.796 35.096 107.06 35.096C106.468 35.096 105.936 35.244 105.464 35.54C104.992 35.828 104.62 36.228 104.348 36.74C104.084 37.252 103.952 37.828 103.952 38.468C103.952 39.172 104.156 39.716 104.564 40.1C104.98 40.484 105.56 40.676 106.304 40.676ZM112.626 39.272C112.586 39.472 112.566 39.632 112.566 39.752C112.566 40.376 112.906 40.688 113.586 40.688C113.978 40.688 114.33 40.564 114.642 40.316L114.798 40.604C114.622 40.748 114.422 40.856 114.198 40.928C113.974 41 113.746 41.036 113.514 41.036C113.082 41.036 112.75 40.928 112.518 40.712C112.286 40.496 112.17 40.192 112.17 39.8C112.17 39.632 112.186 39.472 112.218 39.32L113.058 35.12H111.882L111.942 34.772H113.118L113.394 33.404H113.79L113.514 34.772H115.566L115.506 35.12H113.454L112.626 39.272ZM116.515 37.94C116.499 38.164 116.491 38.332 116.491 38.444C116.491 39.164 116.699 39.716 117.115 40.1C117.531 40.484 118.135 40.676 118.927 40.676C119.375 40.676 119.791 40.6 120.175 40.448C120.559 40.288 120.879 40.068 121.135 39.788L121.327 40.064C121.071 40.368 120.727 40.608 120.295 40.784C119.863 40.952 119.395 41.036 118.891 41.036C118.019 41.036 117.335 40.812 116.839 40.364C116.351 39.908 116.107 39.272 116.107 38.456C116.107 37.76 116.251 37.128 116.539 36.56C116.835 35.984 117.239 35.536 117.751 35.216C118.263 34.888 118.835 34.724 119.467 34.724C120.267 34.724 120.895 34.952 121.351 35.408C121.815 35.864 122.047 36.492 122.047 37.292C122.047 37.508 122.027 37.724 121.987 37.94H116.515ZM119.455 35.084C118.735 35.084 118.111 35.316 117.583 35.78C117.063 36.244 116.727 36.852 116.575 37.604H121.663C121.679 37.428 121.687 37.3 121.687 37.22C121.687 36.548 121.483 36.024 121.075 35.648C120.667 35.272 120.127 35.084 119.455 35.084ZM136.66 32.6L134.98 41H134.584L136.084 33.476L131.2 39.836H130.996L128.512 33.392L126.988 41H126.592L128.272 32.6H128.608L131.176 39.296L136.3 32.6H136.66ZM138.136 37.94C138.12 38.164 138.112 38.332 138.112 38.444C138.112 39.164 138.32 39.716 138.736 40.1C139.152 40.484 139.756 40.676 140.548 40.676C140.996 40.676 141.412 40.6 141.796 40.448C142.18 40.288 142.5 40.068 142.756 39.788L142.948 40.064C142.692 40.368 142.348 40.608 141.916 40.784C141.484 40.952 141.016 41.036 140.512 41.036C139.64 41.036 138.956 40.812 138.46 40.364C137.972 39.908 137.728 39.272 137.728 38.456C137.728 37.76 137.872 37.128 138.16 36.56C138.456 35.984 138.86 35.536 139.372 35.216C139.884 34.888 140.456 34.724 141.088 34.724C141.888 34.724 142.516 34.952 142.972 35.408C143.436 35.864 143.668 36.492 143.668 37.292C143.668 37.508 143.648 37.724 143.608 37.94H138.136ZM141.076 35.084C140.356 35.084 139.732 35.316 139.204 35.78C138.684 36.244 138.348 36.852 138.196 37.604H143.284C143.3 37.428 143.308 37.3 143.308 37.22C143.308 36.548 143.104 36.024 142.696 35.648C142.288 35.272 141.748 35.084 141.076 35.084ZM153.83 34.724C154.534 34.724 155.066 34.9 155.426 35.252C155.794 35.596 155.978 36.072 155.978 36.68C155.978 36.888 155.954 37.112 155.906 37.352L155.174 41H154.778L155.51 37.352C155.558 37.12 155.582 36.908 155.582 36.716C155.582 36.204 155.426 35.808 155.114 35.528C154.81 35.24 154.362 35.096 153.77 35.096C153.05 35.096 152.442 35.296 151.946 35.696C151.458 36.088 151.142 36.656 150.998 37.4L150.266 41H149.87L150.602 37.352C150.65 37.12 150.674 36.908 150.674 36.716C150.674 36.196 150.522 35.796 150.218 35.516C149.914 35.236 149.466 35.096 148.874 35.096C148.138 35.096 147.522 35.308 147.026 35.732C146.538 36.156 146.214 36.768 146.054 37.568L145.37 41H144.974L146.21 34.772H146.606L146.342 36.104C146.926 35.184 147.794 34.724 148.946 34.724C149.554 34.724 150.034 34.86 150.386 35.132C150.746 35.404 150.966 35.784 151.046 36.272C151.35 35.76 151.738 35.376 152.21 35.12C152.69 34.856 153.23 34.724 153.83 34.724ZM161.899 34.724C162.715 34.724 163.362 34.956 163.842 35.42C164.331 35.876 164.575 36.5 164.575 37.292C164.575 37.996 164.423 38.636 164.118 39.212C163.815 39.78 163.395 40.228 162.859 40.556C162.323 40.876 161.719 41.036 161.047 41.036C160.351 41.036 159.783 40.876 159.343 40.556C158.911 40.236 158.635 39.78 158.515 39.188L158.155 41H157.771L159.547 32.096H159.943L159.127 36.164C159.439 35.708 159.831 35.356 160.303 35.108C160.783 34.852 161.315 34.724 161.899 34.724ZM161.071 40.676C161.663 40.676 162.195 40.532 162.667 40.244C163.139 39.948 163.507 39.544 163.771 39.032C164.043 38.52 164.179 37.944 164.179 37.304C164.179 36.6 163.971 36.056 163.555 35.672C163.147 35.288 162.571 35.096 161.827 35.096C161.235 35.096 160.703 35.24 160.23 35.528C159.767 35.816 159.399 36.22 159.127 36.74C158.863 37.252 158.731 37.828 158.731 38.468C158.731 39.172 158.935 39.716 159.343 40.1C159.759 40.484 160.335 40.676 161.071 40.676ZM166.121 37.94C166.105 38.164 166.097 38.332 166.097 38.444C166.097 39.164 166.305 39.716 166.721 40.1C167.137 40.484 167.741 40.676 168.533 40.676C168.981 40.676 169.397 40.6 169.781 40.448C170.165 40.288 170.485 40.068 170.741 39.788L170.933 40.064C170.677 40.368 170.333 40.608 169.901 40.784C169.469 40.952 169.001 41.036 168.497 41.036C167.625 41.036 166.941 40.812 166.445 40.364C165.957 39.908 165.713 39.272 165.713 38.456C165.713 37.76 165.857 37.128 166.145 36.56C166.441 35.984 166.845 35.536 167.357 35.216C167.869 34.888 168.441 34.724 169.073 34.724C169.873 34.724 170.501 34.952 170.957 35.408C171.421 35.864 171.653 36.492 171.653 37.292C171.653 37.508 171.633 37.724 171.593 37.94H166.121ZM169.061 35.084C168.341 35.084 167.717 35.316 167.189 35.78C166.669 36.244 166.333 36.852 166.181 37.604H171.269C171.285 37.428 171.293 37.3 171.293 37.22C171.293 36.548 171.089 36.024 170.681 35.648C170.273 35.272 169.733 35.084 169.061 35.084ZM174.302 36.224C174.862 35.224 175.766 34.724 177.014 34.724L176.942 35.12H176.798C176.054 35.12 175.446 35.344 174.974 35.792C174.502 36.24 174.178 36.9 174.002 37.772L173.354 41H172.958L174.194 34.772H174.59L174.302 36.224ZM179.148 41.036C178.676 41.036 178.22 40.964 177.78 40.82C177.348 40.668 177.016 40.472 176.784 40.232L177.024 39.92C177.264 40.152 177.576 40.34 177.96 40.484C178.344 40.62 178.748 40.688 179.172 40.688C179.86 40.688 180.396 40.56 180.78 40.304C181.164 40.048 181.356 39.696 181.356 39.248C181.356 38.992 181.28 38.792 181.128 38.648C180.976 38.496 180.788 38.384 180.564 38.312C180.34 38.232 180.04 38.152 179.664 38.072C179.24 37.984 178.896 37.896 178.632 37.808C178.376 37.712 178.156 37.564 177.972 37.364C177.796 37.164 177.708 36.896 177.708 36.56C177.708 36.008 177.936 35.564 178.392 35.228C178.856 34.892 179.468 34.724 180.228 34.724C180.62 34.724 180.996 34.784 181.356 34.904C181.724 35.016 182.016 35.168 182.232 35.36L182.016 35.66C181.792 35.476 181.52 35.336 181.2 35.24C180.88 35.136 180.544 35.084 180.192 35.084C179.552 35.084 179.044 35.216 178.668 35.48C178.292 35.744 178.104 36.096 178.104 36.536C178.104 36.8 178.18 37.008 178.332 37.16C178.484 37.312 178.668 37.424 178.884 37.496C179.108 37.568 179.42 37.648 179.82 37.736C180.252 37.832 180.592 37.924 180.84 38.012C181.096 38.1 181.312 38.24 181.488 38.432C181.664 38.624 181.752 38.884 181.752 39.212C181.752 39.78 181.516 40.228 181.044 40.556C180.58 40.876 179.948 41.036 179.148 41.036Z" fill="black"/>
</svg>
