<svg xmlns="http://www.w3.org/2000/svg" xmlns:xlink="http://www.w3.org/1999/xlink" width="825.02" height="800.748" viewBox="0 0 825.02 800.748">
  <defs>
    <linearGradient id="linear-gradient" x1="0.5" x2="0.5" y2="1" gradientUnits="objectBoundingBox">
      <stop offset="0" stop-color="#6f6f6f"/>
      <stop offset="1" stop-color="#404040"/>
    </linearGradient>
    <filter id="Path_33" x="0" y="501" width="558" height="299.748" filterUnits="userSpaceOnUse">
      <feOffset dy="50" input="SourceAlpha"/>
      <feGaussianBlur stdDeviation="25" result="blur"/>
      <feFlood flood-opacity="0.161"/>
      <feComposite operator="in" in2="blur"/>
      <feComposite in="SourceGraphic"/>
    </filter>
    <filter id="Path_26" x="533.98" y="296.551" width="291.041" height="503.94" filterUnits="userSpaceOnUse">
      <feOffset dy="50" input="SourceAlpha"/>
      <feGaussianBlur stdDeviation="25" result="blur-2"/>
      <feFlood flood-opacity="0.161"/>
      <feComposite operator="in" in2="blur-2"/>
      <feComposite in="SourceGraphic"/>
    </filter>
    <linearGradient id="linear-gradient-2" x1="0.5" x2="0.5" y2="0.812" gradientUnits="objectBoundingBox">
      <stop offset="0" stop-color="#ebff00"/>
      <stop offset="1" stop-color="#b2b200"/>
    </linearGradient>
    <filter id="Path_21" x="267" y="78.041" width="558" height="407.267" filterUnits="userSpaceOnUse">
      <feOffset dy="50" input="SourceAlpha"/>
      <feGaussianBlur stdDeviation="25" result="blur-3"/>
      <feFlood flood-opacity="0.161"/>
      <feComposite operator="in" in2="blur-3"/>
      <feComposite in="SourceGraphic"/>
    </filter>
    <filter id="Path_34" x="267" y="501" width="558" height="299.748" filterUnits="userSpaceOnUse">
      <feOffset dy="50" input="SourceAlpha"/>
      <feGaussianBlur stdDeviation="25" result="blur-4"/>
      <feFlood flood-opacity="0.161"/>
      <feComposite operator="in" in2="blur-4"/>
      <feComposite in="SourceGraphic"/>
    </filter>
  </defs>
  <g id="WieQuee-logo" transform="translate(74.98)">
    <g id="Path_30" data-name="Path 30" transform="translate(-3.959 666.02) rotate(-90)" fill="#404040">
      <path d="M 386.4306945800781 144.5000152587891 L 76.56936645507812 144.5000152587891 C 71.48981475830078 144.5000152587891 66.83404541015625 142.9124603271484 63.10536193847656 139.9090118408203 C 61.38118362426758 138.5201416015625 59.88163757324219 136.8547821044922 58.64841079711914 134.9591827392578 C 57.44481658935547 133.1091461181641 56.52195358276367 131.0830535888672 55.90541076660156 128.9372406005859 C 55.28886413574219 126.791374206543 54.99549865722656 124.5844192504883 55.03345489501953 122.3776473999023 C 55.07236480712891 120.1165084838867 55.459228515625 117.9091415405273 56.18318176269531 115.8169174194336 C 57.74886322021484 111.292236328125 60.85186386108398 107.4754638671875 65.15668487548828 104.7790985107422 L 220.0873565673828 7.73828125 C 223.5123138427734 5.593099117279053 227.4587249755859 4.459190368652344 231.5000457763672 4.459190368652344 C 235.5413208007812 4.459190368652344 239.4877319335938 5.593099117279053 242.9126892089844 7.73828125 L 341.9505920410156 69.77064514160156 L 397.8433532714844 104.7790985107422 C 402.148193359375 107.4754638671875 405.2511901855469 111.292236328125 406.8168640136719 115.8169174194336 C 407.5408325195312 117.9091415405273 407.9276733398438 120.1165084838867 407.9665832519531 122.3776473999023 C 408.0045471191406 124.5844192504883 407.711181640625 126.791374206543 407.0946350097656 128.9372406005859 C 406.4780883789062 131.0830535888672 405.5552368164062 133.1091461181641 404.3516235351562 134.9591827392578 C 403.118408203125 136.8547821044922 401.6188659667969 138.5201416015625 399.8946838378906 139.9090118408203 C 396.1659851074219 142.9124603271484 391.5102233886719 144.5000152587891 386.4306945800781 144.5000152587891 Z" stroke="none"/>
      <path d="M 231.5 4.95916748046875 C 227.5526428222656 4.95916748046875 223.697998046875 6.066726684570312 220.3527526855469 8.162078857421875 L 65.42208862304688 105.2028732299805 C 61.21505737304688 107.8379669189453 58.18365478515625 111.5647735595703 56.65570068359375 115.9803695678711 C 55.94900512695312 118.0227203369141 55.5714111328125 120.1779174804688 55.53338623046875 122.3862228393555 C 55.49624633789062 124.5433731079102 55.78311157226562 126.7009735107422 56.38595581054688 128.7991180419922 C 56.98873901367188 130.897216796875 57.8909912109375 132.8780212402344 59.0675048828125 134.6864776611328 C 60.27191162109375 136.5377655029297 61.7359619140625 138.1638793945312 63.41900634765625 139.5195770263672 C 67.05780029296875 142.4506683349609 71.60516357421875 143.9999694824219 76.5693359375 143.9999694824219 L 386.4306945800781 143.9999694824219 C 391.3948974609375 143.9999694824219 395.9421997070312 142.4506683349609 399.5809936523438 139.5195770263672 C 401.2640380859375 138.1638793945312 402.7280883789062 136.5378265380859 403.9324951171875 134.6865234375 C 405.1090393066406 132.8780670166016 406.0112609863281 130.8972778320312 406.6141052246094 128.7991180419922 C 407.2168884277344 126.7009735107422 407.5037536621094 124.5433731079102 407.4666442871094 122.3862228393555 C 407.4286499023438 120.1779174804688 407.0510559082031 118.0227203369141 406.3442993164062 115.9803695678711 C 404.81640625 111.5647735595703 401.7850036621094 107.8379669189453 397.5779418945312 105.2028732299805 L 341.6852111816406 70.19441986083984 L 242.6472473144531 8.162078857421875 C 239.302001953125 6.066726684570312 235.4473571777344 4.95916748046875 231.5 4.95916748046875 M 231.5 3.959182739257812 C 235.5533752441406 3.959182739257812 239.6067504882812 5.077651977539062 243.1781005859375 7.3145751953125 L 342.2160034179688 69.346923828125 L 398.1087646484375 104.3553771972656 C 416.8313598632812 116.082275390625 408.522705078125 144.9999694824219 386.4306945800781 144.9999694824219 L 76.5693359375 144.9999694824219 C 54.477294921875 144.9999694824219 46.16864013671875 116.082275390625 64.89129638671875 104.3553771972656 L 219.8219451904297 7.3145751953125 C 223.3932800292969 5.077651977539062 227.4466400146484 3.959182739257812 231.5 3.959182739257812 Z" stroke="none" fill="#ebff00"/>
    </g>
    <g id="Path_31" data-name="Path 31" transform="translate(145 44.02) rotate(90)" fill="#6f6f6f">
      <path d="M 386.4306945800781 144.5000152587891 L 76.56936645507812 144.5000152587891 C 71.48981475830078 144.5000152587891 66.83404541015625 142.9124603271484 63.10536193847656 139.9090118408203 C 61.38118362426758 138.5201416015625 59.88163757324219 136.8547821044922 58.64841079711914 134.9591827392578 C 57.44481658935547 133.1091461181641 56.52195358276367 131.0830535888672 55.90541076660156 128.9372406005859 C 55.28886413574219 126.791374206543 54.99549865722656 124.5844192504883 55.03345489501953 122.3776473999023 C 55.07236480712891 120.1165084838867 55.459228515625 117.9091415405273 56.18318176269531 115.8169174194336 C 57.74886322021484 111.292236328125 60.85186386108398 107.4754638671875 65.15668487548828 104.7790985107422 L 220.0873565673828 7.73828125 C 223.5123138427734 5.593099117279053 227.4587249755859 4.459190368652344 231.5000457763672 4.459190368652344 C 235.5413208007812 4.459190368652344 239.4877319335938 5.593099117279053 242.9126892089844 7.73828125 L 341.9505920410156 69.77064514160156 L 397.8433532714844 104.7790985107422 C 402.148193359375 107.4754638671875 405.2511901855469 111.292236328125 406.8168640136719 115.8169174194336 C 407.5408325195312 117.9091415405273 407.9276733398438 120.1165084838867 407.9665832519531 122.3776473999023 C 408.0045471191406 124.5844192504883 407.711181640625 126.791374206543 407.0946350097656 128.9372406005859 C 406.4780883789062 131.0830535888672 405.5552368164062 133.1091461181641 404.3516235351562 134.9591827392578 C 403.118408203125 136.8547821044922 401.6188659667969 138.5201416015625 399.8946838378906 139.9090118408203 C 396.1659851074219 142.9124603271484 391.5102233886719 144.5000152587891 386.4306945800781 144.5000152587891 Z" stroke="none"/>
      <path d="M 231.5 4.95916748046875 C 227.5526428222656 4.95916748046875 223.697998046875 6.066726684570312 220.3527526855469 8.162078857421875 L 65.42208862304688 105.2028732299805 C 61.21505737304688 107.8379669189453 58.18365478515625 111.5647735595703 56.65570068359375 115.9803695678711 C 55.94900512695312 118.0227203369141 55.5714111328125 120.1779174804688 55.53338623046875 122.3862228393555 C 55.49624633789062 124.5433731079102 55.78311157226562 126.7009735107422 56.38595581054688 128.7991180419922 C 56.98873901367188 130.897216796875 57.8909912109375 132.8780212402344 59.0675048828125 134.6864776611328 C 60.27191162109375 136.5377655029297 61.7359619140625 138.1638793945312 63.41900634765625 139.5195770263672 C 67.05780029296875 142.4506683349609 71.60516357421875 143.9999694824219 76.5693359375 143.9999694824219 L 386.4306945800781 143.9999694824219 C 391.3948974609375 143.9999694824219 395.9421997070312 142.4506683349609 399.5809936523438 139.5195770263672 C 401.2640380859375 138.1638793945312 402.7280883789062 136.5378265380859 403.9324951171875 134.6865234375 C 405.1090393066406 132.8780670166016 406.0112609863281 130.8972778320312 406.6141052246094 128.7991180419922 C 407.2168884277344 126.7009735107422 407.5037536621094 124.5433731079102 407.4666442871094 122.3862228393555 C 407.4286499023438 120.1779174804688 407.0510559082031 118.0227203369141 406.3442993164062 115.9803695678711 C 404.81640625 111.5647735595703 401.7850036621094 107.8379669189453 397.5779418945312 105.2028732299805 L 341.6852111816406 70.19441986083984 L 242.6472473144531 8.162078857421875 C 239.302001953125 6.066726684570312 235.4473571777344 4.95916748046875 231.5 4.95916748046875 M 231.5 3.959182739257812 C 235.5533752441406 3.959182739257812 239.6067504882812 5.077651977539062 243.1781005859375 7.3145751953125 L 342.2160034179688 69.346923828125 L 398.1087646484375 104.3553771972656 C 416.8313598632812 116.082275390625 408.522705078125 144.9999694824219 386.4306945800781 144.9999694824219 L 76.5693359375 144.9999694824219 C 54.477294921875 144.9999694824219 46.16864013671875 116.082275390625 64.89129638671875 104.3553771972656 L 219.8219451904297 7.3145751953125 C 223.3932800292969 5.077651977539062 227.4466400146484 3.959182739257812 231.5 3.959182739257812 Z" stroke="none" fill="#ebff00"/>
    </g>
    <g id="Path_32" data-name="Path 32" transform="translate(408.02 567.041) rotate(180)" fill="url(#linear-gradient)">
      <path d="M 386.14892578125 159.4994964599609 L 199.7572937011719 36.91360092163086 L 199.4756011962891 36.72835159301758 L 199.1982574462891 36.92005157470703 L 21.84482002258301 159.4994506835938 C 18.99692726135254 159.4795684814453 16.23446655273438 158.91162109375 13.6314001083374 157.8106536865234 C 11.07124996185303 156.7277984619141 8.771900177001953 155.1775054931641 6.797200202941895 153.2028045654297 C 4.822500228881836 151.2281036376953 3.272200107574463 148.9287567138672 2.189349889755249 146.3686065673828 C 1.068400025367737 143.7183074951172 0.5 140.9026947021484 0.5 138 L 0.5 22 C 0.5 19.09729957580566 1.068400025367737 16.28170013427734 2.189349889755249 13.6314001083374 C 3.272200107574463 11.07124996185303 4.822500228881836 8.771900177001953 6.797200202941895 6.797200202941895 C 8.771900177001953 4.822500228881836 11.07124996185303 3.272200107574463 13.6314001083374 2.189349889755249 C 16.28170013427734 1.068400025367737 19.09729957580566 0.5 22 0.5 L 386 0.5 C 388.9027099609375 0.5 391.7182922363281 1.068400025367737 394.3685913085938 2.189349889755249 C 396.9287414550781 3.272200107574463 399.2280883789062 4.822500228881836 401.2027893066406 6.797200202941895 C 403.177490234375 8.771900177001953 404.7278137207031 11.07124996185303 405.8106384277344 13.6314001083374 C 406.9316101074219 16.28170013427734 407.5 19.09729957580566 407.5 22 L 407.5 138 C 407.5 140.9026947021484 406.9316101074219 143.7183074951172 405.8106384277344 146.3686065673828 C 404.7278137207031 148.9287567138672 403.177490234375 151.2281036376953 401.2027893066406 153.2028045654297 C 399.2280883789062 155.1775054931641 396.9287414550781 156.7277984619141 394.3685913085938 157.8106536865234 C 391.7635803222656 158.9124450683594 388.9990844726562 159.4804077148438 386.14892578125 159.4994964599609 Z" stroke="none"/>
      <path d="M 22 1 C 19.16458129882812 1 16.41452026367188 1.555099487304688 13.826171875 2.64990234375 C 11.32562255859375 3.70751953125 9.079681396484375 5.221847534179688 7.150726318359375 7.150741577148438 C 5.221832275390625 9.079681396484375 3.70751953125 11.32563781738281 2.64990234375 13.82615661621094 C 1.55511474609375 16.41452026367188 1 19.16458129882812 1 22 L 1 138 C 1 140.8354187011719 1.55511474609375 143.5854797363281 2.64990234375 146.1738433837891 C 3.70751953125 148.6743621826172 5.221832275390625 150.9203186035156 7.150726318359375 152.8492584228516 C 9.079681396484375 154.7781524658203 11.32562255859375 156.29248046875 13.826171875 157.35009765625 C 16.32052612304688 158.4051361083984 18.96484375 158.9589538574219 21.69122314453125 158.997802734375 L 198.9139404296875 36.50873565673828 L 199.4686279296875 36.1253662109375 L 200.0319976806641 36.49589538574219 L 386.2962341308594 158.9979705810547 C 389.0270080566406 158.9606475830078 391.6756896972656 158.40673828125 394.173828125 157.35009765625 C 396.6743774414062 156.29248046875 398.9203186035156 154.7781524658203 400.8492736816406 152.8492584228516 C 402.7781677246094 150.9203186035156 404.29248046875 148.6743621826172 405.35009765625 146.1738433837891 C 406.4448852539062 143.5854797363281 407 140.8354187011719 407 138 L 407 22 C 407 19.16458129882812 406.4448852539062 16.41452026367188 405.35009765625 13.82615661621094 C 404.29248046875 11.32563781738281 402.7781677246094 9.079681396484375 400.8492736816406 7.150741577148438 C 398.9203186035156 5.221847534179688 396.6743774414062 3.70751953125 394.173828125 2.64990234375 C 391.5854797363281 1.555099487304688 388.8354187011719 1 386 1 L 22 1 M 22 0 L 386 0 C 398.1502685546875 0 408 9.8497314453125 408 22 L 408 138 C 408 150.1502685546875 398.1502685546875 160 386 160 L 199.4825286865234 37.33136749267578 L 22 160 C 9.8497314453125 160 0 150.1502685546875 0 138 L 0 22 C 0 9.8497314453125 9.8497314453125 0 22 0 Z" stroke="none" fill="#ebff00"/>
    </g>
    <g transform="matrix(1, 0, 0, 1, -74.98, 0)" filter="url(#Path_33)">
      <g id="Path_33-2" data-name="Path 33" transform="translate(537.53 679.71) rotate(-180)" fill="#6f6f6f">
        <path d="M 437.1249084472656 153.2072906494141 L 79.93557739257812 153.2072906494141 C 73.86721038818359 153.2072906494141 68.34347534179688 151.4129180908203 63.96158218383789 148.0182342529297 C 61.94305419921875 146.4544525146484 60.20837020874023 144.5867614746094 58.80578994750977 142.4671325683594 C 57.43616104125977 140.3972930908203 56.41926574707031 138.1438140869141 55.78342437744141 135.7691802978516 C 55.18689727783203 133.5413513183594 54.9427375793457 131.2650756835938 55.05779266357422 129.0036010742188 C 55.17584228515625 126.6829223632812 55.6708984375 124.4231872558594 56.52915954589844 122.2871322631836 C 57.42737197875977 120.0517120361328 58.71547698974609 117.975715637207 60.35768508911133 116.1169204711914 C 62.10058212280273 114.1440811157227 64.24242401123047 112.4179229736328 66.72368621826172 110.9865036010742 L 245.3183135986328 7.954817771911621 C 249.2823181152344 5.667975425720215 253.8509521484375 4.45923900604248 258.5302734375 4.45923900604248 C 263.2095336914062 4.45923900604248 267.7781677246094 5.667975425720215 271.7421569824219 7.954817771911621 L 385.9070434570312 73.81681823730469 L 450.3368530273438 110.9865036010742 C 452.818115234375 112.4179229736328 454.9598999023438 114.1440811157227 456.7028503417969 116.1169204711914 C 458.3450012207031 117.975715637207 459.6331176757812 120.0517120361328 460.5313110351562 122.2871322631836 C 461.3896484375 124.4231872558594 461.8846740722656 126.6829223632812 462.0027465820312 129.0036010742188 C 462.1177368164062 131.2650756835938 461.8736267089844 133.5413513183594 461.2770690917969 135.7691802978516 C 460.6412048339844 138.1438140869141 459.6243591308594 140.3972930908203 458.2546997070312 142.4671325683594 C 456.8521118164062 144.5867614746094 455.1174621582031 146.4544525146484 453.0989074707031 148.0182342529297 C 448.7170104980469 151.4129180908203 443.1932678222656 153.2072906494141 437.1249084472656 153.2072906494141 Z" stroke="none"/>
        <path d="M 258.5302124023438 4.959182739257812 C 253.9385375976562 4.959182739257812 249.4563293457031 6.144821166992188 245.5681457519531 8.387924194335938 L 66.97348022460938 111.4196090698242 C 64.53921508789062 112.8239212036133 62.43936157226562 114.5157165527344 60.73236083984375 116.4479217529297 C 59.1280517578125 118.2639236450195 57.86993408203125 120.2912445068359 56.9930419921875 122.4735565185547 C 56.15548706054688 124.5581359863281 55.67233276367188 126.7637100219727 55.55709838867188 129.0290222167969 C 55.44467163085938 131.2382965087891 55.68338012695312 133.4624938964844 56.266357421875 135.6398620605469 C 56.88827514648438 137.9622955322266 57.88290405273438 140.1664428710938 59.22274780273438 142.1912384033203 C 60.5950927734375 144.2651824951172 62.29254150390625 146.0927124023438 64.26779174804688 147.6229705810547 C 68.56121826171875 150.9491882324219 73.97906494140625 152.7072906494141 79.93557739257812 152.7072906494141 L 437.1248779296875 152.7072906494141 C 443.0814208984375 152.7072906494141 448.4992065429688 150.9491882324219 452.7926940917969 147.6229705810547 C 454.7679443359375 146.0927124023438 456.4653625488281 144.2651824951172 457.8377380371094 142.1912384033203 C 459.1775207519531 140.1664428710938 460.1722106933594 137.9622955322266 460.7940673828125 135.6398620605469 C 461.3771057128906 133.4624938964844 461.61572265625 131.2382965087891 461.5033569335938 129.0290222167969 C 461.3881225585938 126.7637100219727 460.9049987792969 124.5581359863281 460.0673828125 122.4735565185547 C 459.1904907226562 120.2912445068359 457.9324340820312 118.2639236450195 456.3280944824219 116.4479217529297 C 454.62109375 114.5157165527344 452.5212707519531 112.8239212036133 450.0870056152344 111.4196090698242 L 385.6572265625 74.24992370605469 L 271.4923095703125 8.387924194335938 C 267.6041259765625 6.144821166992188 263.1218872070312 4.959182739257812 258.5302124023438 4.959182739257812 M 258.5302429199219 3.959213256835938 C 263.2026977539062 3.959213256835938 267.8751831054688 5.146713256835938 271.9920043945312 7.521713256835938 L 386.1568908691406 73.38371276855469 L 450.586669921875 110.5533981323242 C 472.1689453125 123.0042877197266 462.5912170410156 153.7072906494141 437.1248779296875 153.7072906494141 L 79.93557739257812 153.7072906494141 C 54.46920776367188 153.7072906494141 44.89154052734375 123.0042877197266 66.47378540039062 110.5533981323242 L 245.0684814453125 7.521713256835938 C 249.185302734375 5.146713256835938 253.8577575683594 3.959213256835938 258.5302429199219 3.959213256835938 Z" stroke="none" fill="#ebff00"/>
      </g>
    </g>
    <g id="Path_28" data-name="Path 28" transform="translate(263.041 631.02) rotate(-90)" fill="#404040">
      <path d="M 386.4306945800781 144.5000152587891 L 76.56936645507812 144.5000152587891 C 71.48981475830078 144.5000152587891 66.83404541015625 142.9124603271484 63.10536193847656 139.9090118408203 C 61.38118362426758 138.5201416015625 59.88163757324219 136.8547821044922 58.64841079711914 134.9591827392578 C 57.44481658935547 133.1091461181641 56.52195358276367 131.0830535888672 55.90541076660156 128.9372406005859 C 55.28886413574219 126.791374206543 54.99549865722656 124.5844192504883 55.03345489501953 122.3776473999023 C 55.07236480712891 120.1165084838867 55.459228515625 117.9091415405273 56.18318176269531 115.8169174194336 C 57.74886322021484 111.292236328125 60.85186386108398 107.4754638671875 65.15668487548828 104.7790985107422 L 220.0873565673828 7.73828125 C 223.5123138427734 5.593099117279053 227.4587249755859 4.459190368652344 231.5000457763672 4.459190368652344 C 235.5413208007812 4.459190368652344 239.4877319335938 5.593099117279053 242.9126892089844 7.73828125 L 341.9505920410156 69.77064514160156 L 397.8433532714844 104.7790985107422 C 402.148193359375 107.4754638671875 405.2511901855469 111.292236328125 406.8168640136719 115.8169174194336 C 407.5408325195312 117.9091415405273 407.9276733398438 120.1165084838867 407.9665832519531 122.3776473999023 C 408.0045471191406 124.5844192504883 407.711181640625 126.791374206543 407.0946350097656 128.9372406005859 C 406.4780883789062 131.0830535888672 405.5552368164062 133.1091461181641 404.3516235351562 134.9591827392578 C 403.118408203125 136.8547821044922 401.6188659667969 138.5201416015625 399.8946838378906 139.9090118408203 C 396.1659851074219 142.9124603271484 391.5102233886719 144.5000152587891 386.4306945800781 144.5000152587891 Z" stroke="none"/>
      <path d="M 231.5 4.95916748046875 C 227.5526428222656 4.95916748046875 223.697998046875 6.066726684570312 220.3527526855469 8.162078857421875 L 65.42208862304688 105.2028732299805 C 61.21505737304688 107.8379669189453 58.18365478515625 111.5647735595703 56.65570068359375 115.9803695678711 C 55.94900512695312 118.0227203369141 55.5714111328125 120.1779174804688 55.53338623046875 122.3862228393555 C 55.49624633789062 124.5433731079102 55.78311157226562 126.7009735107422 56.38595581054688 128.7991180419922 C 56.98873901367188 130.897216796875 57.8909912109375 132.8780212402344 59.0675048828125 134.6864776611328 C 60.27191162109375 136.5377655029297 61.7359619140625 138.1638793945312 63.41900634765625 139.5195770263672 C 67.05780029296875 142.4506683349609 71.60516357421875 143.9999694824219 76.5693359375 143.9999694824219 L 386.4306945800781 143.9999694824219 C 391.3948974609375 143.9999694824219 395.9421997070312 142.4506683349609 399.5809936523438 139.5195770263672 C 401.2640380859375 138.1638793945312 402.7280883789062 136.5378265380859 403.9324951171875 134.6865234375 C 405.1090393066406 132.8780670166016 406.0112609863281 130.8972778320312 406.6141052246094 128.7991180419922 C 407.2168884277344 126.7009735107422 407.5037536621094 124.5433731079102 407.4666442871094 122.3862228393555 C 407.4286499023438 120.1779174804688 407.0510559082031 118.0227203369141 406.3442993164062 115.9803695678711 C 404.81640625 111.5647735595703 401.7850036621094 107.8379669189453 397.5779418945312 105.2028732299805 L 341.6852111816406 70.19441986083984 L 242.6472473144531 8.162078857421875 C 239.302001953125 6.066726684570312 235.4473571777344 4.95916748046875 231.5 4.95916748046875 M 231.5 3.959182739257812 C 235.5533752441406 3.959182739257812 239.6067504882812 5.077651977539062 243.1781005859375 7.3145751953125 L 342.2160034179688 69.346923828125 L 398.1087646484375 104.3553771972656 C 416.8313598632812 116.082275390625 408.522705078125 144.9999694824219 386.4306945800781 144.9999694824219 L 76.5693359375 144.9999694824219 C 54.477294921875 144.9999694824219 46.16864013671875 116.082275390625 64.89129638671875 104.3553771972656 L 219.8219451904297 7.3145751953125 C 223.3932800292969 5.077651977539062 227.4466400146484 3.959182739257812 231.5 3.959182739257812 Z" stroke="none" fill="#6f6f6f"/>
    </g>
    <g transform="matrix(1, 0, 0, 1, -74.98, 0)" filter="url(#Path_26)">
      <g id="Path_26-2" data-name="Path 26" transform="translate(605.02 730.02) rotate(-90)" fill="#b2b200">
        <path d="M 386.4306945800781 144.5000152587891 L 76.56936645507812 144.5000152587891 C 71.48981475830078 144.5000152587891 66.83404541015625 142.9124603271484 63.10536193847656 139.9090118408203 C 61.38118362426758 138.5201416015625 59.88163757324219 136.8547821044922 58.64841079711914 134.9591827392578 C 57.44481658935547 133.1091461181641 56.52195358276367 131.0830535888672 55.90541076660156 128.9372406005859 C 55.28886413574219 126.791374206543 54.99549865722656 124.5844192504883 55.03345489501953 122.3776473999023 C 55.07236480712891 120.1165084838867 55.459228515625 117.9091415405273 56.18318176269531 115.8169174194336 C 57.74886322021484 111.292236328125 60.85186386108398 107.4754638671875 65.15668487548828 104.7790985107422 L 220.0873565673828 7.73828125 C 223.5123138427734 5.593099117279053 227.4587249755859 4.459190368652344 231.5000457763672 4.459190368652344 C 235.5413208007812 4.459190368652344 239.4877319335938 5.593099117279053 242.9126892089844 7.73828125 L 341.9505920410156 69.77064514160156 L 397.8433532714844 104.7790985107422 C 402.148193359375 107.4754638671875 405.2511901855469 111.292236328125 406.8168640136719 115.8169174194336 C 407.5408325195312 117.9091415405273 407.9276733398438 120.1165084838867 407.9665832519531 122.3776473999023 C 408.0045471191406 124.5844192504883 407.711181640625 126.791374206543 407.0946350097656 128.9372406005859 C 406.4780883789062 131.0830535888672 405.5552368164062 133.1091461181641 404.3516235351562 134.9591827392578 C 403.118408203125 136.8547821044922 401.6188659667969 138.5201416015625 399.8946838378906 139.9090118408203 C 396.1659851074219 142.9124603271484 391.5102233886719 144.5000152587891 386.4306945800781 144.5000152587891 Z" stroke="none"/>
        <path d="M 231.5 4.95916748046875 C 227.5526428222656 4.95916748046875 223.697998046875 6.066726684570312 220.3527526855469 8.162078857421875 L 65.42208862304688 105.2028732299805 C 61.21505737304688 107.8379669189453 58.18365478515625 111.5647735595703 56.65570068359375 115.9803695678711 C 55.94900512695312 118.0227203369141 55.5714111328125 120.1779174804688 55.53338623046875 122.3862228393555 C 55.49624633789062 124.5433731079102 55.78311157226562 126.7009735107422 56.38595581054688 128.7991180419922 C 56.98873901367188 130.897216796875 57.8909912109375 132.8780212402344 59.0675048828125 134.6864776611328 C 60.27191162109375 136.5377655029297 61.7359619140625 138.1638793945312 63.41900634765625 139.5195770263672 C 67.05780029296875 142.4506683349609 71.60516357421875 143.9999694824219 76.5693359375 143.9999694824219 L 386.4306945800781 143.9999694824219 C 391.3948974609375 143.9999694824219 395.9421997070312 142.4506683349609 399.5809936523438 139.5195770263672 C 401.2640380859375 138.1638793945312 402.7280883789062 136.5378265380859 403.9324951171875 134.6865234375 C 405.1090393066406 132.8780670166016 406.0112609863281 130.8972778320312 406.6141052246094 128.7991180419922 C 407.2168884277344 126.7009735107422 407.5037536621094 124.5433731079102 407.4666442871094 122.3862228393555 C 407.4286499023438 120.1779174804688 407.0510559082031 118.0227203369141 406.3442993164062 115.9803695678711 C 404.81640625 111.5647735595703 401.7850036621094 107.8379669189453 397.5779418945312 105.2028732299805 L 341.6852111816406 70.19441986083984 L 242.6472473144531 8.162078857421875 C 239.302001953125 6.066726684570312 235.4473571777344 4.95916748046875 231.5 4.95916748046875 M 231.5 3.959182739257812 C 235.5533752441406 3.959182739257812 239.6067504882812 5.077651977539062 243.1781005859375 7.3145751953125 L 342.2160034179688 69.346923828125 L 398.1087646484375 104.3553771972656 C 416.8313598632812 116.082275390625 408.522705078125 144.9999694824219 386.4306945800781 144.9999694824219 L 76.5693359375 144.9999694824219 C 54.477294921875 144.9999694824219 46.16864013671875 116.082275390625 64.89129638671875 104.3553771972656 L 219.8219451904297 7.3145751953125 C 223.3932800292969 5.077651977539062 227.4466400146484 3.959182739257812 231.5 3.959182739257812 Z" stroke="none" fill="#6f6f6f"/>
      </g>
    </g>
    <g id="Path_29" data-name="Path 29" transform="translate(679 150.02) rotate(90)" fill="#6f6f6f">
      <path d="M 386.4306945800781 144.5000152587891 L 76.56936645507812 144.5000152587891 C 71.48981475830078 144.5000152587891 66.83404541015625 142.9124603271484 63.10536193847656 139.9090118408203 C 61.38118362426758 138.5201416015625 59.88163757324219 136.8547821044922 58.64841079711914 134.9591827392578 C 57.44481658935547 133.1091461181641 56.52195358276367 131.0830535888672 55.90541076660156 128.9372406005859 C 55.28886413574219 126.791374206543 54.99549865722656 124.5844192504883 55.03345489501953 122.3776473999023 C 55.07236480712891 120.1165084838867 55.459228515625 117.9091415405273 56.18318176269531 115.8169174194336 C 57.74886322021484 111.292236328125 60.85186386108398 107.4754638671875 65.15668487548828 104.7790985107422 L 220.0873565673828 7.73828125 C 223.5123138427734 5.593099117279053 227.4587249755859 4.459190368652344 231.5000457763672 4.459190368652344 C 235.5413208007812 4.459190368652344 239.4877319335938 5.593099117279053 242.9126892089844 7.73828125 L 341.9505920410156 69.77064514160156 L 397.8433532714844 104.7790985107422 C 402.148193359375 107.4754638671875 405.2511901855469 111.292236328125 406.8168640136719 115.8169174194336 C 407.5408325195312 117.9091415405273 407.9276733398438 120.1165084838867 407.9665832519531 122.3776473999023 C 408.0045471191406 124.5844192504883 407.711181640625 126.791374206543 407.0946350097656 128.9372406005859 C 406.4780883789062 131.0830535888672 405.5552368164062 133.1091461181641 404.3516235351562 134.9591827392578 C 403.118408203125 136.8547821044922 401.6188659667969 138.5201416015625 399.8946838378906 139.9090118408203 C 396.1659851074219 142.9124603271484 391.5102233886719 144.5000152587891 386.4306945800781 144.5000152587891 Z" stroke="none"/>
      <path d="M 231.5 4.95916748046875 C 227.5526428222656 4.95916748046875 223.697998046875 6.066726684570312 220.3527526855469 8.162078857421875 L 65.42208862304688 105.2028732299805 C 61.21505737304688 107.8379669189453 58.18365478515625 111.5647735595703 56.65570068359375 115.9803695678711 C 55.94900512695312 118.0227203369141 55.5714111328125 120.1779174804688 55.53338623046875 122.3862228393555 C 55.49624633789062 124.5433731079102 55.78311157226562 126.7009735107422 56.38595581054688 128.7991180419922 C 56.98873901367188 130.897216796875 57.8909912109375 132.8780212402344 59.0675048828125 134.6864776611328 C 60.27191162109375 136.5377655029297 61.7359619140625 138.1638793945312 63.41900634765625 139.5195770263672 C 67.05780029296875 142.4506683349609 71.60516357421875 143.9999694824219 76.5693359375 143.9999694824219 L 386.4306945800781 143.9999694824219 C 391.3948974609375 143.9999694824219 395.9421997070312 142.4506683349609 399.5809936523438 139.5195770263672 C 401.2640380859375 138.1638793945312 402.7280883789062 136.5378265380859 403.9324951171875 134.6865234375 C 405.1090393066406 132.8780670166016 406.0112609863281 130.8972778320312 406.6141052246094 128.7991180419922 C 407.2168884277344 126.7009735107422 407.5037536621094 124.5433731079102 407.4666442871094 122.3862228393555 C 407.4286499023438 120.1779174804688 407.0510559082031 118.0227203369141 406.3442993164062 115.9803695678711 C 404.81640625 111.5647735595703 401.7850036621094 107.8379669189453 397.5779418945312 105.2028732299805 L 341.6852111816406 70.19441986083984 L 242.6472473144531 8.162078857421875 C 239.302001953125 6.066726684570312 235.4473571777344 4.95916748046875 231.5 4.95916748046875 M 231.5 3.959182739257812 C 235.5533752441406 3.959182739257812 239.6067504882812 5.077651977539062 243.1781005859375 7.3145751953125 L 342.2160034179688 69.346923828125 L 398.1087646484375 104.3553771972656 C 416.8313598632812 116.082275390625 408.522705078125 144.9999694824219 386.4306945800781 144.9999694824219 L 76.5693359375 144.9999694824219 C 54.477294921875 144.9999694824219 46.16864013671875 116.082275390625 64.89129638671875 104.3553771972656 L 219.8219451904297 7.3145751953125 C 223.3932800292969 5.077651977539062 227.4466400146484 3.959182739257812 231.5 3.959182739257812 Z" stroke="none" fill="#6f6f6f"/>
    </g>
    <g transform="matrix(1, 0, 0, 1, -74.98, 0)" filter="url(#Path_21)">
      <g id="Path_21-2" data-name="Path 21" transform="translate(342 103.04)" fill="url(#linear-gradient-2)">
        <path d="M 386.1419372558594 256.7661437988281 L 201.6165924072266 141.7166595458984 L 201.34814453125 141.5493011474609 L 201.0819549560547 141.7201995849609 L 21.85458946228027 256.76611328125 C 10.06604671478271 256.6388854980469 0.5 241.0437622070312 0.5 221.8927001953125 L 0.5 35.37420272827148 C 0.5 16.14450263977051 10.14484977722168 0.5000033974647522 22 0.5000033974647522 L 386 0.5000033974647522 C 397.8551635742188 0.5000033974647522 407.5 16.14450263977051 407.5 35.37420272827148 L 407.5 221.8927001953125 C 407.5 241.0461120605469 397.9324645996094 256.6427001953125 386.1419372558594 256.7661437988281 Z" stroke="none"/>
        <path d="M 22 0.999969482421875 C 19.2342529296875 0.999969482421875 16.54232788085938 1.877029418945312 13.99896240234375 3.606765747070312 C 11.495361328125 5.3094482421875 9.239105224609375 7.759506225585938 7.2928466796875 10.88897705078125 C 5.3251953125 14.05276489257812 3.778564453125 17.74371337890625 2.695953369140625 21.85934448242188 C 1.57061767578125 26.137451171875 1 30.68450927734375 1 35.37419128417969 L 1 221.8927154541016 C 1 226.5823974609375 1.57061767578125 231.1294555664062 2.695953369140625 235.4075622558594 C 3.778564453125 239.523193359375 5.3251953125 243.2141418457031 7.2928466796875 246.3779296875 C 9.239105224609375 249.5073547363281 11.495361328125 251.9574584960938 13.99896240234375 253.6600799560547 C 16.45382690429688 255.3296508789062 19.04714965820312 256.2048034667969 21.71163940429688 256.2637023925781 L 200.8118438720703 141.2994079589844 L 201.3442687988281 140.9576110839844 L 201.881103515625 141.2923583984375 L 386.2813415527344 256.2638549804688 C 388.9482727050781 256.2063598632812 391.5440063476562 255.3311157226562 394.0010375976562 253.6600799560547 C 396.504638671875 251.9574584960938 398.7608947753906 249.5073547363281 400.7071533203125 246.3779296875 C 402.6748046875 243.2141418457031 404.221435546875 239.523193359375 405.3040466308594 235.4075622558594 C 406.4293823242188 231.1294555664062 407 226.5823974609375 407 221.8927154541016 L 407 35.37419128417969 C 407 30.68450927734375 406.4293823242188 26.137451171875 405.3040466308594 21.85934448242188 C 404.221435546875 17.74371337890625 402.6748046875 14.05276489257812 400.7071533203125 10.88897705078125 C 398.7608947753906 7.759506225585938 396.504638671875 5.3094482421875 394.0010375976562 3.606765747070312 C 391.4576721191406 1.877029418945312 388.7657470703125 0.999969482421875 386 0.999969482421875 L 22 0.999969482421875 M 22 -3.0517578125e-05 L 386 -3.0517578125e-05 C 398.1502685546875 -3.0517578125e-05 408 15.83755493164062 408 35.37419128417969 L 408 221.8927154541016 C 408 241.4293518066406 398.1502685546875 257.2668762207031 386 257.2668762207031 L 201.35205078125 142.1409301757812 L 22 257.2668762207031 C 9.8497314453125 257.2668762207031 0 241.4293518066406 0 221.8927154541016 L 0 35.37419128417969 C 0 15.83755493164062 9.8497314453125 -3.0517578125e-05 22 -3.0517578125e-05 Z" stroke="none" fill="#6f6f6f"/>
      </g>
    </g>
    <g id="Path_24" data-name="Path 24" transform="translate(530.041 512.02) rotate(-90)" fill="#ebff00">
      <path d="M 386.4306945800781 144.5000152587891 L 76.56936645507812 144.5000152587891 C 71.48981475830078 144.5000152587891 66.83404541015625 142.9124603271484 63.10536193847656 139.9090118408203 C 61.38118362426758 138.5201416015625 59.88163757324219 136.8547821044922 58.64841079711914 134.9591827392578 C 57.44481658935547 133.1091461181641 56.52195358276367 131.0830535888672 55.90541076660156 128.9372406005859 C 55.28886413574219 126.791374206543 54.99549865722656 124.5844192504883 55.03345489501953 122.3776473999023 C 55.07236480712891 120.1165084838867 55.459228515625 117.9091415405273 56.18318176269531 115.8169174194336 C 57.74886322021484 111.292236328125 60.85186386108398 107.4754638671875 65.15668487548828 104.7790985107422 L 220.0873565673828 7.73828125 C 223.5123138427734 5.593099117279053 227.4587249755859 4.459190368652344 231.5000457763672 4.459190368652344 C 235.5413208007812 4.459190368652344 239.4877319335938 5.593099117279053 242.9126892089844 7.73828125 L 341.9505920410156 69.77064514160156 L 397.8433532714844 104.7790985107422 C 402.148193359375 107.4754638671875 405.2511901855469 111.292236328125 406.8168640136719 115.8169174194336 C 407.5408325195312 117.9091415405273 407.9276733398438 120.1165084838867 407.9665832519531 122.3776473999023 C 408.0045471191406 124.5844192504883 407.711181640625 126.791374206543 407.0946350097656 128.9372406005859 C 406.4780883789062 131.0830535888672 405.5552368164062 133.1091461181641 404.3516235351562 134.9591827392578 C 403.118408203125 136.8547821044922 401.6188659667969 138.5201416015625 399.8946838378906 139.9090118408203 C 396.1659851074219 142.9124603271484 391.5102233886719 144.5000152587891 386.4306945800781 144.5000152587891 Z" stroke="none"/>
      <path d="M 231.5 4.95916748046875 C 227.5526428222656 4.95916748046875 223.697998046875 6.066726684570312 220.3527526855469 8.162078857421875 L 65.42208862304688 105.2028732299805 C 61.21505737304688 107.8379669189453 58.18365478515625 111.5647735595703 56.65570068359375 115.9803695678711 C 55.94900512695312 118.0227203369141 55.5714111328125 120.1779174804688 55.53338623046875 122.3862228393555 C 55.49624633789062 124.5433731079102 55.78311157226562 126.7009735107422 56.38595581054688 128.7991180419922 C 56.98873901367188 130.897216796875 57.8909912109375 132.8780212402344 59.0675048828125 134.6864776611328 C 60.27191162109375 136.5377655029297 61.7359619140625 138.1638793945312 63.41900634765625 139.5195770263672 C 67.05780029296875 142.4506683349609 71.60516357421875 143.9999694824219 76.5693359375 143.9999694824219 L 386.4306945800781 143.9999694824219 C 391.3948974609375 143.9999694824219 395.9421997070312 142.4506683349609 399.5809936523438 139.5195770263672 C 401.2640380859375 138.1638793945312 402.7280883789062 136.5378265380859 403.9324951171875 134.6865234375 C 405.1090393066406 132.8780670166016 406.0112609863281 130.8972778320312 406.6141052246094 128.7991180419922 C 407.2168884277344 126.7009735107422 407.5037536621094 124.5433731079102 407.4666442871094 122.3862228393555 C 407.4286499023438 120.1779174804688 407.0510559082031 118.0227203369141 406.3442993164062 115.9803695678711 C 404.81640625 111.5647735595703 401.7850036621094 107.8379669189453 397.5779418945312 105.2028732299805 L 341.6852111816406 70.19441986083984 L 242.6472473144531 8.162078857421875 C 239.302001953125 6.066726684570312 235.4473571777344 4.95916748046875 231.5 4.95916748046875 M 231.5 3.959182739257812 C 235.5533752441406 3.959182739257812 239.6067504882812 5.077651977539062 243.1781005859375 7.3145751953125 L 342.2160034179688 69.346923828125 L 398.1087646484375 104.3553771972656 C 416.8313598632812 116.082275390625 408.522705078125 144.9999694824219 386.4306945800781 144.9999694824219 L 76.5693359375 144.9999694824219 C 54.477294921875 144.9999694824219 46.16864013671875 116.082275390625 64.89129638671875 104.3553771972656 L 219.8219451904297 7.3145751953125 C 223.3932800292969 5.077651977539062 227.4466400146484 3.959182739257812 231.5 3.959182739257812 Z" stroke="none" fill="#6f6f6f"/>
    </g>
    <g id="Path_22" data-name="Path 22" transform="translate(412 49.02) rotate(90)" fill="#ebff00">
      <path d="M 386.4306945800781 144.5000152587891 L 76.56936645507812 144.5000152587891 C 71.48981475830078 144.5000152587891 66.83404541015625 142.9124603271484 63.10536193847656 139.9090118408203 C 61.38118362426758 138.5201416015625 59.88163757324219 136.8547821044922 58.64841079711914 134.9591827392578 C 57.44481658935547 133.1091461181641 56.52195358276367 131.0830535888672 55.90541076660156 128.9372406005859 C 55.28886413574219 126.791374206543 54.99549865722656 124.5844192504883 55.03345489501953 122.3776473999023 C 55.07236480712891 120.1165084838867 55.459228515625 117.9091415405273 56.18318176269531 115.8169174194336 C 57.74886322021484 111.292236328125 60.85186386108398 107.4754638671875 65.15668487548828 104.7790985107422 L 220.0873565673828 7.73828125 C 223.5123138427734 5.593099117279053 227.4587249755859 4.459190368652344 231.5000457763672 4.459190368652344 C 235.5413208007812 4.459190368652344 239.4877319335938 5.593099117279053 242.9126892089844 7.73828125 L 341.9505920410156 69.77064514160156 L 397.8433532714844 104.7790985107422 C 402.148193359375 107.4754638671875 405.2511901855469 111.292236328125 406.8168640136719 115.8169174194336 C 407.5408325195312 117.9091415405273 407.9276733398438 120.1165084838867 407.9665832519531 122.3776473999023 C 408.0045471191406 124.5844192504883 407.711181640625 126.791374206543 407.0946350097656 128.9372406005859 C 406.4780883789062 131.0830535888672 405.5552368164062 133.1091461181641 404.3516235351562 134.9591827392578 C 403.118408203125 136.8547821044922 401.6188659667969 138.5201416015625 399.8946838378906 139.9090118408203 C 396.1659851074219 142.9124603271484 391.5102233886719 144.5000152587891 386.4306945800781 144.5000152587891 Z" stroke="none"/>
      <path d="M 231.5 4.95916748046875 C 227.5526428222656 4.95916748046875 223.697998046875 6.066726684570312 220.3527526855469 8.162078857421875 L 65.42208862304688 105.2028732299805 C 61.21505737304688 107.8379669189453 58.18365478515625 111.5647735595703 56.65570068359375 115.9803695678711 C 55.94900512695312 118.0227203369141 55.5714111328125 120.1779174804688 55.53338623046875 122.3862228393555 C 55.49624633789062 124.5433731079102 55.78311157226562 126.7009735107422 56.38595581054688 128.7991180419922 C 56.98873901367188 130.897216796875 57.8909912109375 132.8780212402344 59.0675048828125 134.6864776611328 C 60.27191162109375 136.5377655029297 61.7359619140625 138.1638793945312 63.41900634765625 139.5195770263672 C 67.05780029296875 142.4506683349609 71.60516357421875 143.9999694824219 76.5693359375 143.9999694824219 L 386.4306945800781 143.9999694824219 C 391.3948974609375 143.9999694824219 395.9421997070312 142.4506683349609 399.5809936523438 139.5195770263672 C 401.2640380859375 138.1638793945312 402.7280883789062 136.5378265380859 403.9324951171875 134.6865234375 C 405.1090393066406 132.8780670166016 406.0112609863281 130.8972778320312 406.6141052246094 128.7991180419922 C 407.2168884277344 126.7009735107422 407.5037536621094 124.5433731079102 407.4666442871094 122.3862228393555 C 407.4286499023438 120.1779174804688 407.0510559082031 118.0227203369141 406.3442993164062 115.9803695678711 C 404.81640625 111.5647735595703 401.7850036621094 107.8379669189453 397.5779418945312 105.2028732299805 L 341.6852111816406 70.19441986083984 L 242.6472473144531 8.162078857421875 C 239.302001953125 6.066726684570312 235.4473571777344 4.95916748046875 231.5 4.95916748046875 M 231.5 3.959182739257812 C 235.5533752441406 3.959182739257812 239.6067504882812 5.077651977539062 243.1781005859375 7.3145751953125 L 342.2160034179688 69.346923828125 L 398.1087646484375 104.3553771972656 C 416.8313598632812 116.082275390625 408.522705078125 144.9999694824219 386.4306945800781 144.9999694824219 L 76.5693359375 144.9999694824219 C 54.477294921875 144.9999694824219 46.16864013671875 116.082275390625 64.89129638671875 104.3553771972656 L 219.8219451904297 7.3145751953125 C 223.3932800292969 5.077651977539062 227.4466400146484 3.959182739257812 231.5 3.959182739257812 Z" stroke="none" fill="#6f6f6f"/>
    </g>
    <g id="Path_27" data-name="Path 27" transform="translate(212.49 -3.959)" fill="#ebff00">
      <path d="M 437.1249084472656 153.2072906494141 L 79.93557739257812 153.2072906494141 C 73.86721038818359 153.2072906494141 68.34347534179688 151.4129180908203 63.96158218383789 148.0182342529297 C 61.94305419921875 146.4544525146484 60.20837020874023 144.5867614746094 58.80578994750977 142.4671325683594 C 57.43616104125977 140.3972930908203 56.41926574707031 138.1438140869141 55.78342437744141 135.7691802978516 C 55.18689727783203 133.5413513183594 54.9427375793457 131.2650756835938 55.05779266357422 129.0036010742188 C 55.17584228515625 126.6829223632812 55.6708984375 124.4231872558594 56.52915954589844 122.2871322631836 C 57.42737197875977 120.0517120361328 58.71547698974609 117.975715637207 60.35768508911133 116.1169204711914 C 62.10058212280273 114.1440811157227 64.24242401123047 112.4179229736328 66.72368621826172 110.9865036010742 L 245.3183135986328 7.954817771911621 C 249.2823181152344 5.667975425720215 253.8509521484375 4.45923900604248 258.5302734375 4.45923900604248 C 263.2095336914062 4.45923900604248 267.7781677246094 5.667975425720215 271.7421569824219 7.954817771911621 L 385.9070434570312 73.81681823730469 L 450.3368530273438 110.9865036010742 C 452.818115234375 112.4179229736328 454.9598999023438 114.1440811157227 456.7028503417969 116.1169204711914 C 458.3450012207031 117.975715637207 459.6331176757812 120.0517120361328 460.5313110351562 122.2871322631836 C 461.3896484375 124.4231872558594 461.8846740722656 126.6829223632812 462.0027465820312 129.0036010742188 C 462.1177368164062 131.2650756835938 461.8736267089844 133.5413513183594 461.2770690917969 135.7691802978516 C 460.6412048339844 138.1438140869141 459.6243591308594 140.3972930908203 458.2546997070312 142.4671325683594 C 456.8521118164062 144.5867614746094 455.1174621582031 146.4544525146484 453.0989074707031 148.0182342529297 C 448.7170104980469 151.4129180908203 443.1932678222656 153.2072906494141 437.1249084472656 153.2072906494141 Z" stroke="none"/>
      <path d="M 258.5302124023438 4.959182739257812 C 253.9385375976562 4.959182739257812 249.4563293457031 6.144821166992188 245.5681457519531 8.387924194335938 L 66.97348022460938 111.4196090698242 C 64.53921508789062 112.8239212036133 62.43936157226562 114.5157165527344 60.73236083984375 116.4479217529297 C 59.1280517578125 118.2639236450195 57.86993408203125 120.2912445068359 56.9930419921875 122.4735565185547 C 56.15548706054688 124.5581359863281 55.67233276367188 126.7637100219727 55.55709838867188 129.0290222167969 C 55.44467163085938 131.2382965087891 55.68338012695312 133.4624938964844 56.266357421875 135.6398620605469 C 56.88827514648438 137.9622955322266 57.88290405273438 140.1664428710938 59.22274780273438 142.1912384033203 C 60.5950927734375 144.2651824951172 62.29254150390625 146.0927124023438 64.26779174804688 147.6229705810547 C 68.56121826171875 150.9491882324219 73.97906494140625 152.7072906494141 79.93557739257812 152.7072906494141 L 437.1248779296875 152.7072906494141 C 443.0814208984375 152.7072906494141 448.4992065429688 150.9491882324219 452.7926940917969 147.6229705810547 C 454.7679443359375 146.0927124023438 456.4653625488281 144.2651824951172 457.8377380371094 142.1912384033203 C 459.1775207519531 140.1664428710938 460.1722106933594 137.9622955322266 460.7940673828125 135.6398620605469 C 461.3771057128906 133.4624938964844 461.61572265625 131.2382965087891 461.5033569335938 129.0290222167969 C 461.3881225585938 126.7637100219727 460.9049987792969 124.5581359863281 460.0673828125 122.4735565185547 C 459.1904907226562 120.2912445068359 457.9324340820312 118.2639236450195 456.3280944824219 116.4479217529297 C 454.62109375 114.5157165527344 452.5212707519531 112.8239212036133 450.0870056152344 111.4196090698242 L 385.6572265625 74.24992370605469 L 271.4923095703125 8.387924194335938 C 267.6041259765625 6.144821166992188 263.1218872070312 4.959182739257812 258.5302124023438 4.959182739257812 M 258.5302429199219 3.959213256835938 C 263.2026977539062 3.959213256835938 267.8751831054688 5.146713256835938 271.9920043945312 7.521713256835938 L 386.1568908691406 73.38371276855469 L 450.586669921875 110.5533981323242 C 472.1689453125 123.0042877197266 462.5912170410156 153.7072906494141 437.1248779296875 153.7072906494141 L 79.93557739257812 153.7072906494141 C 54.46920776367188 153.7072906494141 44.89154052734375 123.0042877197266 66.47378540039062 110.5533981323242 L 245.0684814453125 7.521713256835938 C 249.185302734375 5.146713256835938 253.8577575683594 3.959213256835938 258.5302429199219 3.959213256835938 Z" stroke="none" fill="#6f6f6f"/>
    </g>
    <g id="Path_35" data-name="Path 35" transform="translate(675.02 567.041) rotate(180)" fill="url(#linear-gradient)">
      <path d="M 386.14892578125 159.4994964599609 L 199.7572937011719 36.91360092163086 L 199.4756011962891 36.72835159301758 L 199.1982574462891 36.92005157470703 L 21.84482002258301 159.4994506835938 C 18.99692726135254 159.4795684814453 16.23446655273438 158.91162109375 13.6314001083374 157.8106536865234 C 11.07124996185303 156.7277984619141 8.771900177001953 155.1775054931641 6.797200202941895 153.2028045654297 C 4.822500228881836 151.2281036376953 3.272200107574463 148.9287567138672 2.189349889755249 146.3686065673828 C 1.068400025367737 143.7183074951172 0.5 140.9026947021484 0.5 138 L 0.5 22 C 0.5 19.09729957580566 1.068400025367737 16.28170013427734 2.189349889755249 13.6314001083374 C 3.272200107574463 11.07124996185303 4.822500228881836 8.771900177001953 6.797200202941895 6.797200202941895 C 8.771900177001953 4.822500228881836 11.07124996185303 3.272200107574463 13.6314001083374 2.189349889755249 C 16.28170013427734 1.068400025367737 19.09729957580566 0.5 22 0.5 L 386 0.5 C 388.9027099609375 0.5 391.7182922363281 1.068400025367737 394.3685913085938 2.189349889755249 C 396.9287414550781 3.272200107574463 399.2280883789062 4.822500228881836 401.2027893066406 6.797200202941895 C 403.177490234375 8.771900177001953 404.7278137207031 11.07124996185303 405.8106384277344 13.6314001083374 C 406.9316101074219 16.28170013427734 407.5 19.09729957580566 407.5 22 L 407.5 138 C 407.5 140.9026947021484 406.9316101074219 143.7183074951172 405.8106384277344 146.3686065673828 C 404.7278137207031 148.9287567138672 403.177490234375 151.2281036376953 401.2027893066406 153.2028045654297 C 399.2280883789062 155.1775054931641 396.9287414550781 156.7277984619141 394.3685913085938 157.8106536865234 C 391.7635803222656 158.9124450683594 388.9990844726562 159.4804077148438 386.14892578125 159.4994964599609 Z" stroke="none"/>
      <path d="M 22 1 C 19.16458129882812 1 16.41452026367188 1.555099487304688 13.826171875 2.64990234375 C 11.32562255859375 3.70751953125 9.079681396484375 5.221847534179688 7.150726318359375 7.150741577148438 C 5.221832275390625 9.079681396484375 3.70751953125 11.32563781738281 2.64990234375 13.82615661621094 C 1.55511474609375 16.41452026367188 1 19.16458129882812 1 22 L 1 138 C 1 140.8354187011719 1.55511474609375 143.5854797363281 2.64990234375 146.1738433837891 C 3.70751953125 148.6743621826172 5.221832275390625 150.9203186035156 7.150726318359375 152.8492584228516 C 9.079681396484375 154.7781524658203 11.32562255859375 156.29248046875 13.826171875 157.35009765625 C 16.32052612304688 158.4051361083984 18.96484375 158.9589538574219 21.69122314453125 158.997802734375 L 198.9139404296875 36.50873565673828 L 199.4686279296875 36.1253662109375 L 200.0319976806641 36.49589538574219 L 386.2962341308594 158.9979705810547 C 389.0270080566406 158.9606475830078 391.6756896972656 158.40673828125 394.173828125 157.35009765625 C 396.6743774414062 156.29248046875 398.9203186035156 154.7781524658203 400.8492736816406 152.8492584228516 C 402.7781677246094 150.9203186035156 404.29248046875 148.6743621826172 405.35009765625 146.1738433837891 C 406.4448852539062 143.5854797363281 407 140.8354187011719 407 138 L 407 22 C 407 19.16458129882812 406.4448852539062 16.41452026367188 405.35009765625 13.82615661621094 C 404.29248046875 11.32563781738281 402.7781677246094 9.079681396484375 400.8492736816406 7.150741577148438 C 398.9203186035156 5.221847534179688 396.6743774414062 3.70751953125 394.173828125 2.64990234375 C 391.5854797363281 1.555099487304688 388.8354187011719 1 386 1 L 22 1 M 22 0 L 386 0 C 398.1502685546875 0 408 9.8497314453125 408 22 L 408 138 C 408 150.1502685546875 398.1502685546875 160 386 160 L 199.4825286865234 37.33136749267578 L 22 160 C 9.8497314453125 160 0 150.1502685546875 0 138 L 0 22 C 0 9.8497314453125 9.8497314453125 0 22 0 Z" stroke="none" fill="#ebff00"/>
    </g>
    <g transform="matrix(1, 0, 0, 1, -74.98, 0)" filter="url(#Path_34)">
      <g id="Path_34-2" data-name="Path 34" transform="translate(804.53 679.71) rotate(-180)" fill="#6f6f6f">
        <path d="M 437.1249084472656 153.2072906494141 L 79.93557739257812 153.2072906494141 C 73.86721038818359 153.2072906494141 68.34347534179688 151.4129180908203 63.96158218383789 148.0182342529297 C 61.94305419921875 146.4544525146484 60.20837020874023 144.5867614746094 58.80578994750977 142.4671325683594 C 57.43616104125977 140.3972930908203 56.41926574707031 138.1438140869141 55.78342437744141 135.7691802978516 C 55.18689727783203 133.5413513183594 54.9427375793457 131.2650756835938 55.05779266357422 129.0036010742188 C 55.17584228515625 126.6829223632812 55.6708984375 124.4231872558594 56.52915954589844 122.2871322631836 C 57.42737197875977 120.0517120361328 58.71547698974609 117.975715637207 60.35768508911133 116.1169204711914 C 62.10058212280273 114.1440811157227 64.24242401123047 112.4179229736328 66.72368621826172 110.9865036010742 L 245.3183135986328 7.954817771911621 C 249.2823181152344 5.667975425720215 253.8509521484375 4.45923900604248 258.5302734375 4.45923900604248 C 263.2095336914062 4.45923900604248 267.7781677246094 5.667975425720215 271.7421569824219 7.954817771911621 L 385.9070434570312 73.81681823730469 L 450.3368530273438 110.9865036010742 C 452.818115234375 112.4179229736328 454.9598999023438 114.1440811157227 456.7028503417969 116.1169204711914 C 458.3450012207031 117.975715637207 459.6331176757812 120.0517120361328 460.5313110351562 122.2871322631836 C 461.3896484375 124.4231872558594 461.8846740722656 126.6829223632812 462.0027465820312 129.0036010742188 C 462.1177368164062 131.2650756835938 461.8736267089844 133.5413513183594 461.2770690917969 135.7691802978516 C 460.6412048339844 138.1438140869141 459.6243591308594 140.3972930908203 458.2546997070312 142.4671325683594 C 456.8521118164062 144.5867614746094 455.1174621582031 146.4544525146484 453.0989074707031 148.0182342529297 C 448.7170104980469 151.4129180908203 443.1932678222656 153.2072906494141 437.1249084472656 153.2072906494141 Z" stroke="none"/>
        <path d="M 258.5302124023438 4.959182739257812 C 253.9385375976562 4.959182739257812 249.4563293457031 6.144821166992188 245.5681457519531 8.387924194335938 L 66.97348022460938 111.4196090698242 C 64.53921508789062 112.8239212036133 62.43936157226562 114.5157165527344 60.73236083984375 116.4479217529297 C 59.1280517578125 118.2639236450195 57.86993408203125 120.2912445068359 56.9930419921875 122.4735565185547 C 56.15548706054688 124.5581359863281 55.67233276367188 126.7637100219727 55.55709838867188 129.0290222167969 C 55.44467163085938 131.2382965087891 55.68338012695312 133.4624938964844 56.266357421875 135.6398620605469 C 56.88827514648438 137.9622955322266 57.88290405273438 140.1664428710938 59.22274780273438 142.1912384033203 C 60.5950927734375 144.2651824951172 62.29254150390625 146.0927124023438 64.26779174804688 147.6229705810547 C 68.56121826171875 150.9491882324219 73.97906494140625 152.7072906494141 79.93557739257812 152.7072906494141 L 437.1248779296875 152.7072906494141 C 443.0814208984375 152.7072906494141 448.4992065429688 150.9491882324219 452.7926940917969 147.6229705810547 C 454.7679443359375 146.0927124023438 456.4653625488281 144.2651824951172 457.8377380371094 142.1912384033203 C 459.1775207519531 140.1664428710938 460.1722106933594 137.9622955322266 460.7940673828125 135.6398620605469 C 461.3771057128906 133.4624938964844 461.61572265625 131.2382965087891 461.5033569335938 129.0290222167969 C 461.3881225585938 126.7637100219727 460.9049987792969 124.5581359863281 460.0673828125 122.4735565185547 C 459.1904907226562 120.2912445068359 457.9324340820312 118.2639236450195 456.3280944824219 116.4479217529297 C 454.62109375 114.5157165527344 452.5212707519531 112.8239212036133 450.0870056152344 111.4196090698242 L 385.6572265625 74.24992370605469 L 271.4923095703125 8.387924194335938 C 267.6041259765625 6.144821166992188 263.1218872070312 4.959182739257812 258.5302124023438 4.959182739257812 M 258.5302429199219 3.959213256835938 C 263.2026977539062 3.959213256835938 267.8751831054688 5.146713256835938 271.9920043945312 7.521713256835938 L 386.1568908691406 73.38371276855469 L 450.586669921875 110.5533981323242 C 472.1689453125 123.0042877197266 462.5912170410156 153.7072906494141 437.1248779296875 153.7072906494141 L 79.93557739257812 153.7072906494141 C 54.46920776367188 153.7072906494141 44.89154052734375 123.0042877197266 66.47378540039062 110.5533981323242 L 245.0684814453125 7.521713256835938 C 249.185302734375 5.146713256835938 253.8577575683594 3.959213256835938 258.5302429199219 3.959213256835938 Z" stroke="none" fill="#ebff00"/>
      </g>
    </g>
  </g>
</svg>
