<svg xmlns="http://www.w3.org/2000/svg" xmlns:xlink="http://www.w3.org/1999/xlink" width="1858.126" height="1062.864" viewBox="0 0 1858.126 1062.864">
  <defs>
    <filter id="Path_1" x="332" y="639.33" width="18" height="18" filterUnits="userSpaceOnUse">
      <feOffset dy="3" input="SourceAlpha"/>
      <feGaussianBlur stdDeviation="3" result="blur"/>
      <feFlood flood-opacity="0.078"/>
      <feComposite operator="in" in2="blur"/>
      <feComposite in="SourceGraphic"/>
    </filter>
    <filter id="Path_4" x="1673" y="804" width="185.126" height="184.864" filterUnits="userSpaceOnUse">
      <feOffset dx="10" dy="10" input="SourceAlpha"/>
      <feGaussianBlur stdDeviation="10" result="blur-2"/>
      <feFlood flood-opacity="0.078"/>
      <feComposite operator="in" in2="blur-2"/>
      <feComposite in="SourceGraphic"/>
    </filter>
    <filter id="Path_5" x="1596" y="878" width="185.126" height="184.864" filterUnits="userSpaceOnUse">
      <feOffset dx="10" dy="10" input="SourceAlpha"/>
      <feGaussianBlur stdDeviation="10" result="blur-3"/>
      <feFlood flood-opacity="0.078"/>
      <feComposite operator="in" in2="blur-3"/>
      <feComposite in="SourceGraphic"/>
    </filter>
    <filter id="Path_6" x="1520" y="804" width="185.126" height="184.864" filterUnits="userSpaceOnUse">
      <feOffset dx="10" dy="10" input="SourceAlpha"/>
      <feGaussianBlur stdDeviation="10" result="blur-4"/>
      <feFlood flood-opacity="0.078"/>
      <feComposite operator="in" in2="blur-4"/>
      <feComposite in="SourceGraphic"/>
    </filter>
    <filter id="Path_7" x="1443" y="878" width="185.126" height="184.864" filterUnits="userSpaceOnUse">
      <feOffset dx="10" dy="10" input="SourceAlpha"/>
      <feGaussianBlur stdDeviation="10" result="blur-5"/>
      <feFlood flood-opacity="0.078"/>
      <feComposite operator="in" in2="blur-5"/>
      <feComposite in="SourceGraphic"/>
    </filter>
    <filter id="Path_8" x="1364" y="804" width="185.126" height="184.864" filterUnits="userSpaceOnUse">
      <feOffset dx="10" dy="10" input="SourceAlpha"/>
      <feGaussianBlur stdDeviation="10" result="blur-6"/>
      <feFlood flood-opacity="0.078"/>
      <feComposite operator="in" in2="blur-6"/>
      <feComposite in="SourceGraphic"/>
    </filter>
    <filter id="Path_9" x="1287" y="878" width="185.126" height="184.864" filterUnits="userSpaceOnUse">
      <feOffset dx="10" dy="10" input="SourceAlpha"/>
      <feGaussianBlur stdDeviation="10" result="blur-7"/>
      <feFlood flood-opacity="0.078"/>
      <feComposite operator="in" in2="blur-7"/>
      <feComposite in="SourceGraphic"/>
    </filter>
    <filter id="Path_10" x="1211" y="804" width="185.126" height="184.864" filterUnits="userSpaceOnUse">
      <feOffset dx="10" dy="10" input="SourceAlpha"/>
      <feGaussianBlur stdDeviation="10" result="blur-8"/>
      <feFlood flood-opacity="0.078"/>
      <feComposite operator="in" in2="blur-8"/>
      <feComposite in="SourceGraphic"/>
    </filter>
    <filter id="Path_11" x="1134" y="878" width="185.126" height="184.864" filterUnits="userSpaceOnUse">
      <feOffset dx="10" dy="10" input="SourceAlpha"/>
      <feGaussianBlur stdDeviation="10" result="blur-9"/>
      <feFlood flood-opacity="0.078"/>
      <feComposite operator="in" in2="blur-9"/>
      <feComposite in="SourceGraphic"/>
    </filter>
    <filter id="Path_12" x="1673" y="656" width="185.126" height="184.864" filterUnits="userSpaceOnUse">
      <feOffset dx="10" dy="10" input="SourceAlpha"/>
      <feGaussianBlur stdDeviation="10" result="blur-10"/>
      <feFlood flood-opacity="0.078"/>
      <feComposite operator="in" in2="blur-10"/>
      <feComposite in="SourceGraphic"/>
    </filter>
    <filter id="Path_13" x="1596" y="730" width="185.126" height="184.864" filterUnits="userSpaceOnUse">
      <feOffset dx="10" dy="10" input="SourceAlpha"/>
      <feGaussianBlur stdDeviation="10" result="blur-11"/>
      <feFlood flood-opacity="0.078"/>
      <feComposite operator="in" in2="blur-11"/>
      <feComposite in="SourceGraphic"/>
    </filter>
    <filter id="Path_14" x="1520" y="656" width="185.126" height="184.864" filterUnits="userSpaceOnUse">
      <feOffset dx="10" dy="10" input="SourceAlpha"/>
      <feGaussianBlur stdDeviation="10" result="blur-12"/>
      <feFlood flood-opacity="0.078"/>
      <feComposite operator="in" in2="blur-12"/>
      <feComposite in="SourceGraphic"/>
    </filter>
    <filter id="Path_15" x="1443" y="730" width="185.126" height="184.864" filterUnits="userSpaceOnUse">
      <feOffset dx="10" dy="10" input="SourceAlpha"/>
      <feGaussianBlur stdDeviation="10" result="blur-13"/>
      <feFlood flood-opacity="0.078"/>
      <feComposite operator="in" in2="blur-13"/>
      <feComposite in="SourceGraphic"/>
    </filter>
    <filter id="Path_16" x="1371" y="656" width="185.126" height="184.864" filterUnits="userSpaceOnUse">
      <feOffset dx="10" dy="10" input="SourceAlpha"/>
      <feGaussianBlur stdDeviation="10" result="blur-14"/>
      <feFlood flood-opacity="0.078"/>
      <feComposite operator="in" in2="blur-14"/>
      <feComposite in="SourceGraphic"/>
    </filter>
    <filter id="Path_17" x="1294" y="730" width="185.126" height="184.864" filterUnits="userSpaceOnUse">
      <feOffset dx="10" dy="10" input="SourceAlpha"/>
      <feGaussianBlur stdDeviation="10" result="blur-15"/>
      <feFlood flood-opacity="0.078"/>
      <feComposite operator="in" in2="blur-15"/>
      <feComposite in="SourceGraphic"/>
    </filter>
    <filter id="Path_18" x="1218" y="656" width="185.126" height="184.864" filterUnits="userSpaceOnUse">
      <feOffset dx="10" dy="10" input="SourceAlpha"/>
      <feGaussianBlur stdDeviation="10" result="blur-16"/>
      <feFlood flood-opacity="0.078"/>
      <feComposite operator="in" in2="blur-16"/>
      <feComposite in="SourceGraphic"/>
    </filter>
    <filter id="Path_19" x="1141" y="730" width="185.126" height="184.864" filterUnits="userSpaceOnUse">
      <feOffset dx="10" dy="10" input="SourceAlpha"/>
      <feGaussianBlur stdDeviation="10" result="blur-17"/>
      <feFlood flood-opacity="0.078"/>
      <feComposite operator="in" in2="blur-17"/>
      <feComposite in="SourceGraphic"/>
    </filter>
    <filter id="Path_20" x="230" y="296" width="185.126" height="184.864" filterUnits="userSpaceOnUse">
      <feOffset dx="10" dy="10" input="SourceAlpha"/>
      <feGaussianBlur stdDeviation="10" result="blur-18"/>
      <feFlood flood-opacity="0.078"/>
      <feComposite operator="in" in2="blur-18"/>
      <feComposite in="SourceGraphic"/>
    </filter>
    <filter id="Path_21" x="153" y="370" width="185.126" height="184.864" filterUnits="userSpaceOnUse">
      <feOffset dx="10" dy="10" input="SourceAlpha"/>
      <feGaussianBlur stdDeviation="10" result="blur-19"/>
      <feFlood flood-opacity="0.078"/>
      <feComposite operator="in" in2="blur-19"/>
      <feComposite in="SourceGraphic"/>
    </filter>
    <filter id="Path_22" x="77" y="296" width="185.126" height="184.864" filterUnits="userSpaceOnUse">
      <feOffset dx="10" dy="10" input="SourceAlpha"/>
      <feGaussianBlur stdDeviation="10" result="blur-20"/>
      <feFlood flood-opacity="0.078"/>
      <feComposite operator="in" in2="blur-20"/>
      <feComposite in="SourceGraphic"/>
    </filter>
    <filter id="Path_23" x="0" y="370" width="185.126" height="184.864" filterUnits="userSpaceOnUse">
      <feOffset dx="10" dy="10" input="SourceAlpha"/>
      <feGaussianBlur stdDeviation="10" result="blur-21"/>
      <feFlood flood-opacity="0.078"/>
      <feComposite operator="in" in2="blur-21"/>
      <feComposite in="SourceGraphic"/>
    </filter>
    <filter id="Path_24" x="1371" y="508" width="185.126" height="184.864" filterUnits="userSpaceOnUse">
      <feOffset dx="10" dy="10" input="SourceAlpha"/>
      <feGaussianBlur stdDeviation="10" result="blur-22"/>
      <feFlood flood-opacity="0.078"/>
      <feComposite operator="in" in2="blur-22"/>
      <feComposite in="SourceGraphic"/>
    </filter>
    <filter id="Path_25" x="1294" y="582" width="185.126" height="184.864" filterUnits="userSpaceOnUse">
      <feOffset dx="10" dy="10" input="SourceAlpha"/>
      <feGaussianBlur stdDeviation="10" result="blur-23"/>
      <feFlood flood-opacity="0.078"/>
      <feComposite operator="in" in2="blur-23"/>
      <feComposite in="SourceGraphic"/>
    </filter>
    <filter id="Path_26" x="1218" y="508" width="185.126" height="184.864" filterUnits="userSpaceOnUse">
      <feOffset dx="10" dy="10" input="SourceAlpha"/>
      <feGaussianBlur stdDeviation="10" result="blur-24"/>
      <feFlood flood-opacity="0.078"/>
      <feComposite operator="in" in2="blur-24"/>
      <feComposite in="SourceGraphic"/>
    </filter>
    <filter id="Path_27" x="1141" y="582" width="185.126" height="184.864" filterUnits="userSpaceOnUse">
      <feOffset dx="10" dy="10" input="SourceAlpha"/>
      <feGaussianBlur stdDeviation="10" result="blur-25"/>
      <feFlood flood-opacity="0.078"/>
      <feComposite operator="in" in2="blur-25"/>
      <feComposite in="SourceGraphic"/>
    </filter>
    <filter id="Path_28" x="841" y="296" width="185.126" height="184.864" filterUnits="userSpaceOnUse">
      <feOffset dx="10" dy="10" input="SourceAlpha"/>
      <feGaussianBlur stdDeviation="10" result="blur-26"/>
      <feFlood flood-opacity="0.078"/>
      <feComposite operator="in" in2="blur-26"/>
      <feComposite in="SourceGraphic"/>
    </filter>
    <filter id="Path_29" x="764" y="370" width="185.126" height="184.864" filterUnits="userSpaceOnUse">
      <feOffset dx="10" dy="10" input="SourceAlpha"/>
      <feGaussianBlur stdDeviation="10" result="blur-27"/>
      <feFlood flood-opacity="0.078"/>
      <feComposite operator="in" in2="blur-27"/>
      <feComposite in="SourceGraphic"/>
    </filter>
    <filter id="Path_30" x="688" y="296" width="185.126" height="184.864" filterUnits="userSpaceOnUse">
      <feOffset dx="10" dy="10" input="SourceAlpha"/>
      <feGaussianBlur stdDeviation="10" result="blur-28"/>
      <feFlood flood-opacity="0.078"/>
      <feComposite operator="in" in2="blur-28"/>
      <feComposite in="SourceGraphic"/>
    </filter>
    <filter id="Path_31" x="611" y="370" width="185.126" height="184.864" filterUnits="userSpaceOnUse">
      <feOffset dx="10" dy="10" input="SourceAlpha"/>
      <feGaussianBlur stdDeviation="10" result="blur-29"/>
      <feFlood flood-opacity="0.078"/>
      <feComposite operator="in" in2="blur-29"/>
      <feComposite in="SourceGraphic"/>
    </filter>
    <filter id="Path_32" x="532" y="296" width="185.126" height="184.864" filterUnits="userSpaceOnUse">
      <feOffset dx="10" dy="10" input="SourceAlpha"/>
      <feGaussianBlur stdDeviation="10" result="blur-30"/>
      <feFlood flood-opacity="0.078"/>
      <feComposite operator="in" in2="blur-30"/>
      <feComposite in="SourceGraphic"/>
    </filter>
    <filter id="Path_33" x="455" y="370" width="185.126" height="184.864" filterUnits="userSpaceOnUse">
      <feOffset dx="10" dy="10" input="SourceAlpha"/>
      <feGaussianBlur stdDeviation="10" result="blur-31"/>
      <feFlood flood-opacity="0.078"/>
      <feComposite operator="in" in2="blur-31"/>
      <feComposite in="SourceGraphic"/>
    </filter>
    <filter id="Path_34" x="379" y="296" width="185.126" height="184.864" filterUnits="userSpaceOnUse">
      <feOffset dx="10" dy="10" input="SourceAlpha"/>
      <feGaussianBlur stdDeviation="10" result="blur-32"/>
      <feFlood flood-opacity="0.078"/>
      <feComposite operator="in" in2="blur-32"/>
      <feComposite in="SourceGraphic"/>
    </filter>
    <filter id="Path_35" x="302" y="370" width="185.126" height="184.864" filterUnits="userSpaceOnUse">
      <feOffset dx="10" dy="10" input="SourceAlpha"/>
      <feGaussianBlur stdDeviation="10" result="blur-33"/>
      <feFlood flood-opacity="0.078"/>
      <feComposite operator="in" in2="blur-33"/>
      <feComposite in="SourceGraphic"/>
    </filter>
    <filter id="Path_36" x="841" y="148" width="185.126" height="184.864" filterUnits="userSpaceOnUse">
      <feOffset dx="10" dy="10" input="SourceAlpha"/>
      <feGaussianBlur stdDeviation="10" result="blur-34"/>
      <feFlood flood-opacity="0.078"/>
      <feComposite operator="in" in2="blur-34"/>
      <feComposite in="SourceGraphic"/>
    </filter>
    <filter id="Path_37" x="764" y="222" width="185.126" height="184.864" filterUnits="userSpaceOnUse">
      <feOffset dx="10" dy="10" input="SourceAlpha"/>
      <feGaussianBlur stdDeviation="10" result="blur-35"/>
      <feFlood flood-opacity="0.078"/>
      <feComposite operator="in" in2="blur-35"/>
      <feComposite in="SourceGraphic"/>
    </filter>
    <filter id="Path_38" x="688" y="148" width="185.126" height="184.864" filterUnits="userSpaceOnUse">
      <feOffset dx="10" dy="10" input="SourceAlpha"/>
      <feGaussianBlur stdDeviation="10" result="blur-36"/>
      <feFlood flood-opacity="0.078"/>
      <feComposite operator="in" in2="blur-36"/>
      <feComposite in="SourceGraphic"/>
    </filter>
    <filter id="Path_39" x="611" y="222" width="185.126" height="184.864" filterUnits="userSpaceOnUse">
      <feOffset dx="10" dy="10" input="SourceAlpha"/>
      <feGaussianBlur stdDeviation="10" result="blur-37"/>
      <feFlood flood-opacity="0.078"/>
      <feComposite operator="in" in2="blur-37"/>
      <feComposite in="SourceGraphic"/>
    </filter>
    <filter id="Path_40" x="539" y="148" width="185.126" height="184.864" filterUnits="userSpaceOnUse">
      <feOffset dx="10" dy="10" input="SourceAlpha"/>
      <feGaussianBlur stdDeviation="10" result="blur-38"/>
      <feFlood flood-opacity="0.078"/>
      <feComposite operator="in" in2="blur-38"/>
      <feComposite in="SourceGraphic"/>
    </filter>
    <filter id="Path_41" x="462" y="222" width="185.126" height="184.864" filterUnits="userSpaceOnUse">
      <feOffset dx="10" dy="10" input="SourceAlpha"/>
      <feGaussianBlur stdDeviation="10" result="blur-39"/>
      <feFlood flood-opacity="0.078"/>
      <feComposite operator="in" in2="blur-39"/>
      <feComposite in="SourceGraphic"/>
    </filter>
    <filter id="Path_42" x="386" y="148" width="185.126" height="184.864" filterUnits="userSpaceOnUse">
      <feOffset dx="10" dy="10" input="SourceAlpha"/>
      <feGaussianBlur stdDeviation="10" result="blur-40"/>
      <feFlood flood-opacity="0.078"/>
      <feComposite operator="in" in2="blur-40"/>
      <feComposite in="SourceGraphic"/>
    </filter>
    <filter id="Path_43" x="309" y="222" width="185.126" height="184.864" filterUnits="userSpaceOnUse">
      <feOffset dx="10" dy="10" input="SourceAlpha"/>
      <feGaussianBlur stdDeviation="10" result="blur-41"/>
      <feFlood flood-opacity="0.078"/>
      <feComposite operator="in" in2="blur-41"/>
      <feComposite in="SourceGraphic"/>
    </filter>
    <filter id="Path_44" x="230" y="148" width="185.126" height="184.864" filterUnits="userSpaceOnUse">
      <feOffset dx="10" dy="10" input="SourceAlpha"/>
      <feGaussianBlur stdDeviation="10" result="blur-42"/>
      <feFlood flood-opacity="0.078"/>
      <feComposite operator="in" in2="blur-42"/>
      <feComposite in="SourceGraphic"/>
    </filter>
    <filter id="Path_45" x="153" y="222" width="185.126" height="184.864" filterUnits="userSpaceOnUse">
      <feOffset dx="10" dy="10" input="SourceAlpha"/>
      <feGaussianBlur stdDeviation="10" result="blur-43"/>
      <feFlood flood-opacity="0.078"/>
      <feComposite operator="in" in2="blur-43"/>
      <feComposite in="SourceGraphic"/>
    </filter>
    <filter id="Path_46" x="77" y="148" width="185.126" height="184.864" filterUnits="userSpaceOnUse">
      <feOffset dx="10" dy="10" input="SourceAlpha"/>
      <feGaussianBlur stdDeviation="10" result="blur-44"/>
      <feFlood flood-opacity="0.078"/>
      <feComposite operator="in" in2="blur-44"/>
      <feComposite in="SourceGraphic"/>
    </filter>
    <filter id="Path_47" x="0" y="222" width="185.126" height="184.864" filterUnits="userSpaceOnUse">
      <feOffset dx="10" dy="10" input="SourceAlpha"/>
      <feGaussianBlur stdDeviation="10" result="blur-45"/>
      <feFlood flood-opacity="0.078"/>
      <feComposite operator="in" in2="blur-45"/>
      <feComposite in="SourceGraphic"/>
    </filter>
    <filter id="Path_48" x="539" y="0" width="185.126" height="184.864" filterUnits="userSpaceOnUse">
      <feOffset dx="10" dy="10" input="SourceAlpha"/>
      <feGaussianBlur stdDeviation="10" result="blur-46"/>
      <feFlood flood-opacity="0.078"/>
      <feComposite operator="in" in2="blur-46"/>
      <feComposite in="SourceGraphic"/>
    </filter>
    <filter id="Path_49" x="462" y="74" width="185.126" height="184.864" filterUnits="userSpaceOnUse">
      <feOffset dx="10" dy="10" input="SourceAlpha"/>
      <feGaussianBlur stdDeviation="10" result="blur-47"/>
      <feFlood flood-opacity="0.078"/>
      <feComposite operator="in" in2="blur-47"/>
      <feComposite in="SourceGraphic"/>
    </filter>
    <filter id="Path_50" x="386" y="0" width="185.126" height="184.864" filterUnits="userSpaceOnUse">
      <feOffset dx="10" dy="10" input="SourceAlpha"/>
      <feGaussianBlur stdDeviation="10" result="blur-48"/>
      <feFlood flood-opacity="0.078"/>
      <feComposite operator="in" in2="blur-48"/>
      <feComposite in="SourceGraphic"/>
    </filter>
    <filter id="Path_51" x="309" y="74" width="185.126" height="184.864" filterUnits="userSpaceOnUse">
      <feOffset dx="10" dy="10" input="SourceAlpha"/>
      <feGaussianBlur stdDeviation="10" result="blur-49"/>
      <feFlood flood-opacity="0.078"/>
      <feComposite operator="in" in2="blur-49"/>
      <feComposite in="SourceGraphic"/>
    </filter>
    <filter id="Path_52" x="306" y="519" width="185.126" height="184.864" filterUnits="userSpaceOnUse">
      <feOffset dx="10" dy="10" input="SourceAlpha"/>
      <feGaussianBlur stdDeviation="10" result="blur-50"/>
      <feFlood flood-opacity="0.078"/>
      <feComposite operator="in" in2="blur-50"/>
      <feComposite in="SourceGraphic"/>
    </filter>
    <filter id="Path_53" x="229" y="593" width="185.126" height="184.864" filterUnits="userSpaceOnUse">
      <feOffset dx="10" dy="10" input="SourceAlpha"/>
      <feGaussianBlur stdDeviation="10" result="blur-51"/>
      <feFlood flood-opacity="0.078"/>
      <feComposite operator="in" in2="blur-51"/>
      <feComposite in="SourceGraphic"/>
    </filter>
    <filter id="Path_54" x="153" y="519" width="185.126" height="184.864" filterUnits="userSpaceOnUse">
      <feOffset dx="10" dy="10" input="SourceAlpha"/>
      <feGaussianBlur stdDeviation="10" result="blur-52"/>
      <feFlood flood-opacity="0.078"/>
      <feComposite operator="in" in2="blur-52"/>
      <feComposite in="SourceGraphic"/>
    </filter>
    <filter id="Path_55" x="229" y="445" width="185.126" height="184.864" filterUnits="userSpaceOnUse">
      <feOffset dx="10" dy="10" input="SourceAlpha"/>
      <feGaussianBlur stdDeviation="10" result="blur-53"/>
      <feFlood flood-opacity="0.078"/>
      <feComposite operator="in" in2="blur-53"/>
      <feComposite in="SourceGraphic"/>
    </filter>
    <filter id="Path_56" x="1063" y="804" width="185.126" height="184.864" filterUnits="userSpaceOnUse">
      <feOffset dx="10" dy="10" input="SourceAlpha"/>
      <feGaussianBlur stdDeviation="10" result="blur-54"/>
      <feFlood flood-opacity="0.078"/>
      <feComposite operator="in" in2="blur-54"/>
      <feComposite in="SourceGraphic"/>
    </filter>
    <filter id="Path_57" x="986" y="878" width="185.126" height="184.864" filterUnits="userSpaceOnUse">
      <feOffset dx="10" dy="10" input="SourceAlpha"/>
      <feGaussianBlur stdDeviation="10" result="blur-55"/>
      <feFlood flood-opacity="0.078"/>
      <feComposite operator="in" in2="blur-55"/>
      <feComposite in="SourceGraphic"/>
    </filter>
    <filter id="Path_58" x="910" y="804" width="185.126" height="184.864" filterUnits="userSpaceOnUse">
      <feOffset dx="10" dy="10" input="SourceAlpha"/>
      <feGaussianBlur stdDeviation="10" result="blur-56"/>
      <feFlood flood-opacity="0.078"/>
      <feComposite operator="in" in2="blur-56"/>
      <feComposite in="SourceGraphic"/>
    </filter>
    <filter id="Path_59" x="833" y="878" width="185.126" height="184.864" filterUnits="userSpaceOnUse">
      <feOffset dx="10" dy="10" input="SourceAlpha"/>
      <feGaussianBlur stdDeviation="10" result="blur-57"/>
      <feFlood flood-opacity="0.078"/>
      <feComposite operator="in" in2="blur-57"/>
      <feComposite in="SourceGraphic"/>
    </filter>
    <filter id="Path_60" x="754" y="804" width="185.126" height="184.864" filterUnits="userSpaceOnUse">
      <feOffset dx="10" dy="10" input="SourceAlpha"/>
      <feGaussianBlur stdDeviation="10" result="blur-58"/>
      <feFlood flood-opacity="0.078"/>
      <feComposite operator="in" in2="blur-58"/>
      <feComposite in="SourceGraphic"/>
    </filter>
    <filter id="Path_61" x="986" y="730" width="185.126" height="184.864" filterUnits="userSpaceOnUse">
      <feOffset dx="10" dy="10" input="SourceAlpha"/>
      <feGaussianBlur stdDeviation="10" result="blur-59"/>
      <feFlood flood-opacity="0.078"/>
      <feComposite operator="in" in2="blur-59"/>
      <feComposite in="SourceGraphic"/>
    </filter>
    <filter id="Path_62" x="833" y="730" width="185.126" height="184.864" filterUnits="userSpaceOnUse">
      <feOffset dx="10" dy="10" input="SourceAlpha"/>
      <feGaussianBlur stdDeviation="10" result="blur-60"/>
      <feFlood flood-opacity="0.078"/>
      <feComposite operator="in" in2="blur-60"/>
      <feComposite in="SourceGraphic"/>
    </filter>
  </defs>
  <g id="sace" transform="translate(30 30)">
    <g transform="matrix(1, 0, 0, 1, -30, -30)" filter="url(#Path_1)">
      <path id="Path_1-2" data-name="Path 1" d="M406,659" transform="translate(-65 -13.67)" fill="none" stroke="#707070" stroke-width="1"/>
    </g>
    <g transform="matrix(1, 0, 0, 1, -30, -30)" filter="url(#Path_4)">
      <path id="Path_4-2" data-name="Path 4" d="M437,594.106l31.48-30.436h42.709l30.937,30.436v42.661l-30.937,31.767H468.48L437,636.767Z" transform="translate(1266 270.33)" fill="none" stroke="#fdfdfd" stroke-width="20"/>
    </g>
    <g transform="matrix(1, 0, 0, 1, -30, -30)" filter="url(#Path_5)">
      <path id="Path_5-2" data-name="Path 5" d="M437,594.106l31.48-30.436h42.709l30.937,30.436v42.661l-30.937,31.767H468.48L437,636.767Z" transform="translate(1189 344.33)" fill="none" stroke="#fdfdfd" stroke-width="20"/>
    </g>
    <g transform="matrix(1, 0, 0, 1, -30, -30)" filter="url(#Path_6)">
      <path id="Path_6-2" data-name="Path 6" d="M437,594.106l31.48-30.436h42.709l30.937,30.436v42.661l-30.937,31.767H468.48L437,636.767Z" transform="translate(1113 270.33)" fill="none" stroke="#fdfdfd" stroke-width="20"/>
    </g>
    <g transform="matrix(1, 0, 0, 1, -30, -30)" filter="url(#Path_7)">
      <path id="Path_7-2" data-name="Path 7" d="M437,594.106l31.48-30.436h42.709l30.937,30.436v42.661l-30.937,31.767H468.48L437,636.767Z" transform="translate(1036 344.33)" fill="none" stroke="#fdfdfd" stroke-width="20"/>
    </g>
    <g transform="matrix(1, 0, 0, 1, -30, -30)" filter="url(#Path_8)">
      <path id="Path_8-2" data-name="Path 8" d="M437,594.106l31.48-30.436h42.709l30.937,30.436v42.661l-30.937,31.767H468.48L437,636.767Z" transform="translate(957 270.33)" fill="none" stroke="#fdfdfd" stroke-width="20"/>
    </g>
    <g transform="matrix(1, 0, 0, 1, -30, -30)" filter="url(#Path_9)">
      <path id="Path_9-2" data-name="Path 9" d="M437,594.106l31.48-30.436h42.709l30.937,30.436v42.661l-30.937,31.767H468.48L437,636.767Z" transform="translate(880 344.33)" fill="none" stroke="#fdfdfd" stroke-width="20"/>
    </g>
    <g transform="matrix(1, 0, 0, 1, -30, -30)" filter="url(#Path_10)">
      <path id="Path_10-2" data-name="Path 10" d="M437,594.106l31.48-30.436h42.709l30.937,30.436v42.661l-30.937,31.767H468.48L437,636.767Z" transform="translate(804 270.33)" fill="none" stroke="#fdfdfd" stroke-width="20"/>
    </g>
    <g transform="matrix(1, 0, 0, 1, -30, -30)" filter="url(#Path_11)">
      <path id="Path_11-2" data-name="Path 11" d="M437,594.106l31.48-30.436h42.709l30.937,30.436v42.661l-30.937,31.767H468.48L437,636.767Z" transform="translate(727 344.33)" fill="none" stroke="#fdfdfd" stroke-width="20"/>
    </g>
    <g transform="matrix(1, 0, 0, 1, -30, -30)" filter="url(#Path_12)">
      <path id="Path_12-2" data-name="Path 12" d="M437,594.106l31.48-30.436h42.709l30.937,30.436v42.661l-30.937,31.767H468.48L437,636.767Z" transform="translate(1266 122.33)" fill="none" stroke="#fdfdfd" stroke-width="20"/>
    </g>
    <g transform="matrix(1, 0, 0, 1, -30, -30)" filter="url(#Path_13)">
      <path id="Path_13-2" data-name="Path 13" d="M437,594.106l31.48-30.436h42.709l30.937,30.436v42.661l-30.937,31.767H468.48L437,636.767Z" transform="translate(1189 196.33)" fill="none" stroke="#fdfdfd" stroke-width="20"/>
    </g>
    <g transform="matrix(1, 0, 0, 1, -30, -30)" filter="url(#Path_14)">
      <path id="Path_14-2" data-name="Path 14" d="M437,594.106l31.48-30.436h42.709l30.937,30.436v42.661l-30.937,31.767H468.48L437,636.767Z" transform="translate(1113 122.33)" fill="none" stroke="#fdfdfd" stroke-width="20"/>
    </g>
    <g transform="matrix(1, 0, 0, 1, -30, -30)" filter="url(#Path_15)">
      <path id="Path_15-2" data-name="Path 15" d="M437,594.106l31.48-30.436h42.709l30.937,30.436v42.661l-30.937,31.767H468.48L437,636.767Z" transform="translate(1036 196.33)" fill="none" stroke="#fdfdfd" stroke-width="20"/>
    </g>
    <g transform="matrix(1, 0, 0, 1, -30, -30)" filter="url(#Path_16)">
      <path id="Path_16-2" data-name="Path 16" d="M437,594.106l31.48-30.436h42.709l30.937,30.436v42.661l-30.937,31.767H468.48L437,636.767Z" transform="translate(964 122.33)" fill="none" stroke="#fdfdfd" stroke-width="20"/>
    </g>
    <g transform="matrix(1, 0, 0, 1, -30, -30)" filter="url(#Path_17)">
      <path id="Path_17-2" data-name="Path 17" d="M437,594.106l31.48-30.436h42.709l30.937,30.436v42.661l-30.937,31.767H468.48L437,636.767Z" transform="translate(887 196.33)" fill="none" stroke="#fdfdfd" stroke-width="20"/>
    </g>
    <g transform="matrix(1, 0, 0, 1, -30, -30)" filter="url(#Path_18)">
      <path id="Path_18-2" data-name="Path 18" d="M437,594.106l31.48-30.436h42.709l30.937,30.436v42.661l-30.937,31.767H468.48L437,636.767Z" transform="translate(811 122.33)" fill="none" stroke="#fdfdfd" stroke-width="20"/>
    </g>
    <g transform="matrix(1, 0, 0, 1, -30, -30)" filter="url(#Path_19)">
      <path id="Path_19-2" data-name="Path 19" d="M437,594.106l31.48-30.436h42.709l30.937,30.436v42.661l-30.937,31.767H468.48L437,636.767Z" transform="translate(734 196.33)" fill="none" stroke="#fdfdfd" stroke-width="20"/>
    </g>
    <g transform="matrix(1, 0, 0, 1, -30, -30)" filter="url(#Path_20)">
      <path id="Path_20-2" data-name="Path 20" d="M437,594.106l31.48-30.436h42.709l30.937,30.436v42.661l-30.937,31.767H468.48L437,636.767Z" transform="translate(-177 -237.67)" fill="none" stroke="#fdfdfd" stroke-width="20"/>
    </g>
    <g transform="matrix(1, 0, 0, 1, -30, -30)" filter="url(#Path_21)">
      <path id="Path_21-2" data-name="Path 21" d="M437,594.106l31.48-30.436h42.709l30.937,30.436v42.661l-30.937,31.767H468.48L437,636.767Z" transform="translate(-254 -163.67)" fill="none" stroke="#fdfdfd" stroke-width="20"/>
    </g>
    <g transform="matrix(1, 0, 0, 1, -30, -30)" filter="url(#Path_22)">
      <path id="Path_22-2" data-name="Path 22" d="M437,594.106l31.48-30.436h42.709l30.937,30.436v42.661l-30.937,31.767H468.48L437,636.767Z" transform="translate(-330 -237.67)" fill="none" stroke="#fdfdfd" stroke-width="20"/>
    </g>
    <g transform="matrix(1, 0, 0, 1, -30, -30)" filter="url(#Path_23)">
      <path id="Path_23-2" data-name="Path 23" d="M437,594.106l31.48-30.436h42.709l30.937,30.436v42.661l-30.937,31.767H468.48L437,636.767Z" transform="translate(-407 -163.67)" fill="none" stroke="#fdfdfd" stroke-width="20"/>
    </g>
    <g transform="matrix(1, 0, 0, 1, -30, -30)" filter="url(#Path_24)">
      <path id="Path_24-2" data-name="Path 24" d="M437,594.106l31.48-30.436h42.709l30.937,30.436v42.661l-30.937,31.767H468.48L437,636.767Z" transform="translate(964 -25.67)" fill="none" stroke="#fdfdfd" stroke-width="20"/>
    </g>
    <g transform="matrix(1, 0, 0, 1, -30, -30)" filter="url(#Path_25)">
      <path id="Path_25-2" data-name="Path 25" d="M437,594.106l31.48-30.436h42.709l30.937,30.436v42.661l-30.937,31.767H468.48L437,636.767Z" transform="translate(887 48.33)" fill="none" stroke="#fdfdfd" stroke-width="20"/>
    </g>
    <g transform="matrix(1, 0, 0, 1, -30, -30)" filter="url(#Path_26)">
      <path id="Path_26-2" data-name="Path 26" d="M437,594.106l31.48-30.436h42.709l30.937,30.436v42.661l-30.937,31.767H468.48L437,636.767Z" transform="translate(811 -25.67)" fill="none" stroke="#fdfdfd" stroke-width="20"/>
    </g>
    <g transform="matrix(1, 0, 0, 1, -30, -30)" filter="url(#Path_27)">
      <path id="Path_27-2" data-name="Path 27" d="M437,594.106l31.48-30.436h42.709l30.937,30.436v42.661l-30.937,31.767H468.48L437,636.767Z" transform="translate(734 48.33)" fill="none" stroke="#fdfdfd" stroke-width="20"/>
    </g>
    <g transform="matrix(1, 0, 0, 1, -30, -30)" filter="url(#Path_28)">
      <path id="Path_28-2" data-name="Path 28" d="M437,594.106l31.48-30.436h42.709l30.937,30.436v42.661l-30.937,31.767H468.48L437,636.767Z" transform="translate(434 -237.67)" fill="none" stroke="#fdfdfd" stroke-width="20"/>
    </g>
    <g transform="matrix(1, 0, 0, 1, -30, -30)" filter="url(#Path_29)">
      <path id="Path_29-2" data-name="Path 29" d="M437,594.106l31.48-30.436h42.709l30.937,30.436v42.661l-30.937,31.767H468.48L437,636.767Z" transform="translate(357 -163.67)" fill="none" stroke="#fdfdfd" stroke-width="20"/>
    </g>
    <g transform="matrix(1, 0, 0, 1, -30, -30)" filter="url(#Path_30)">
      <path id="Path_30-2" data-name="Path 30" d="M437,594.106l31.48-30.436h42.709l30.937,30.436v42.661l-30.937,31.767H468.48L437,636.767Z" transform="translate(281 -237.67)" fill="none" stroke="#fdfdfd" stroke-width="20"/>
    </g>
    <g transform="matrix(1, 0, 0, 1, -30, -30)" filter="url(#Path_31)">
      <path id="Path_31-2" data-name="Path 31" d="M437,594.106l31.48-30.436h42.709l30.937,30.436v42.661l-30.937,31.767H468.48L437,636.767Z" transform="translate(204 -163.67)" fill="none" stroke="#fdfdfd" stroke-width="20"/>
    </g>
    <g transform="matrix(1, 0, 0, 1, -30, -30)" filter="url(#Path_32)">
      <path id="Path_32-2" data-name="Path 32" d="M437,594.106l31.48-30.436h42.709l30.937,30.436v42.661l-30.937,31.767H468.48L437,636.767Z" transform="translate(125 -237.67)" fill="none" stroke="#fdfdfd" stroke-width="20"/>
    </g>
    <g transform="matrix(1, 0, 0, 1, -30, -30)" filter="url(#Path_33)">
      <path id="Path_33-2" data-name="Path 33" d="M437,594.106l31.48-30.436h42.709l30.937,30.436v42.661l-30.937,31.767H468.48L437,636.767Z" transform="translate(48 -163.67)" fill="none" stroke="#fdfdfd" stroke-width="20"/>
    </g>
    <g transform="matrix(1, 0, 0, 1, -30, -30)" filter="url(#Path_34)">
      <path id="Path_34-2" data-name="Path 34" d="M437,594.106l31.48-30.436h42.709l30.937,30.436v42.661l-30.937,31.767H468.48L437,636.767Z" transform="translate(-28 -237.67)" fill="none" stroke="#fdfdfd" stroke-width="20"/>
    </g>
    <g transform="matrix(1, 0, 0, 1, -30, -30)" filter="url(#Path_35)">
      <path id="Path_35-2" data-name="Path 35" d="M437,594.106l31.48-30.436h42.709l30.937,30.436v42.661l-30.937,31.767H468.48L437,636.767Z" transform="translate(-105 -163.67)" fill="none" stroke="#fdfdfd" stroke-width="20"/>
    </g>
    <g transform="matrix(1, 0, 0, 1, -30, -30)" filter="url(#Path_36)">
      <path id="Path_36-2" data-name="Path 36" d="M437,594.106l31.48-30.436h42.709l30.937,30.436v42.661l-30.937,31.767H468.48L437,636.767Z" transform="translate(434 -385.67)" fill="none" stroke="#fdfdfd" stroke-width="20"/>
    </g>
    <g transform="matrix(1, 0, 0, 1, -30, -30)" filter="url(#Path_37)">
      <path id="Path_37-2" data-name="Path 37" d="M437,594.106l31.48-30.436h42.709l30.937,30.436v42.661l-30.937,31.767H468.48L437,636.767Z" transform="translate(357 -311.67)" fill="none" stroke="#fdfdfd" stroke-width="20"/>
    </g>
    <g transform="matrix(1, 0, 0, 1, -30, -30)" filter="url(#Path_38)">
      <path id="Path_38-2" data-name="Path 38" d="M437,594.106l31.48-30.436h42.709l30.937,30.436v42.661l-30.937,31.767H468.48L437,636.767Z" transform="translate(281 -385.67)" fill="none" stroke="#fdfdfd" stroke-width="20"/>
    </g>
    <g transform="matrix(1, 0, 0, 1, -30, -30)" filter="url(#Path_39)">
      <path id="Path_39-2" data-name="Path 39" d="M437,594.106l31.48-30.436h42.709l30.937,30.436v42.661l-30.937,31.767H468.48L437,636.767Z" transform="translate(204 -311.67)" fill="none" stroke="#fdfdfd" stroke-width="20"/>
    </g>
    <g transform="matrix(1, 0, 0, 1, -30, -30)" filter="url(#Path_40)">
      <path id="Path_40-2" data-name="Path 40" d="M437,594.106l31.48-30.436h42.709l30.937,30.436v42.661l-30.937,31.767H468.48L437,636.767Z" transform="translate(132 -385.67)" fill="none" stroke="#fdfdfd" stroke-width="20"/>
    </g>
    <g transform="matrix(1, 0, 0, 1, -30, -30)" filter="url(#Path_41)">
      <path id="Path_41-2" data-name="Path 41" d="M437,594.106l31.48-30.436h42.709l30.937,30.436v42.661l-30.937,31.767H468.48L437,636.767Z" transform="translate(55 -311.67)" fill="none" stroke="#fdfdfd" stroke-width="20"/>
    </g>
    <g transform="matrix(1, 0, 0, 1, -30, -30)" filter="url(#Path_42)">
      <path id="Path_42-2" data-name="Path 42" d="M437,594.106l31.48-30.436h42.709l30.937,30.436v42.661l-30.937,31.767H468.48L437,636.767Z" transform="translate(-21 -385.67)" fill="none" stroke="#fdfdfd" stroke-width="20"/>
    </g>
    <g transform="matrix(1, 0, 0, 1, -30, -30)" filter="url(#Path_43)">
      <path id="Path_43-2" data-name="Path 43" d="M437,594.106l31.48-30.436h42.709l30.937,30.436v42.661l-30.937,31.767H468.48L437,636.767Z" transform="translate(-98 -311.67)" fill="none" stroke="#fdfdfd" stroke-width="20"/>
    </g>
    <g transform="matrix(1, 0, 0, 1, -30, -30)" filter="url(#Path_44)">
      <path id="Path_44-2" data-name="Path 44" d="M437,594.106l31.48-30.436h42.709l30.937,30.436v42.661l-30.937,31.767H468.48L437,636.767Z" transform="translate(-177 -385.67)" fill="none" stroke="#fdfdfd" stroke-width="20"/>
    </g>
    <g transform="matrix(1, 0, 0, 1, -30, -30)" filter="url(#Path_45)">
      <path id="Path_45-2" data-name="Path 45" d="M437,594.106l31.48-30.436h42.709l30.937,30.436v42.661l-30.937,31.767H468.48L437,636.767Z" transform="translate(-254 -311.67)" fill="none" stroke="#fdfdfd" stroke-width="20"/>
    </g>
    <g transform="matrix(1, 0, 0, 1, -30, -30)" filter="url(#Path_46)">
      <path id="Path_46-2" data-name="Path 46" d="M437,594.106l31.48-30.436h42.709l30.937,30.436v42.661l-30.937,31.767H468.48L437,636.767Z" transform="translate(-330 -385.67)" fill="none" stroke="#fdfdfd" stroke-width="20"/>
    </g>
    <g transform="matrix(1, 0, 0, 1, -30, -30)" filter="url(#Path_47)">
      <path id="Path_47-2" data-name="Path 47" d="M437,594.106l31.48-30.436h42.709l30.937,30.436v42.661l-30.937,31.767H468.48L437,636.767Z" transform="translate(-407 -311.67)" fill="none" stroke="#fdfdfd" stroke-width="20"/>
    </g>
    <g transform="matrix(1, 0, 0, 1, -30, -30)" filter="url(#Path_48)">
      <path id="Path_48-2" data-name="Path 48" d="M437,594.106l31.48-30.436h42.709l30.937,30.436v42.661l-30.937,31.767H468.48L437,636.767Z" transform="translate(132 -533.67)" fill="none" stroke="#fdfdfd" stroke-width="20"/>
    </g>
    <g transform="matrix(1, 0, 0, 1, -30, -30)" filter="url(#Path_49)">
      <path id="Path_49-2" data-name="Path 49" d="M437,594.106l31.48-30.436h42.709l30.937,30.436v42.661l-30.937,31.767H468.48L437,636.767Z" transform="translate(55 -459.67)" fill="none" stroke="#fdfdfd" stroke-width="20"/>
    </g>
    <g transform="matrix(1, 0, 0, 1, -30, -30)" filter="url(#Path_50)">
      <path id="Path_50-2" data-name="Path 50" d="M437,594.106l31.48-30.436h42.709l30.937,30.436v42.661l-30.937,31.767H468.48L437,636.767Z" transform="translate(-21 -533.67)" fill="none" stroke="#fdfdfd" stroke-width="20"/>
    </g>
    <g transform="matrix(1, 0, 0, 1, -30, -30)" filter="url(#Path_51)">
      <path id="Path_51-2" data-name="Path 51" d="M437,594.106l31.48-30.436h42.709l30.937,30.436v42.661l-30.937,31.767H468.48L437,636.767Z" transform="translate(-98 -459.67)" fill="none" stroke="#fdfdfd" stroke-width="20"/>
    </g>
    <g transform="matrix(1, 0, 0, 1, -30, -30)" filter="url(#Path_52)">
      <path id="Path_52-2" data-name="Path 52" d="M437,594.106l31.48-30.436h42.709l30.937,30.436v42.661l-30.937,31.767H468.48L437,636.767Z" transform="translate(-101 -14.67)" fill="none" stroke="#fdfdfd" stroke-width="20"/>
    </g>
    <g transform="matrix(1, 0, 0, 1, -30, -30)" filter="url(#Path_53)">
      <path id="Path_53-2" data-name="Path 53" d="M437,594.106l31.48-30.436h42.709l30.937,30.436v42.661l-30.937,31.767H468.48L437,636.767Z" transform="translate(-178 59.33)" fill="none" stroke="#fdfdfd" stroke-width="20"/>
    </g>
    <g transform="matrix(1, 0, 0, 1, -30, -30)" filter="url(#Path_54)">
      <path id="Path_54-2" data-name="Path 54" d="M437,594.106l31.48-30.436h42.709l30.937,30.436v42.661l-30.937,31.767H468.48L437,636.767Z" transform="translate(-254 -14.67)" fill="none" stroke="#fdfdfd" stroke-width="20"/>
    </g>
    <g transform="matrix(1, 0, 0, 1, -30, -30)" filter="url(#Path_55)">
      <path id="Path_55-2" data-name="Path 55" d="M437,594.106l31.48-30.436h42.709l30.937,30.436v42.661l-30.937,31.767H468.48L437,636.767Z" transform="translate(-178 -88.67)" fill="none" stroke="#fdfdfd" stroke-width="20"/>
    </g>
    <g transform="matrix(1, 0, 0, 1, -30, -30)" filter="url(#Path_56)">
      <path id="Path_56-2" data-name="Path 56" d="M437,594.106l31.48-30.436h42.709l30.937,30.436v42.661l-30.937,31.767H468.48L437,636.767Z" transform="translate(656 270.33)" fill="none" stroke="#fdfdfd" stroke-width="20"/>
    </g>
    <g transform="matrix(1, 0, 0, 1, -30, -30)" filter="url(#Path_57)">
      <path id="Path_57-2" data-name="Path 57" d="M437,594.106l31.48-30.436h42.709l30.937,30.436v42.661l-30.937,31.767H468.48L437,636.767Z" transform="translate(579 344.33)" fill="none" stroke="#fdfdfd" stroke-width="20"/>
    </g>
    <g transform="matrix(1, 0, 0, 1, -30, -30)" filter="url(#Path_58)">
      <path id="Path_58-2" data-name="Path 58" d="M437,594.106l31.48-30.436h42.709l30.937,30.436v42.661l-30.937,31.767H468.48L437,636.767Z" transform="translate(503 270.33)" fill="none" stroke="#fdfdfd" stroke-width="20"/>
    </g>
    <g transform="matrix(1, 0, 0, 1, -30, -30)" filter="url(#Path_59)">
      <path id="Path_59-2" data-name="Path 59" d="M437,594.106l31.48-30.436h42.709l30.937,30.436v42.661l-30.937,31.767H468.48L437,636.767Z" transform="translate(426 344.33)" fill="none" stroke="#fdfdfd" stroke-width="20"/>
    </g>
    <g transform="matrix(1, 0, 0, 1, -30, -30)" filter="url(#Path_60)">
      <path id="Path_60-2" data-name="Path 60" d="M437,594.106l31.48-30.436h42.709l30.937,30.436v42.661l-30.937,31.767H468.48L437,636.767Z" transform="translate(347 270.33)" fill="none" stroke="#fdfdfd" stroke-width="20"/>
    </g>
    <g transform="matrix(1, 0, 0, 1, -30, -30)" filter="url(#Path_61)">
      <path id="Path_61-2" data-name="Path 61" d="M437,594.106l31.48-30.436h42.709l30.937,30.436v42.661l-30.937,31.767H468.48L437,636.767Z" transform="translate(579 196.33)" fill="none" stroke="#fdfdfd" stroke-width="20"/>
    </g>
    <g transform="matrix(1, 0, 0, 1, -30, -30)" filter="url(#Path_62)">
      <path id="Path_62-2" data-name="Path 62" d="M437,594.106l31.48-30.436h42.709l30.937,30.436v42.661l-30.937,31.767H468.48L437,636.767Z" transform="translate(426 196.33)" fill="none" stroke="#fdfdfd" stroke-width="20"/>
    </g>
  </g>
</svg>
